<svg xmlns="http://www.w3.org/2000/svg" xmlns:xlink="http://www.w3.org/1999/xlink" width="800" zoomAndPan="magnify" viewBox="0 0 600 599.999999" height="800" preserveAspectRatio="xMidYMid meet" version="1.0"><defs><clipPath id="e47e55b55f"><path d="M 26.265625 26.265625 L 573.765625 26.265625 L 573.765625 573.765625 L 26.265625 573.765625 Z M 26.265625 26.265625 " clip-rule="nonzero"/></clipPath></defs><g clip-path="url(#e47e55b55f)"><path fill="#38b6ff" d="M 535.40625 91.960938 L 486.136719 91.960938 L 486.136719 37.214844 C 486.136719 31.167969 481.242188 26.265625 475.183594 26.265625 C 469.128906 26.265625 464.234375 31.167969 464.234375 37.214844 L 464.234375 91.960938 L 135.757812 91.960938 L 135.757812 37.214844 C 135.757812 31.167969 130.851562 26.265625 124.808594 26.265625 C 118.765625 26.265625 113.859375 31.167969 113.859375 37.214844 L 113.859375 91.960938 L 64.585938 91.960938 C 43.453125 91.960938 26.265625 109.152344 26.265625 130.28125 L 26.265625 535.40625 C 26.265625 556.539062 43.453125 573.730469 64.585938 573.730469 L 535.40625 573.730469 C 556.539062 573.730469 573.730469 556.539062 573.730469 535.40625 L 573.730469 130.28125 C 573.730469 109.152344 556.539062 91.960938 535.40625 91.960938 Z M 64.585938 113.859375 L 113.859375 113.859375 L 113.859375 146.707031 C 113.859375 152.75 118.765625 157.65625 124.808594 157.65625 C 130.851562 157.65625 135.757812 152.75 135.757812 146.707031 L 135.757812 113.859375 L 464.234375 113.859375 L 464.234375 146.707031 C 464.234375 152.75 469.128906 157.65625 475.183594 157.65625 C 481.242188 157.65625 486.136719 152.75 486.136719 146.707031 L 486.136719 113.859375 L 535.40625 113.859375 C 544.460938 113.859375 551.832031 121.226562 551.832031 130.28125 L 551.832031 201.453125 L 48.164062 201.453125 L 48.164062 130.28125 C 48.164062 121.226562 55.53125 113.859375 64.585938 113.859375 Z M 535.40625 551.832031 L 64.585938 551.832031 C 55.53125 551.832031 48.164062 544.460938 48.164062 535.40625 L 48.164062 223.351562 L 551.832031 223.351562 L 551.832031 535.40625 C 551.832031 544.460938 544.460938 551.832031 535.40625 551.832031 Z M 535.40625 551.832031 " fill-opacity="1" fill-rule="nonzero"/></g><path fill="#38b6ff" d="M 102.910156 278.097656 L 146.707031 278.097656 L 146.707031 321.894531 L 102.910156 321.894531 Z M 102.910156 278.097656 " fill-opacity="1" fill-rule="nonzero"/><path fill="#38b6ff" d="M 190.503906 278.097656 L 234.300781 278.097656 L 234.300781 321.894531 L 190.503906 321.894531 Z M 190.503906 278.097656 " fill-opacity="1" fill-rule="nonzero"/><path fill="#38b6ff" d="M 278.097656 278.097656 L 321.894531 278.097656 L 321.894531 321.894531 L 278.097656 321.894531 Z M 278.097656 278.097656 " fill-opacity="1" fill-rule="nonzero"/><path fill="#38b6ff" d="M 365.691406 278.097656 L 409.488281 278.097656 L 409.488281 321.894531 L 365.691406 321.894531 Z M 365.691406 278.097656 " fill-opacity="1" fill-rule="nonzero"/><path fill="#38b6ff" d="M 453.285156 278.097656 L 497.085938 278.097656 L 497.085938 321.894531 L 453.285156 321.894531 Z M 453.285156 278.097656 " fill-opacity="1" fill-rule="nonzero"/><path fill="#38b6ff" d="M 102.910156 365.691406 L 146.707031 365.691406 L 146.707031 409.488281 L 102.910156 409.488281 Z M 102.910156 365.691406 " fill-opacity="1" fill-rule="nonzero"/><path fill="#38b6ff" d="M 190.503906 365.691406 L 234.300781 365.691406 L 234.300781 409.488281 L 190.503906 409.488281 Z M 190.503906 365.691406 " fill-opacity="1" fill-rule="nonzero"/><path fill="#38b6ff" d="M 278.097656 365.691406 L 321.894531 365.691406 L 321.894531 409.488281 L 278.097656 409.488281 Z M 278.097656 365.691406 " fill-opacity="1" fill-rule="nonzero"/><path fill="#38b6ff" d="M 365.691406 365.691406 L 409.488281 365.691406 L 409.488281 409.488281 L 365.691406 409.488281 Z M 365.691406 365.691406 " fill-opacity="1" fill-rule="nonzero"/><path fill="#38b6ff" d="M 453.285156 365.691406 L 497.085938 365.691406 L 497.085938 409.488281 L 453.285156 409.488281 Z M 453.285156 365.691406 " fill-opacity="1" fill-rule="nonzero"/><path fill="#38b6ff" d="M 102.910156 453.285156 L 146.707031 453.285156 L 146.707031 497.085938 L 102.910156 497.085938 Z M 102.910156 453.285156 " fill-opacity="1" fill-rule="nonzero"/><path fill="#38b6ff" d="M 190.503906 453.285156 L 234.300781 453.285156 L 234.300781 497.085938 L 190.503906 497.085938 Z M 190.503906 453.285156 " fill-opacity="1" fill-rule="nonzero"/><path fill="#38b6ff" d="M 278.097656 453.285156 L 321.894531 453.285156 L 321.894531 497.085938 L 278.097656 497.085938 Z M 278.097656 453.285156 " fill-opacity="1" fill-rule="nonzero"/><path fill="#38b6ff" d="M 365.691406 453.285156 L 409.488281 453.285156 L 409.488281 497.085938 L 365.691406 497.085938 Z M 365.691406 453.285156 " fill-opacity="1" fill-rule="nonzero"/><path fill="#38b6ff" d="M 453.285156 453.285156 L 497.085938 453.285156 L 497.085938 497.085938 L 453.285156 497.085938 Z M 453.285156 453.285156 " fill-opacity="1" fill-rule="nonzero"/></svg>