<svg xmlns="http://www.w3.org/2000/svg" xmlns:xlink="http://www.w3.org/1999/xlink" width="800" zoomAndPan="magnify" viewBox="0 0 600 599.999999" height="800" preserveAspectRatio="xMidYMid meet" version="1.0"><defs><clipPath id="3f70f33e2d"><path d="M 9.609375 124 L 590.425781 124 L 590.425781 539.953125 L 9.609375 539.953125 Z M 9.609375 124 " clip-rule="nonzero"/></clipPath><clipPath id="46daf7205d"><path d="M 315 23.203125 L 350 23.203125 L 350 69 L 315 69 Z M 315 23.203125 " clip-rule="nonzero"/></clipPath></defs><g clip-path="url(#3f70f33e2d)"><path fill="#2a8f77" d="M 300.019531 539.960938 C 291.695312 539.960938 283.375 536.792969 277.035156 530.457031 L 205.035156 458.457031 C 201.664062 455.085938 197.1875 453.234375 192.421875 453.234375 L 42.109375 453.234375 C 24.1875 453.234375 9.609375 438.648438 9.609375 420.726562 L 9.609375 157.1875 C 9.609375 139.269531 24.1875 124.6875 42.109375 124.6875 L 159.800781 124.6875 C 163.847656 124.6875 167.136719 127.96875 167.136719 132.023438 C 167.136719 136.074219 163.847656 139.355469 159.800781 139.355469 L 42.109375 139.355469 C 32.277344 139.355469 24.273438 147.355469 24.273438 157.1875 L 24.273438 420.726562 C 24.273438 430.5625 32.277344 438.5625 42.109375 438.5625 L 192.421875 438.5625 C 201.105469 438.5625 209.261719 441.945312 215.40625 448.082031 L 287.40625 520.085938 C 294.363281 527.039062 305.675781 527.039062 312.628906 520.085938 L 384.628906 448.082031 C 390.773438 441.945312 398.933594 438.5625 407.613281 438.5625 L 557.925781 438.5625 C 567.757812 438.5625 575.761719 430.5625 575.761719 420.726562 L 575.761719 157.1875 C 575.761719 147.355469 567.757812 139.355469 557.925781 139.355469 L 440.234375 139.355469 C 436.1875 139.355469 432.90625 136.074219 432.90625 132.023438 C 432.90625 127.96875 436.1875 124.6875 440.234375 124.6875 L 557.925781 124.6875 C 575.847656 124.6875 590.429688 139.269531 590.429688 157.1875 L 590.429688 420.726562 C 590.429688 438.648438 575.847656 453.234375 557.925781 453.234375 L 407.613281 453.234375 C 402.847656 453.234375 398.371094 455.085938 395.003906 458.457031 L 323 530.457031 C 316.660156 536.792969 308.339844 539.960938 300.019531 539.960938 " fill-opacity="1" fill-rule="nonzero"/></g><path fill="#2a8f77" d="M 107.332031 228.546875 L 101.609375 258.21875 L 92.992188 228.144531 C 92.417969 226.144531 90.582031 224.761719 88.5 224.761719 L 87.953125 224.761719 C 85.867188 224.761719 84.035156 226.144531 83.460938 228.144531 L 74.839844 258.21875 L 69.125 228.546875 C 68.699219 226.351562 66.773438 224.761719 64.53125 224.761719 C 61.53125 224.761719 59.3125 227.554688 59.980469 230.480469 L 69.382812 271.292969 C 69.878906 273.410156 71.761719 274.914062 73.941406 274.914062 L 75.527344 274.914062 C 77.644531 274.914062 79.5 273.492188 80.042969 271.441406 L 88.433594 239.871094 L 96.441406 271.394531 C 96.964844 273.460938 98.828125 274.914062 100.964844 274.914062 L 102.515625 274.914062 C 104.6875 274.914062 106.578125 273.410156 107.066406 271.292969 L 116.46875 230.480469 C 117.144531 227.554688 114.921875 224.761719 111.917969 224.761719 C 109.679688 224.761719 107.753906 226.351562 107.332031 228.546875 " fill-opacity="1" fill-rule="nonzero"/><path fill="#2a8f77" d="M 133.101562 274.914062 L 152.695312 274.914062 C 155.207031 274.914062 157.246094 272.875 157.246094 270.363281 C 157.246094 267.84375 155.207031 265.808594 152.695312 265.808594 L 133.101562 265.808594 L 133.101562 254.566406 L 148.898438 254.566406 C 151.414062 254.566406 153.449219 252.523438 153.449219 250.007812 C 153.449219 247.492188 151.414062 245.457031 148.898438 245.457031 L 133.101562 245.457031 L 133.101562 233.863281 L 152.695312 233.863281 C 155.207031 233.863281 157.246094 231.828125 157.246094 229.3125 C 157.246094 226.796875 155.207031 224.761719 152.695312 224.761719 L 127.066406 224.761719 C 125.179688 224.761719 123.652344 226.289062 123.652344 228.175781 L 123.652344 271.5 C 123.652344 273.386719 125.179688 274.914062 127.066406 274.914062 L 133.101562 274.914062 " fill-opacity="1" fill-rule="nonzero"/><path fill="#2a8f77" d="M 194.144531 271.441406 L 202.539062 239.871094 L 210.542969 271.394531 C 211.066406 273.460938 212.929688 274.914062 215.070312 274.914062 L 216.617188 274.914062 C 218.792969 274.914062 220.683594 273.410156 221.171875 271.292969 L 230.574219 230.480469 C 231.25 227.554688 229.023438 224.761719 226.023438 224.761719 C 223.78125 224.761719 221.855469 226.351562 221.433594 228.546875 L 215.714844 258.21875 L 207.09375 228.144531 C 206.519531 226.144531 204.6875 224.761719 202.605469 224.761719 L 202.054688 224.761719 C 199.972656 224.761719 198.136719 226.144531 197.566406 228.144531 L 188.945312 258.21875 L 183.230469 228.546875 C 182.800781 226.351562 180.878906 224.761719 178.640625 224.761719 C 175.636719 224.761719 173.414062 227.554688 174.085938 230.480469 L 183.488281 271.292969 C 183.980469 273.410156 185.867188 274.914062 188.042969 274.914062 L 189.628906 274.914062 C 191.75 274.914062 193.601562 273.492188 194.144531 271.441406 " fill-opacity="1" fill-rule="nonzero"/><path fill="#2a8f77" d="M 252 240.660156 L 257.996094 257.769531 L 246.007812 257.769531 Z M 242.8125 266.878906 L 261.183594 266.878906 L 262.902344 271.765625 C 263.5625 273.648438 265.339844 274.914062 267.339844 274.914062 C 270.636719 274.914062 272.914062 271.609375 271.734375 268.53125 L 256.074219 227.566406 C 255.429688 225.875 253.808594 224.761719 252 224.761719 C 250.191406 224.761719 248.570312 225.875 247.925781 227.566406 L 232.265625 268.53125 C 231.085938 271.609375 233.363281 274.914062 236.660156 274.914062 C 238.660156 274.914062 240.4375 273.648438 241.097656 271.765625 L 242.8125 266.878906 " fill-opacity="1" fill-rule="nonzero"/><path fill="#2a8f77" d="M 310.003906 274.878906 L 314.292969 274.878906 C 316.792969 274.878906 318.816406 272.859375 318.816406 270.363281 L 318.816406 229.28125 C 318.816406 226.785156 316.792969 224.761719 314.292969 224.761719 C 311.800781 224.761719 309.773438 226.785156 309.773438 229.28125 L 309.773438 261.480469 L 293.179688 227.308594 C 292.421875 225.753906 290.847656 224.761719 289.113281 224.761719 L 284.90625 224.761719 C 282.414062 224.761719 280.386719 226.785156 280.386719 229.28125 L 280.386719 270.363281 C 280.386719 272.859375 282.414062 274.878906 284.90625 274.878906 C 287.402344 274.878906 289.421875 272.859375 289.421875 270.363281 L 289.421875 238.726562 L 305.949219 272.355469 C 306.710938 273.898438 308.28125 274.878906 310.003906 274.878906 " fill-opacity="1" fill-rule="nonzero"/><path fill="#2a8f77" d="M 341.164062 274.914062 L 341.507812 274.914062 C 344.023438 274.914062 346.0625 272.875 346.0625 270.363281 L 346.0625 233.863281 L 355.167969 233.863281 C 357.683594 233.863281 359.722656 231.828125 359.722656 229.3125 C 359.722656 226.796875 357.683594 224.761719 355.167969 224.761719 L 327.507812 224.761719 C 324.992188 224.761719 322.949219 226.796875 322.949219 229.3125 C 322.949219 231.828125 324.992188 233.863281 327.507812 233.863281 L 336.609375 233.863281 L 336.609375 270.363281 C 336.609375 272.875 338.648438 274.914062 341.164062 274.914062 " fill-opacity="1" fill-rule="nonzero"/><path fill="#2a8f77" d="M 388.179688 274.914062 C 390.789062 274.914062 392.90625 272.796875 392.90625 270.191406 L 392.90625 255.566406 L 404.628906 231.097656 C 406.035156 228.160156 403.898438 224.761719 400.640625 224.761719 C 398.894531 224.761719 397.316406 225.792969 396.605469 227.386719 L 388.179688 246.355469 L 379.757812 227.386719 C 379.046875 225.792969 377.460938 224.761719 375.714844 224.761719 C 372.460938 224.761719 370.320312 228.160156 371.726562 231.097656 L 383.453125 255.566406 L 383.453125 270.191406 C 383.453125 272.796875 385.570312 274.914062 388.179688 274.914062 " fill-opacity="1" fill-rule="nonzero"/><path fill="#2a8f77" d="M 420.585938 261.808594 C 419.886719 260.472656 419.535156 258.933594 419.535156 257.1875 L 419.535156 242.492188 C 419.535156 240.742188 419.886719 239.203125 420.585938 237.867188 C 421.285156 236.535156 422.28125 235.503906 423.566406 234.777344 C 424.859375 234.058594 426.351562 233.695312 428.054688 233.695312 C 429.753906 233.695312 431.25 234.058594 432.539062 234.777344 C 433.828125 235.503906 434.820312 236.535156 435.519531 237.867188 C 436.222656 239.203125 436.570312 240.742188 436.570312 242.492188 L 436.570312 257.1875 C 436.570312 258.933594 436.222656 260.472656 435.519531 261.808594 C 434.820312 263.140625 433.828125 264.171875 432.539062 264.894531 C 431.25 265.617188 429.753906 265.980469 428.054688 265.980469 C 426.351562 265.980469 424.859375 265.617188 423.566406 264.894531 C 422.28125 264.171875 421.285156 263.140625 420.585938 261.808594 Z M 437.660156 273.136719 C 440.433594 271.609375 442.578125 269.449219 444.089844 266.65625 C 445.609375 263.863281 446.371094 260.625 446.371094 256.941406 L 446.371094 242.734375 C 446.371094 239.050781 445.609375 235.816406 444.089844 233.023438 C 442.578125 230.226562 440.433594 228.070312 437.660156 226.539062 C 434.890625 225.011719 431.683594 224.242188 428.054688 224.242188 C 424.421875 224.242188 421.214844 225.011719 418.445312 226.539062 C 415.679688 228.070312 413.53125 230.226562 412.015625 233.023438 C 410.496094 235.816406 409.742188 239.050781 409.742188 242.734375 L 409.742188 256.941406 C 409.742188 260.625 410.496094 263.863281 412.015625 266.65625 C 413.53125 269.449219 415.679688 271.609375 418.445312 273.136719 C 421.214844 274.667969 424.421875 275.433594 428.054688 275.433594 C 431.683594 275.433594 434.890625 274.667969 437.660156 273.136719 " fill-opacity="1" fill-rule="nonzero"/><path fill="#2a8f77" d="M 490.160156 266.859375 C 491.597656 264.070312 492.3125 260.703125 492.3125 256.769531 L 492.3125 229.484375 C 492.3125 226.875 490.199219 224.761719 487.589844 224.761719 C 484.976562 224.761719 482.863281 226.875 482.863281 229.484375 L 482.863281 257.015625 C 482.863281 259.890625 482.085938 262.117188 480.535156 263.703125 C 478.984375 265.289062 476.792969 266.085938 473.964844 266.085938 C 471.15625 266.085938 468.988281 265.289062 467.441406 263.703125 C 465.902344 262.117188 465.132812 259.890625 465.132812 257.015625 L 465.132812 229.484375 C 465.132812 226.875 463.019531 224.761719 460.40625 224.761719 C 457.796875 224.761719 455.683594 226.875 455.683594 229.484375 L 455.683594 256.769531 C 455.683594 260.703125 456.394531 264.070312 457.820312 266.859375 C 459.25 269.652344 461.328125 271.78125 464.0625 273.242188 C 466.800781 274.703125 470.097656 275.433594 473.964844 275.433594 C 477.824219 275.433594 481.132812 274.703125 483.882812 273.242188 C 486.628906 271.78125 488.722656 269.652344 490.160156 266.859375 " fill-opacity="1" fill-rule="nonzero"/><path fill="#2a8f77" d="M 523.875 233.835938 C 524.863281 233.835938 525.730469 234.074219 526.460938 234.554688 C 527.195312 235.039062 527.765625 235.730469 528.171875 236.628906 C 528.574219 237.523438 528.773438 238.558594 528.773438 239.730469 C 528.75 240.90625 528.539062 241.9375 528.136719 242.835938 C 527.734375 243.730469 527.160156 244.421875 526.425781 244.902344 C 525.691406 245.386719 524.839844 245.628906 523.875 245.628906 L 512.113281 245.628906 L 512.113281 233.835938 Z M 512.113281 254.738281 L 517.84375 254.738281 L 527.796875 272.496094 C 528.632812 273.992188 530.210938 274.914062 531.921875 274.914062 L 532.398438 274.914062 C 536.039062 274.914062 538.316406 270.96875 536.488281 267.820312 L 528.613281 254.234375 C 529.78125 253.929688 530.875 253.472656 531.894531 252.875 C 534 251.632812 535.625 249.875 536.777344 247.609375 C 537.925781 245.34375 538.5 242.71875 538.5 239.730469 C 538.5 236.738281 537.925781 234.113281 536.777344 231.847656 C 535.625 229.582031 534.003906 227.828125 531.910156 226.589844 C 529.816406 225.347656 527.394531 224.726562 524.636719 224.726562 L 506.074219 224.726562 C 504.191406 224.726562 502.660156 226.253906 502.660156 228.140625 L 502.660156 270.191406 C 502.660156 272.796875 504.78125 274.914062 507.386719 274.914062 C 509.996094 274.914062 512.113281 272.796875 512.113281 270.191406 L 512.113281 254.738281 " fill-opacity="1" fill-rule="nonzero"/><path fill="#2a8f77" d="M 63.527344 308.753906 L 63.480469 308.753906 C 60.835938 308.753906 58.691406 310.894531 58.691406 313.542969 L 58.691406 372.710938 C 58.691406 376.242188 61.550781 379.101562 65.078125 379.101562 L 65.558594 379.101562 C 69.089844 379.101562 71.949219 376.242188 71.949219 372.710938 L 71.949219 351.183594 L 93.1875 351.183594 C 96.714844 351.183594 99.574219 348.324219 99.574219 344.800781 C 99.574219 341.269531 96.714844 338.410156 93.1875 338.410156 L 71.949219 338.410156 L 71.949219 321.523438 L 98.511719 321.523438 C 102.039062 321.523438 104.898438 318.664062 104.898438 315.136719 C 104.898438 311.613281 102.039062 308.753906 98.511719 308.753906 L 63.527344 308.753906 " fill-opacity="1" fill-rule="nonzero"/><path fill="#2a8f77" d="M 114.09375 313.542969 L 114.09375 374.3125 C 114.09375 376.953125 116.234375 379.101562 118.882812 379.101562 L 154.832031 379.101562 C 158.359375 379.101562 161.21875 376.242188 161.21875 372.710938 C 161.21875 369.1875 158.359375 366.328125 154.832031 366.328125 L 127.34375 366.328125 L 127.34375 350.554688 L 149.507812 350.554688 C 153.035156 350.554688 155.894531 347.695312 155.894531 344.167969 C 155.894531 340.636719 153.035156 337.785156 149.507812 337.785156 L 127.34375 337.785156 L 127.34375 321.523438 L 154.832031 321.523438 C 158.359375 321.523438 161.21875 318.664062 161.21875 315.136719 C 161.21875 311.613281 158.359375 308.753906 154.832031 308.753906 L 118.882812 308.753906 C 116.234375 308.753906 114.09375 310.894531 114.09375 313.542969 " fill-opacity="1" fill-rule="nonzero"/><path fill="#2a8f77" d="M 173.3125 313.542969 L 173.3125 374.3125 C 173.3125 376.953125 175.457031 379.101562 178.105469 379.101562 L 214.054688 379.101562 C 217.578125 379.101562 220.4375 376.242188 220.4375 372.710938 C 220.4375 369.1875 217.578125 366.328125 214.054688 366.328125 L 186.570312 366.328125 L 186.570312 350.554688 L 208.730469 350.554688 C 212.253906 350.554688 215.117188 347.695312 215.117188 344.167969 C 215.117188 340.636719 212.253906 337.785156 208.730469 337.785156 L 186.570312 337.785156 L 186.570312 321.523438 L 214.054688 321.523438 C 217.578125 321.523438 220.4375 318.664062 220.4375 315.136719 C 220.4375 311.613281 217.578125 308.753906 214.054688 308.753906 L 178.105469 308.753906 C 175.457031 308.753906 173.3125 310.894531 173.3125 313.542969 " fill-opacity="1" fill-rule="nonzero"/><path fill="#2a8f77" d="M 269.789062 354.28125 C 269.789062 358.117188 268.597656 361.085938 266.207031 363.183594 C 263.820312 365.28125 260.453125 366.328125 256.101562 366.328125 L 245.792969 366.328125 L 245.792969 321.523438 L 256.101562 321.523438 C 260.453125 321.523438 263.820312 322.574219 266.207031 324.667969 C 268.597656 326.765625 269.789062 329.730469 269.789062 333.574219 Z M 270.832031 311.703125 C 266.6875 309.738281 261.675781 308.753906 255.804688 308.753906 L 237.324219 308.753906 C 234.679688 308.753906 232.535156 310.894531 232.535156 313.542969 L 232.535156 374.3125 C 232.535156 376.953125 234.679688 379.101562 237.324219 379.101562 L 255.757812 379.101562 C 261.789062 379.101562 266.890625 378.050781 271.050781 375.957031 C 275.210938 373.859375 278.328125 370.925781 280.410156 367.148438 C 282.496094 363.375 283.53125 358.957031 283.53125 353.890625 L 283.53125 333.957031 C 283.53125 328.632812 282.449219 324.089844 280.289062 320.3125 C 278.132812 316.539062 274.976562 313.667969 270.832031 311.703125 " fill-opacity="1" fill-rule="nonzero"/><path fill="#2a8f77" d="M 335.351562 357.957031 C 335.351562 360.601562 334.519531 362.660156 332.863281 364.128906 C 331.195312 365.597656 328.855469 366.328125 325.820312 366.328125 L 310.820312 366.328125 L 310.820312 349.390625 L 325.820312 349.390625 C 327.816406 349.390625 329.535156 349.726562 330.972656 350.386719 C 332.410156 351.046875 333.496094 352.007812 334.238281 353.261719 C 334.980469 354.523438 335.351562 356.039062 335.351562 357.8125 Z M 325.820312 321.523438 C 328.558594 321.523438 330.683594 322.152344 332.179688 323.414062 C 333.683594 324.667969 334.429688 326.429688 334.429688 328.683594 C 334.429688 331.199219 333.683594 333.15625 332.179688 334.539062 C 330.683594 335.925781 328.558594 336.621094 325.820312 336.621094 L 310.820312 336.621094 L 310.820312 321.523438 Z M 341.953125 345.886719 C 339.746094 344.417969 337.09375 343.472656 333.996094 343.054688 C 336.898438 342.574219 339.382812 341.65625 341.445312 340.296875 C 343.507812 338.941406 345.082031 337.210938 346.164062 335.097656 C 347.246094 332.984375 347.785156 330.554688 347.785156 327.8125 C 347.785156 323.8125 346.949219 320.386719 345.273438 317.53125 C 343.589844 314.675781 341.140625 312.5 337.917969 311.003906 C 334.691406 309.5 330.804688 308.753906 326.253906 308.753906 L 302.351562 308.753906 C 299.707031 308.753906 297.5625 310.894531 297.5625 313.542969 L 297.5625 374.3125 C 297.5625 376.953125 299.707031 379.101562 302.351562 379.101562 L 327.074219 379.101562 C 331.628906 379.101562 335.519531 378.351562 338.765625 376.851562 C 342.003906 375.347656 344.472656 373.164062 346.164062 370.292969 C 347.855469 367.425781 348.707031 363.976562 348.707031 359.941406 L 348.707031 359.792969 C 348.707031 356.699219 348.132812 353.972656 346.988281 351.621094 C 345.839844 349.265625 344.164062 347.355469 341.953125 345.886719 " fill-opacity="1" fill-rule="nonzero"/><path fill="#2a8f77" d="M 377.453125 355.054688 L 385.863281 331.058594 L 394.277344 355.054688 Z M 380.148438 312.683594 L 358.179688 370.140625 C 356.527344 374.464844 359.71875 379.101562 364.347656 379.101562 C 367.152344 379.101562 369.644531 377.332031 370.574219 374.683594 L 372.976562 367.832031 L 398.753906 367.832031 L 401.15625 374.683594 C 402.078125 377.332031 404.578125 379.101562 407.382812 379.101562 C 412.011719 379.101562 415.199219 374.464844 413.550781 370.140625 L 391.574219 312.683594 C 390.671875 310.316406 388.398438 308.753906 385.863281 308.753906 C 383.332031 308.753906 381.058594 310.316406 380.148438 312.683594 " fill-opacity="1" fill-rule="nonzero"/><path fill="#2a8f77" d="M 437.902344 327.257812 C 438.824219 325.308594 440.152344 323.824219 441.894531 322.808594 C 443.636719 321.792969 445.746094 321.285156 448.230469 321.285156 C 450.136719 321.285156 451.851562 321.714844 453.386719 322.589844 C 454.914062 323.457031 456.222656 324.71875 457.304688 326.363281 C 457.730469 327.007812 458.109375 327.707031 458.445312 328.453125 C 459.507812 330.820312 461.898438 332.3125 464.492188 332.3125 L 464.609375 332.3125 C 469.371094 332.3125 472.675781 327.4375 470.769531 323.074219 C 470.164062 321.691406 469.484375 320.390625 468.722656 319.175781 C 466.453125 315.550781 463.570312 312.785156 460.085938 310.878906 C 456.601562 308.976562 452.648438 308.027344 448.230469 308.027344 C 442.875 308.027344 438.292969 309.058594 434.488281 311.121094 C 430.683594 313.1875 427.777344 316.179688 425.78125 320.09375 C 423.78125 324.015625 422.78125 328.75 422.78125 334.296875 L 422.78125 353.601562 C 422.78125 359.15625 423.78125 363.882812 425.78125 367.800781 C 427.777344 371.722656 430.683594 374.710938 434.488281 376.757812 L 434.605469 376.816406 C 438.277344 378.792969 442.378906 379.828125 446.550781 379.828125 L 448.230469 379.828125 C 452.648438 379.828125 456.59375 378.878906 460.0625 376.96875 C 463.53125 375.070312 466.402344 372.300781 468.675781 368.675781 C 469.394531 367.527344 470.042969 366.308594 470.628906 365.011719 C 472.617188 360.566406 469.433594 355.539062 464.5625 355.539062 C 461.9375 355.539062 459.53125 357.066406 458.480469 359.46875 C 458.15625 360.210938 457.785156 360.902344 457.375 361.535156 C 456.3125 363.183594 455.007812 364.433594 453.457031 365.285156 C 451.910156 366.144531 450.164062 366.570312 448.230469 366.570312 C 445.746094 366.570312 443.636719 366.0625 441.894531 365.046875 C 440.152344 364.03125 438.824219 362.554688 437.902344 360.617188 C 436.984375 358.683594 436.519531 356.34375 436.519531 353.601562 L 436.519531 334.296875 C 436.519531 331.554688 436.984375 329.207031 437.902344 327.257812 " fill-opacity="1" fill-rule="nonzero"/><path fill="#2a8f77" d="M 529.488281 379.101562 L 529.890625 379.101562 C 534.996094 379.101562 538.179688 373.578125 535.628906 369.15625 L 517.53125 337.808594 L 530.875 319.246094 C 534.023438 314.863281 530.890625 308.753906 525.488281 308.753906 L 525.300781 308.753906 C 523.070312 308.753906 520.988281 309.871094 519.765625 311.734375 L 498.796875 343.605469 L 498.796875 315.382812 C 498.796875 311.71875 495.824219 308.753906 492.167969 308.753906 C 488.503906 308.753906 485.535156 311.71875 485.535156 315.382812 L 485.535156 372.472656 C 485.535156 376.132812 488.503906 379.101562 492.167969 379.101562 C 495.824219 379.101562 498.796875 376.132812 498.796875 372.472656 L 498.796875 363.863281 L 508.875 349.84375 L 523.738281 375.769531 C 524.917969 377.828125 527.109375 379.101562 529.488281 379.101562 " fill-opacity="1" fill-rule="nonzero"/><path fill="#2a8f77" d="M 206.386719 136.492188 L 204.875 137.160156 C 194.632812 141.636719 189.933594 153.613281 194.414062 163.859375 C 198.890625 174.105469 210.867188 178.800781 221.113281 174.320312 L 222.628906 173.660156 C 223.140625 173.433594 223.378906 172.835938 223.15625 172.316406 L 207.734375 137.023438 C 207.503906 136.507812 206.90625 136.269531 206.386719 136.492188 " fill-opacity="1" fill-rule="nonzero"/><path fill="#2a8f77" d="M 282.667969 75.539062 C 282.328125 75.488281 281.976562 75.613281 281.75 75.875 L 262.695312 97.363281 C 248.941406 112.882812 231.628906 125.46875 212.632812 133.769531 C 212.117188 133.996094 211.878906 134.59375 212.109375 135.113281 L 227.527344 170.40625 C 227.753906 170.925781 228.355469 171.160156 228.871094 170.929688 C 247.871094 162.636719 268.867188 158.480469 289.589844 158.933594 L 318.308594 159.550781 C 318.460938 159.554688 318.601562 159.527344 318.738281 159.464844 C 318.914062 159.390625 319.070312 159.265625 319.175781 159.105469 C 319.371094 158.816406 319.40625 158.445312 319.261719 158.128906 L 283.445312 76.140625 C 283.300781 75.824219 283.011719 75.597656 282.667969 75.539062 " fill-opacity="1" fill-rule="nonzero"/><path fill="#2a8f77" d="M 288.371094 66.171875 C 286.476562 67 285.613281 69.207031 286.441406 71.097656 L 324.996094 159.351562 C 325.824219 161.242188 328.03125 162.113281 329.925781 161.285156 C 331.816406 160.457031 332.683594 158.25 331.855469 156.355469 L 293.292969 68.105469 C 292.464844 66.210938 290.261719 65.34375 288.371094 66.171875 " fill-opacity="1" fill-rule="nonzero"/><path fill="#2a8f77" d="M 273.238281 185.851562 C 272.207031 186.859375 270.558594 186.839844 269.550781 185.8125 L 262.835938 178.957031 C 261.828125 177.925781 261.84375 176.273438 262.875 175.269531 L 262.921875 175.222656 C 263.316406 174.835938 263.324219 174.203125 262.941406 173.804688 L 256.359375 167.035156 C 256.226562 166.890625 256.027344 166.839844 255.847656 166.886719 L 239.027344 171.371094 C 238.847656 171.421875 238.707031 171.566406 238.65625 171.742188 C 238.605469 171.925781 238.65625 172.117188 238.78125 172.25 L 265.417969 199.929688 C 265.511719 200.03125 265.648438 200.09375 265.789062 200.09375 C 265.867188 200.09375 265.941406 200.078125 266.011719 200.046875 C 266.066406 200.023438 266.121094 199.992188 266.167969 199.945312 L 277.238281 189.292969 C 277.339844 189.199219 277.398438 189.058594 277.398438 188.917969 C 277.40625 188.78125 277.347656 188.644531 277.253906 188.542969 L 274.65625 185.871094 C 274.269531 185.472656 273.636719 185.464844 273.238281 185.851562 " fill-opacity="1" fill-rule="nonzero"/><path fill="#2a8f77" d="M 349.324219 141.828125 C 348.953125 140.984375 348.800781 140.03125 348.929688 139.050781 C 349.304688 136.164062 351.945312 134.132812 354.832031 134.507812 L 396.097656 139.882812 C 398.976562 140.253906 401.007812 142.894531 400.632812 145.78125 C 400.261719 148.660156 397.621094 150.691406 394.734375 150.316406 L 353.46875 144.945312 C 351.570312 144.699219 350.042969 143.46875 349.324219 141.828125 " fill-opacity="1" fill-rule="nonzero"/><g clip-path="url(#46daf7205d)"><path fill="#2a8f77" d="M 315.824219 65.15625 C 315.109375 63.515625 315.246094 61.554688 316.355469 59.996094 L 340.449219 26.066406 C 342.132812 23.699219 345.417969 23.140625 347.785156 24.824219 C 350.152344 26.503906 350.710938 29.792969 349.03125 32.164062 L 324.9375 66.09375 C 323.25 68.460938 319.96875 69.019531 317.597656 67.332031 C 316.792969 66.757812 316.195312 66 315.824219 65.15625 " fill-opacity="1" fill-rule="nonzero"/></g><path fill="#2a8f77" d="M 353.839844 113.289062 C 353.660156 112.878906 353.53125 112.429688 353.460938 111.96875 C 353.023438 109.09375 355.003906 106.410156 357.875 105.972656 L 399.023438 99.75 C 401.898438 99.316406 404.578125 101.296875 405.011719 104.164062 C 405.449219 107.039062 403.472656 109.722656 400.597656 110.15625 L 359.449219 116.382812 C 357.042969 116.742188 354.769531 115.417969 353.839844 113.289062 " fill-opacity="1" fill-rule="nonzero"/><path fill="#2a8f77" d="M 341.980469 86.136719 C 341.046875 84.007812 341.613281 81.4375 343.519531 79.917969 L 376.039062 53.957031 C 378.3125 52.144531 381.625 52.515625 383.4375 54.785156 C 385.25 57.054688 384.878906 60.367188 382.609375 62.179688 L 350.085938 88.144531 C 347.8125 89.957031 344.503906 89.585938 342.691406 87.316406 C 342.398438 86.945312 342.15625 86.546875 341.980469 86.136719 " fill-opacity="1" fill-rule="nonzero"/></svg>