<svg xmlns="http://www.w3.org/2000/svg" xmlns:xlink="http://www.w3.org/1999/xlink" width="800" zoomAndPan="magnify" viewBox="0 0 600 599.999999" height="800" preserveAspectRatio="xMidYMid meet" version="1.0"><defs><clipPath id="c448c15207"><path d="M 429 40.542969 L 507 40.542969 L 507 128 L 429 128 Z M 429 40.542969 " clip-rule="nonzero"/></clipPath><clipPath id="f80bc5bb69"><path d="M 26.164062 415 L 459 415 L 459 559.542969 L 26.164062 559.542969 Z M 26.164062 415 " clip-rule="nonzero"/></clipPath><clipPath id="59951b2c04"><path d="M 362 146 L 573.664062 146 L 573.664062 435 L 362 435 Z M 362 146 " clip-rule="nonzero"/></clipPath><clipPath id="3c2dfe852b"><path d="M 208 40.542969 L 238 40.542969 L 238 108 L 208 108 Z M 208 40.542969 " clip-rule="nonzero"/></clipPath></defs><rect x="-60" width="720" fill="#ffffff" y="-60" height="719.999999" fill-opacity="1"/><rect x="-60" width="720" fill="#ffffff" y="-60" height="719.999999" fill-opacity="1"/><g clip-path="url(#c448c15207)"><path fill="#38b6ff" d="M 506.582031 79.082031 C 506.582031 57.859375 489.378906 40.652344 468.152344 40.652344 C 446.929688 40.652344 429.726562 57.859375 429.726562 79.082031 L 429.726562 88.695312 C 429.726562 109.917969 446.929688 127.121094 468.152344 127.121094 C 489.378906 127.121094 506.582031 109.917969 506.582031 88.695312 Z M 506.582031 79.082031 " fill-opacity="1" fill-rule="nonzero"/></g><path fill="#38b6ff" d="M 391.296875 98.296875 C 391.296875 77.074219 374.089844 59.867188 352.867188 59.867188 C 331.644531 59.867188 314.4375 77.074219 314.4375 98.296875 L 314.4375 107.910156 C 314.4375 129.132812 331.644531 146.335938 352.867188 146.335938 C 374.089844 146.335938 391.296875 129.132812 391.296875 107.90625 Z M 391.296875 98.296875 " fill-opacity="1" fill-rule="nonzero"/><g clip-path="url(#f80bc5bb69)"><path fill="#38b6ff" d="M 458.542969 477.804688 C 458.542969 488.855469 451.046875 497.976562 440.957031 500.867188 C 389.65625 515.183594 297.03125 542.664062 245.730469 557.070312 C 243.332031 557.738281 236.320312 559.46875 227.957031 559.46875 C 156.570312 559.46875 100.558594 516.621094 26.195312 501.824219 L 26.195312 415.351562 C 26.195312 415.351562 107.28125 444.179688 127.65625 444.179688 C 148.027344 444.179688 161.277344 434.566406 218.351562 434.566406 L 314.425781 434.566406 C 324.996094 434.566406 333.640625 443.210938 333.640625 453.78125 C 333.640625 464.355469 324.996094 472.996094 314.425781 472.996094 L 237.566406 472.996094 C 232.28125 472.996094 227.957031 477.324219 227.957031 482.609375 C 227.957031 487.894531 232.28125 492.222656 237.566406 492.222656 L 314.425781 492.222656 C 328.457031 492.222656 340.753906 484.726562 347.378906 473.488281 C 378.503906 466.183594 408.101562 459.359375 429.046875 454.460938 C 430.875 454.082031 432.59375 453.792969 434.519531 453.792969 C 447.78125 453.792969 458.542969 464.554688 458.542969 477.8125 Z M 458.542969 477.804688 " fill-opacity="1" fill-rule="nonzero"/></g><g clip-path="url(#59951b2c04)"><path fill="#38b6ff" d="M 571.050781 251.792969 C 556.644531 227.773438 534.730469 191.261719 520.324219 167.242188 C 516.964844 161.644531 507.992188 146.335938 489.578125 146.335938 C 489.066406 146.335938 447.050781 146.335938 446.542969 146.335938 C 429.726562 146.335938 419.683594 161.085938 416.324219 166.679688 C 401.917969 190.703125 379.664062 227.773438 365.257812 251.792969 C 363.527344 254.679688 362.46875 258.019531 362.46875 261.625 C 362.46875 271.738281 370.589844 280.839844 381.683594 280.839844 C 388.6875 280.839844 394.753906 277.054688 398.109375 271.457031 C 403.796875 261.996094 411.71875 248.777344 420.113281 234.789062 L 420.113281 396.128906 C 420.113281 396.128906 418.453125 396.957031 417.902344 397.226562 C 407.664062 402.34375 400.898438 412.785156 400.898438 424.136719 C 400.898438 429.8125 405.222656 434.558594 410.890625 434.558594 L 447.128906 434.558594 C 453.4375 434.558594 458.542969 429.453125 458.542969 423.148438 L 458.542969 300.046875 C 458.542969 294.359375 463.21875 290.484375 468.152344 290.433594 C 473.390625 290.382812 477.765625 294.699219 477.765625 300.046875 L 477.765625 423.148438 C 477.765625 429.453125 482.871094 434.558594 489.175781 434.558594 L 525.417969 434.558594 C 531.09375 434.558594 535.410156 429.8125 535.410156 424.136719 C 535.410156 412.785156 528.644531 402.34375 518.402344 397.226562 C 517.855469 396.949219 516.195312 396.128906 516.195312 396.128906 L 516.195312 234.789062 C 524.589844 248.777344 532.511719 261.984375 538.199219 271.457031 C 541.554688 277.054688 547.632812 280.839844 554.625 280.839844 C 565.585938 280.839844 573.839844 271.917969 573.839844 261.625 C 573.839844 258.019531 572.78125 254.671875 571.050781 251.792969 Z M 571.050781 251.792969 " fill-opacity="1" fill-rule="nonzero"/></g><path fill="#38b6ff" d="M 391.386719 170.929688 L 348.828125 241.929688 C 347.390625 244.328125 346.140625 246.925781 345.371094 249.617188 C 337.949219 241.410156 313.257812 214.492188 295.613281 195.140625 C 297.53125 191.871094 299.359375 188.792969 301.085938 185.917969 C 304.355469 180.25 314.445312 165.550781 331.253906 165.550781 L 374.300781 165.550781 C 381.3125 165.550781 386.980469 167.761719 391.394531 170.9375 Z M 391.386719 170.929688 " fill-opacity="1" fill-rule="nonzero"/><path fill="#38b6ff" d="M 378.226562 314.753906 C 344.023438 275.746094 273.210938 199.945312 238.917969 161.027344 C 236.027344 157.660156 231.992188 155.929688 227.964844 155.929688 C 223.9375 155.929688 219.890625 157.660156 217.015625 161.027344 C 182.710938 199.933594 111.90625 275.746094 77.703125 314.753906 C 75.398438 317.441406 74.246094 320.617188 74.246094 323.6875 C 74.246094 331.28125 79.914062 338.484375 88.65625 338.484375 L 112.675781 338.484375 L 112.675781 422.238281 C 118.183594 423.667969 124.6875 424.945312 127.664062 424.945312 C 133.429688 424.945312 138.90625 423.796875 146.5 422.257812 C 160.910156 419.371094 180.703125 415.34375 218.363281 415.34375 L 314.4375 415.34375 C 325.96875 415.34375 336.25 420.4375 343.261719 428.414062 L 343.261719 338.484375 L 367.285156 338.484375 C 375.835938 338.484375 381.691406 331.179688 381.691406 324.167969 C 381.691406 320.898438 380.734375 317.542969 378.234375 314.753906 Z M 290.136719 306.152344 C 273.320312 320.558594 239.695312 349.394531 222.878906 363.792969 C 220.351562 365.953125 217.113281 367.3125 213.546875 367.3125 C 209.570312 367.3125 205.960938 365.703125 203.355469 363.09375 C 193.742188 353.484375 174.527344 334.269531 164.925781 324.664062 C 162.316406 322.058594 160.699219 318.449219 160.699219 314.472656 C 160.699219 306.511719 167.144531 300.066406 175.105469 300.066406 C 179.085938 300.066406 182.691406 301.683594 185.300781 304.28125 C 192.542969 311.527344 214.296875 333.277344 214.296875 333.277344 C 214.296875 333.277344 257.171875 296.597656 271.460938 284.367188 C 273.988281 282.210938 277.214844 280.851562 280.792969 280.851562 C 288.746094 280.851562 295.203125 287.304688 295.203125 295.257812 C 295.203125 299.636719 293.203125 303.511719 290.125 306.160156 Z M 290.136719 306.152344 " fill-opacity="1" fill-rule="nonzero"/><g clip-path="url(#3c2dfe852b)"><path fill="#38b6ff" d="M 237.566406 55.058594 C 237.566406 47.097656 231.113281 40.652344 223.160156 40.652344 C 215.207031 40.652344 208.75 47.105469 208.75 55.058594 L 208.75 93.488281 C 208.75 101.453125 215.207031 107.898438 223.160156 107.898438 C 231.113281 107.898438 237.566406 101.441406 237.566406 93.488281 Z M 237.566406 55.058594 " fill-opacity="1" fill-rule="nonzero"/></g><path fill="#38b6ff" d="M 156.480469 102.511719 C 149.277344 95.308594 134.871094 80.890625 127.65625 73.683594 C 125.046875 71.078125 121.441406 69.46875 117.464844 69.46875 C 109.5 69.46875 103.054688 75.921875 103.054688 83.878906 C 103.054688 87.855469 104.671875 91.460938 107.28125 94.070312 C 114.484375 101.273438 128.894531 115.683594 136.109375 122.894531 C 138.714844 125.503906 142.324219 127.113281 146.300781 127.113281 C 154.265625 127.113281 160.707031 120.65625 160.707031 112.703125 C 160.707031 108.726562 159.089844 105.121094 156.480469 102.511719 Z M 156.480469 102.511719 " fill-opacity="1" fill-rule="nonzero"/><path fill="#38b6ff" d="M 111.359375 175.632812 C 101.753906 173.226562 82.53125 168.429688 72.929688 166.023438 C 71.800781 165.742188 70.640625 165.542969 69.429688 165.542969 C 61.46875 165.542969 55.023438 171.996094 55.023438 179.949219 C 55.023438 186.695312 59.679688 192.320312 65.945312 193.890625 C 75.546875 196.296875 94.769531 201.09375 104.375 203.503906 C 105.503906 203.78125 106.660156 203.980469 107.871094 203.980469 C 115.835938 203.980469 122.28125 197.527344 122.28125 189.574219 C 122.28125 182.828125 117.625 177.203125 111.359375 175.632812 Z M 111.359375 175.632812 " fill-opacity="1" fill-rule="nonzero"/></svg>