<svg xmlns="http://www.w3.org/2000/svg" xmlns:xlink="http://www.w3.org/1999/xlink" width="800" zoomAndPan="magnify" viewBox="0 0 600 599.999999" height="800" preserveAspectRatio="xMidYMid meet" version="1.0"><path fill="#38b6ff" d="M 124.703125 378.21875 C 182.378906 378.21875 225.453125 356.09375 225.453125 336.320312 L 225.453125 303.746094 C 203.152344 319.820312 167.101562 329.945312 124.703125 329.945312 C 82.300781 329.945312 46.226562 319.820312 23.953125 303.746094 L 23.953125 336.320312 C 23.953125 356.09375 67.027344 378.21875 124.703125 378.21875 Z M 124.703125 450.046875 C 182.378906 450.046875 225.453125 427.921875 225.453125 408.144531 L 225.453125 375.96875 C 203.152344 392.046875 167.101562 402.171875 124.703125 402.171875 C 82.300781 402.171875 46.226562 392.046875 23.953125 375.96875 L 23.953125 408.144531 C 23.953125 427.921875 67.027344 450.046875 124.703125 450.046875 Z M 225.453125 481.171875 L 225.503906 481.171875 C 225.503906 481.046875 225.453125 480.894531 225.453125 480.796875 L 225.453125 447.796875 C 203.152344 463.894531 167.101562 473.996094 124.703125 473.996094 C 82.300781 473.996094 46.226562 463.894531 23.953125 447.796875 L 23.953125 481.171875 C 23.953125 500.945312 67.027344 523.070312 124.703125 523.070312 C 182.378906 523.070312 225.453125 500.945312 225.453125 481.171875 Z M 124.703125 222.195312 C 67.027344 222.195312 23.953125 244.320312 23.953125 264.09375 C 23.953125 283.894531 67.027344 305.996094 124.703125 305.996094 C 182.378906 305.996094 225.453125 283.894531 225.453125 264.09375 C 225.453125 244.320312 182.378906 222.195312 124.703125 222.195312 Z M 124.703125 198.269531 C 195.777344 198.269531 249.402344 226.570312 249.402344 264.09375 L 249.402344 480.796875 C 249.402344 480.894531 249.351562 481.046875 249.351562 481.171875 L 249.402344 481.171875 C 249.402344 518.71875 195.777344 547.019531 124.703125 547.019531 C 56.878906 547.019531 5.078125 521.246094 0.453125 486.246094 C 0.203125 485.269531 0.00390625 484.246094 0.00390625 483.171875 L 0.00390625 264.09375 C 0.00390625 226.570312 53.601562 198.269531 124.703125 198.269531 Z M 556.496094 75 C 579.597656 75 598.398438 93.800781 598.398438 116.898438 L 598.398438 505.125 C 598.398438 528.226562 579.597656 547.023438 556.496094 547.023438 L 319.398438 547.023438 C 296.296875 547.023438 277.496094 528.226562 277.496094 505.125 L 277.496094 116.898438 C 277.496094 93.800781 296.296875 75 319.398438 75 Z M 574.445312 505.125 L 574.445312 116.898438 C 574.445312 107 566.398438 98.925781 556.496094 98.925781 L 319.398438 98.925781 C 309.496094 98.925781 301.445312 107 301.445312 116.898438 L 301.445312 505.125 C 301.445312 515.023438 309.496094 523.074219 319.398438 523.074219 L 556.496094 523.074219 C 566.398438 523.074219 574.445312 515.023438 574.445312 505.125 Z M 527.648438 156.742188 C 537.523438 156.742188 545.601562 164.792969 545.601562 174.691406 L 545.601562 222.117188 C 545.601562 232.019531 537.527344 240.066406 527.648438 240.066406 L 348.25 240.066406 C 338.351562 240.066406 330.273438 232.019531 330.273438 222.117188 L 330.273438 174.691406 C 330.273438 164.792969 338.351562 156.742188 348.25 156.742188 Z M 354.226562 216.117188 L 521.675781 216.117188 L 521.675781 180.667969 L 354.226562 180.667969 Z M 362.058594 283.386719 C 372.980469 283.386719 381.855469 292.234375 381.855469 303.183594 C 381.855469 314.109375 372.980469 322.984375 362.058594 322.984375 C 351.132812 322.984375 342.257812 314.109375 342.257812 303.183594 C 342.257812 292.234375 351.132812 283.386719 362.058594 283.386719 Z M 437.945312 283.386719 C 448.871094 283.386719 457.746094 292.234375 457.746094 303.183594 C 457.746094 314.109375 448.871094 322.984375 437.945312 322.984375 C 427.023438 322.984375 418.148438 314.109375 418.148438 303.183594 C 418.148438 292.234375 427.023438 283.386719 437.945312 283.386719 Z M 513.828125 281.738281 C 524.753906 281.738281 533.628906 290.585938 533.628906 301.539062 C 533.628906 312.460938 524.753906 321.335938 513.828125 321.335938 C 502.902344 321.335938 494.027344 312.460938 494.027344 301.539062 C 494.027344 290.585938 502.902344 281.738281 513.828125 281.738281 Z M 362.058594 354.332031 C 372.980469 354.332031 381.855469 363.183594 381.855469 374.132812 C 381.855469 385.058594 372.980469 393.90625 362.058594 393.90625 C 351.132812 393.90625 342.257812 385.058594 342.257812 374.132812 C 342.257812 363.183594 351.132812 354.332031 362.058594 354.332031 Z M 437.945312 354.332031 C 448.871094 354.332031 457.746094 363.183594 457.746094 374.132812 C 457.746094 385.058594 448.871094 393.90625 437.945312 393.90625 C 427.023438 393.90625 418.148438 385.058594 418.148438 374.132812 C 418.148438 363.183594 427.023438 354.332031 437.945312 354.332031 Z M 513.828125 354.332031 C 524.753906 354.332031 533.628906 363.183594 533.628906 374.132812 C 533.628906 385.058594 524.753906 393.90625 513.828125 393.90625 C 502.902344 393.90625 494.027344 385.058594 494.027344 374.132812 C 494.027344 363.183594 502.902344 354.332031 513.828125 354.332031 Z M 362.058594 426.914062 C 372.980469 426.914062 381.855469 435.765625 381.855469 446.714844 C 381.855469 457.640625 372.980469 466.488281 362.058594 466.488281 C 351.132812 466.488281 342.257812 457.640625 342.257812 446.714844 C 342.257812 435.765625 351.132812 426.914062 362.058594 426.914062 Z M 437.945312 426.914062 C 448.871094 426.914062 457.746094 435.765625 457.746094 446.714844 C 457.746094 457.640625 448.871094 466.488281 437.945312 466.488281 C 427.023438 466.488281 418.148438 457.640625 418.148438 446.714844 C 418.148438 435.765625 427.023438 426.914062 437.945312 426.914062 Z M 513.828125 426.914062 C 524.753906 426.914062 533.628906 435.765625 533.628906 446.714844 C 533.628906 457.640625 524.753906 466.488281 513.828125 466.488281 C 502.902344 466.488281 494.027344 457.640625 494.027344 446.714844 C 494.027344 435.765625 502.902344 426.914062 513.828125 426.914062 Z M 513.828125 426.914062 " fill-opacity="1" fill-rule="nonzero"/></svg>