<svg xmlns="http://www.w3.org/2000/svg" xmlns:xlink="http://www.w3.org/1999/xlink" width="800" zoomAndPan="magnify" viewBox="0 0 600 599.999999" height="800" preserveAspectRatio="xMidYMid meet" version="1.0"><defs><clipPath id="bb4aa5180c"><path d="M 43.441406 245 L 177 245 L 177 393 L 43.441406 393 Z M 43.441406 245 " clip-rule="nonzero"/></clipPath></defs><g clip-path="url(#bb4aa5180c)"><path fill="#57cdf4" d="M 164.476562 308.757812 C 157.203125 306.800781 146.222656 303.859375 135.816406 293.472656 C 125.007812 282.664062 121.910156 267.832031 120.050781 259.011719 C 118.6875 252.472656 117.265625 245.742188 110.066406 245.742188 C 102.855469 245.742188 101.433594 252.503906 100.070312 259.042969 C 98.210938 267.863281 95.113281 282.664062 84.289062 293.472656 C 73.898438 303.859375 62.917969 306.800781 55.660156 308.757812 C 50.230469 310.195312 43.441406 311.996094 43.441406 319.238281 C 43.441406 326.449219 50.230469 328.25 55.675781 329.71875 C 62.933594 331.644531 73.914062 334.585938 84.304688 345.003906 C 95.113281 355.78125 98.226562 370.613281 100.085938 379.4375 C 101.449219 385.976562 102.871094 392.734375 110.082031 392.734375 C 117.28125 392.734375 118.703125 385.976562 120.066406 379.46875 C 121.925781 370.613281 125.007812 355.8125 135.832031 345.003906 C 146.238281 334.585938 157.21875 331.644531 164.492188 329.71875 C 169.9375 328.25 176.726562 326.449219 176.726562 319.238281 C 176.726562 311.996094 169.921875 310.195312 164.476562 308.757812 Z M 125.101562 334.273438 C 117.609375 341.765625 113.039062 350.464844 110.066406 358.441406 C 107.128906 350.464844 102.558594 341.765625 95.035156 334.273438 C 87.398438 326.605469 79.375 322.085938 72.460938 319.238281 C 79.375 316.359375 87.398438 311.839844 95.035156 304.203125 C 102.542969 296.710938 107.113281 288.011719 110.066406 280.003906 C 113.023438 288.011719 117.59375 296.710938 125.101562 304.203125 C 132.75 311.839844 140.777344 316.359375 147.691406 319.238281 C 140.777344 322.085938 132.75 326.605469 125.101562 334.273438 Z M 125.101562 334.273438 " fill-opacity="1" fill-rule="nonzero"/></g><path fill="#57cdf4" d="M 180.402344 138.207031 C 186.003906 139.695312 194.480469 141.949219 202.460938 149.925781 C 210.6875 158.15625 213.113281 169.636719 214.539062 176.472656 C 215.570312 181.449219 217.007812 188.269531 223.988281 188.269531 C 230.980469 188.269531 232.402344 181.464844 233.433594 176.488281 C 234.875 169.636719 237.269531 158.171875 245.511719 149.925781 C 253.492188 141.949219 261.96875 139.695312 267.570312 138.207031 C 271.886719 137.050781 278.425781 135.296875 278.425781 128.367188 C 278.425781 121.4375 271.902344 119.6875 267.585938 118.527344 C 262 117.027344 253.523438 114.789062 245.542969 106.8125 C 237.300781 98.566406 234.890625 87.085938 233.464844 80.25 C 232.417969 75.273438 230.996094 68.46875 224.003906 68.46875 C 217.023438 68.46875 215.585938 75.289062 214.554688 80.265625 C 213.113281 87.117188 210.703125 98.582031 202.476562 106.8125 C 194.480469 114.789062 186.003906 117.027344 180.417969 118.527344 C 176.085938 119.6875 169.546875 121.4375 169.546875 128.367188 C 169.546875 135.296875 176.070312 137.050781 180.402344 138.207031 Z M 213.191406 117.542969 C 218.199219 112.535156 221.609375 106.875 223.988281 101.429688 C 226.378906 106.890625 229.804688 112.535156 234.8125 117.542969 C 239.910156 122.644531 245.199219 126.039062 250.035156 128.367188 C 245.199219 130.699219 239.925781 134.09375 234.8125 139.195312 C 229.804688 144.199219 226.378906 149.863281 223.988281 155.308594 C 221.609375 149.847656 218.199219 144.199219 213.191406 139.195312 C 208.09375 134.09375 202.804688 130.699219 197.972656 128.367188 C 202.804688 126.039062 208.078125 122.644531 213.191406 117.542969 Z M 213.191406 117.542969 " fill-opacity="1" fill-rule="nonzero"/><path fill="#57cdf4" d="M 547.9375 290.28125 C 538.992188 264.5 520.859375 247.105469 499.425781 243.742188 C 470.328125 239.15625 458.269531 224.1875 446.566406 206.554688 C 426.230469 175.941406 372.335938 178.085938 349.777344 189.410156 L 342.628906 193.101562 C 326.984375 201.316406 310.792969 209.746094 288.203125 206.335938 C 246.042969 199.890625 216.851562 205.914062 201.445312 224.265625 C 177.960938 252.28125 193.792969 298.792969 201.414062 321.117188 L 202.101562 323.195312 C 211.628906 351.246094 207.527344 363.292969 200.738281 383.238281 C 198.394531 390.136719 195.796875 397.785156 193.386719 406.984375 C 186.816406 432.3125 189.367188 452.789062 200.972656 467.761719 C 214.695312 485.546875 240.148438 494.527344 276.597656 494.527344 L 315.175781 494.527344 C 316.457031 503.726562 315.769531 510.359375 315.753906 510.484375 L 315.144531 515.253906 L 319.195312 517.851562 C 320.039062 518.398438 340.3125 531.179688 370.445312 531.179688 C 400.542969 531.179688 421.003906 518.414062 421.847656 517.851562 L 425.417969 515.617188 L 425.339844 507.339844 C 425.292969 503.179688 425.246094 498.9375 425.324219 494.542969 L 449.523438 494.542969 C 494.125 494.542969 498.644531 469.449219 503.449219 442.871094 C 507.15625 422.457031 511.332031 399.367188 532.246094 376.808594 C 556.761719 350.402344 556.417969 314.8125 547.9375 290.28125 Z M 370.460938 516.007812 C 351.921875 516.007812 337.640625 510.265625 331.164062 507.089844 C 331.429688 497.890625 330.269531 478.335938 318.570312 459.640625 C 312.59375 450.082031 306.382812 443.230469 301.375 437.742188 C 293.554688 429.183594 289.816406 424.726562 289.894531 417.230469 C 290.113281 400.664062 283.167969 378.824219 273.25 364.308594 C 274.171875 363.886719 275.59375 363.449219 277.597656 363.449219 C 280.757812 363.449219 288.925781 364.730469 296.136719 376.496094 C 302.863281 387.523438 308.023438 391.984375 313.96875 391.984375 C 317.050781 391.984375 319.867188 390.636719 321.933594 388.195312 C 323.902344 385.851562 329.910156 378.699219 322.636719 337.714844 C 320.132812 323.632812 314.265625 290.65625 320.507812 282.257812 C 321.070312 281.488281 321.496094 281.300781 322.699219 281.222656 C 326.671875 281.222656 330.316406 288.796875 331.445312 292.957031 L 337.074219 323.664062 L 352 320.914062 L 346.335938 289.984375 C 344.960938 279.691406 346.664062 268.316406 351 267.644531 C 358.164062 267.644531 361.527344 282.257812 362.027344 286.167969 L 369.113281 323.679688 L 384.023438 320.835938 L 377.109375 284.351562 C 376.96875 282.085938 377.4375 278.457031 378.734375 277.078125 C 378.921875 276.828125 379.359375 276.375 381.050781 276.375 C 389.53125 276.5 392.816406 294.585938 393.425781 305.253906 L 396.648438 330.738281 L 411.695312 328.8125 L 408.613281 304.519531 C 408.691406 300.761719 409.601562 299.105469 410.492188 298.902344 C 422.945312 299.792969 433.863281 348.148438 433.957031 371.535156 C 433.957031 373.585938 434.019531 375.632812 434.082031 377.792969 C 434.488281 392.25 435.007812 410.207031 419.222656 447.125 C 409.851562 468.964844 410.007812 489.992188 410.210938 506.949219 C 403.78125 510.109375 389.246094 516.007812 370.460938 516.007812 Z M 521.15625 366.515625 C 497.222656 392.265625 492.417969 418.828125 488.554688 440.148438 C 483.832031 466.273438 481.453125 479.382812 449.539062 479.382812 L 426.417969 479.382812 C 427.417969 470.828125 429.328125 462.066406 433.144531 453.101562 C 450.226562 413.132812 449.664062 392.484375 449.210938 377.386719 L 449.101562 371.519531 C 449.101562 370.660156 444.832031 286.121094 410.210938 283.742188 C 408.582031 283.742188 406.941406 283.992188 405.328125 284.445312 C 400.964844 269.664062 392.53125 261.402344 380.878906 261.261719 C 376.859375 261.261719 373.246094 262.328125 370.273438 264.4375 C 365.515625 256.804688 358.210938 251 347.023438 252.863281 C 338.421875 254.394531 334.230469 261.136719 332.257812 268.695312 C 329.488281 267.066406 326.3125 266.066406 322.683594 266.066406 L 320.335938 266.222656 C 315.441406 266.800781 311.308594 269.210938 308.308594 273.246094 C 298.9375 285.871094 302.675781 312.199219 307.679688 340.375 C 310.386719 355.625 311.042969 365.542969 310.933594 371.535156 C 310.386719 370.675781 309.761719 369.738281 309.074219 368.59375 C 301.171875 355.703125 289.722656 348.304688 277.597656 348.304688 C 269.070312 348.304688 261.609375 352.152344 258.589844 358.144531 C 256.355469 362.507812 256.824219 367.5625 259.765625 371.550781 C 268.476562 383.410156 274.90625 402.964844 274.734375 417.042969 C 274.546875 430.824219 281.789062 438.773438 290.160156 447.972656 C 294.992188 453.257812 300.453125 459.28125 305.695312 467.683594 C 308.132812 471.5625 309.871094 475.503906 311.292969 479.382812 L 276.582031 479.382812 C 245.058594 479.382812 223.65625 472.359375 212.957031 458.484375 C 204.371094 447.425781 202.726562 431.359375 208.0625 410.816406 C 210.34375 402.011719 212.816406 394.75 215.070312 388.148438 C 222.359375 366.765625 227.632812 351.277344 216.445312 318.363281 L 215.726562 316.25 C 209 296.539062 195.046875 255.503906 213.035156 234.027344 C 224.800781 219.980469 249.34375 215.722656 285.859375 221.339844 C 313.421875 225.578125 332.648438 215.472656 349.636719 206.554688 L 356.550781 202.972656 C 371.976562 195.214844 418.390625 191.601562 433.863281 214.925781 C 446.582031 234.058594 461.898438 253.207031 497.035156 258.710938 C 512.566406 261.152344 526.570312 275.15625 533.53125 295.257812 C 540.632812 315.609375 541.101562 345.035156 521.15625 366.515625 Z M 521.15625 366.515625 " fill-opacity="1" fill-rule="nonzero"/></svg>