<svg xmlns="http://www.w3.org/2000/svg" xmlns:xlink="http://www.w3.org/1999/xlink" width="800" zoomAndPan="magnify" viewBox="0 0 600 599.999999" height="800" preserveAspectRatio="xMidYMid meet" version="1.0"><defs><clipPath id="db092bf011"><path d="M 315 278 L 519 278 L 519 509.75 L 315 509.75 Z M 315 278 " clip-rule="nonzero"/></clipPath><clipPath id="ddf24e63e9"><path d="M 352 90.5 L 482 90.5 L 482 257 L 352 257 Z M 352 90.5 " clip-rule="nonzero"/></clipPath><clipPath id="29aaa8eda2"><path d="M 81 278 L 285 278 L 285 509.75 L 81 509.75 Z M 81 278 " clip-rule="nonzero"/></clipPath><clipPath id="98ce5425ef"><path d="M 0.359375 184 L 167 184 L 167 416 L 0.359375 416 Z M 0.359375 184 " clip-rule="nonzero"/></clipPath><clipPath id="40e426e7ba"><path d="M 118 90.5 L 249 90.5 L 249 257 L 118 257 Z M 118 90.5 " clip-rule="nonzero"/></clipPath></defs><g clip-path="url(#db092bf011)"><path fill="#57cdf4" d="M 315.355469 509.351562 L 518.636719 509.351562 C 510.96875 457.261719 486.03125 414.960938 453.300781 396.644531 C 470.503906 384.992188 481.8125 365.292969 481.8125 342.945312 C 481.8125 307.152344 452.796875 278.132812 416.996094 278.132812 C 381.199219 278.132812 352.183594 307.152344 352.183594 342.945312 C 352.183594 365.292969 363.492188 384.992188 380.695312 396.644531 C 347.964844 414.960938 323.023438 457.261719 315.355469 509.351562 " fill-opacity="1" fill-rule="nonzero"/></g><path fill="#57cdf4" d="M 433.425781 248.945312 C 433.425781 250.640625 433.71875 252.253906 433.871094 253.90625 C 475.855469 261.851562 507.746094 298.691406 507.746094 342.945312 C 507.746094 361.371094 502.171875 379.027344 492.132812 393.84375 C 498.636719 400.230469 504.644531 407.449219 510.152344 415.351562 L 599.886719 415.351562 C 592.222656 363.269531 567.277344 320.960938 534.546875 302.644531 C 551.75 290.992188 563.066406 271.292969 563.066406 248.945312 C 563.066406 213.152344 534.042969 184.128906 498.242188 184.128906 C 462.445312 184.128906 433.425781 213.152344 433.425781 248.945312 " fill-opacity="1" fill-rule="nonzero"/><g clip-path="url(#ddf24e63e9)"><path fill="#57cdf4" d="M 390.84375 248.945312 C 390.84375 251.554688 390.550781 254.109375 390.292969 256.667969 C 395.972656 254.90625 401.839844 253.734375 407.9375 253.113281 C 407.851562 251.714844 407.496094 250.363281 407.496094 248.945312 C 407.496094 204.671875 439.410156 167.832031 481.414062 159.898438 C 481.546875 158.363281 481.8125 156.875 481.8125 155.296875 C 481.8125 119.5 452.796875 90.484375 416.996094 90.484375 C 381.199219 90.484375 352.183594 119.5 352.183594 155.296875 C 352.183594 163.730469 354.226562 171.570312 357.160156 178.964844 C 377.539062 195.621094 390.84375 220.636719 390.84375 248.945312 " fill-opacity="1" fill-rule="nonzero"/></g><g clip-path="url(#29aaa8eda2)"><path fill="#57cdf4" d="M 81.558594 509.351562 L 284.839844 509.351562 C 277.179688 457.261719 252.234375 414.960938 219.5 396.644531 C 236.707031 384.992188 248.015625 365.292969 248.015625 342.945312 C 248.015625 307.152344 219 278.132812 183.203125 278.132812 C 147.402344 278.132812 118.386719 307.152344 118.386719 342.945312 C 118.386719 365.292969 129.695312 384.992188 146.898438 396.644531 C 114.167969 414.960938 89.226562 457.261719 81.558594 509.351562 " fill-opacity="1" fill-rule="nonzero"/></g><path fill="#57cdf4" d="M 240.46875 273.136719 C 260.730469 289.792969 273.949219 314.726562 273.949219 342.945312 C 273.949219 361.371094 268.375 379.035156 258.335938 393.84375 C 264.832031 400.230469 270.847656 407.449219 276.355469 415.351562 L 323.839844 415.351562 C 329.347656 407.449219 335.367188 400.230469 341.863281 393.84375 C 331.824219 379.035156 326.25 361.371094 326.25 342.945312 C 326.25 314.726562 339.46875 289.792969 359.726562 273.136719 C 362.796875 265.601562 364.917969 257.585938 364.917969 248.945312 C 364.917969 213.152344 335.898438 184.128906 300.097656 184.128906 C 264.304688 184.128906 235.28125 213.152344 235.28125 248.945312 C 235.28125 257.585938 237.398438 265.601562 240.46875 273.136719 " fill-opacity="1" fill-rule="nonzero"/><g clip-path="url(#98ce5425ef)"><path fill="#57cdf4" d="M 0.3125 415.351562 L 90.042969 415.351562 C 95.550781 407.449219 101.570312 400.230469 108.066406 393.84375 C 98.027344 379.027344 92.449219 361.371094 92.449219 342.945312 C 92.449219 298.691406 124.339844 261.851562 166.324219 253.90625 C 166.476562 252.253906 166.773438 250.640625 166.773438 248.945312 C 166.773438 213.152344 137.75 184.128906 101.957031 184.128906 C 66.152344 184.128906 37.136719 213.152344 37.136719 248.945312 C 37.136719 271.292969 48.445312 290.992188 65.652344 302.644531 C 32.917969 320.960938 7.980469 363.269531 0.3125 415.351562 " fill-opacity="1" fill-rule="nonzero"/></g><g clip-path="url(#40e426e7ba)"><path fill="#57cdf4" d="M 192.703125 248.945312 C 192.703125 250.363281 192.34375 251.714844 192.265625 253.113281 C 198.355469 253.726562 204.226562 254.90625 209.90625 256.667969 C 209.648438 254.109375 209.351562 251.554688 209.351562 248.945312 C 209.351562 220.636719 222.65625 195.621094 243.042969 178.964844 C 245.96875 171.570312 248.015625 163.730469 248.015625 155.296875 C 248.015625 119.5 219 90.484375 183.203125 90.484375 C 147.402344 90.484375 118.386719 119.5 118.386719 155.296875 C 118.386719 156.875 118.648438 158.363281 118.785156 159.898438 C 160.785156 167.828125 192.703125 204.671875 192.703125 248.945312 " fill-opacity="1" fill-rule="nonzero"/></g></svg>