<svg xmlns="http://www.w3.org/2000/svg" xmlns:xlink="http://www.w3.org/1999/xlink" width="500" zoomAndPan="magnify" viewBox="0 0 375 374.999991" height="500" preserveAspectRatio="xMidYMid meet" version="1.0"><defs><g/></defs><path stroke-linecap="butt" transform="matrix(0.75, 0, 0, 0.75, -8.386662, -12.658581)" fill="none" stroke-linejoin="miter" d="M 94.770764 411.086468 C 73.562429 411.086468 56.671803 406.102093 44.104094 396.122926 C 31.604093 386.216675 25.354093 371.888549 25.354093 353.13334 C 25.354093 339.50313 28.275968 326.638546 34.130135 314.534379 C 39.979094 302.367711 47.927011 291.529169 57.968678 282.018752 C 68.072846 272.508334 79.578055 265.029167 92.479097 259.576042 C 105.447848 254.122916 119.010349 251.398958 133.177017 251.398958 C 147.671809 251.398958 159.041602 254.654166 167.286394 261.169792 C 175.598895 267.690626 179.755145 276.534376 179.755145 287.706252 C 179.755145 295.883336 174.468686 306.523961 163.895769 319.622921 C 153.255143 332.654172 147.937434 337.008338 147.937434 332.69063 C 147.937434 331.622921 148.333268 330.529171 149.135351 329.398963 C 157.843685 316.628129 162.197852 304.659378 162.197852 293.487502 C 162.197852 283.383335 159.010352 275.336459 152.624935 269.352084 C 146.239518 263.367709 137.864517 260.372917 127.489516 260.372917 C 116.052016 260.372917 105.078057 263.164584 94.572848 268.753126 C 84.135347 274.336459 74.822846 281.753127 66.645762 290.997919 C 58.468678 300.237503 52.052011 310.445837 47.395761 321.617712 C 42.807219 332.789588 40.510344 343.826047 40.510344 354.732298 C 40.510344 369.690632 45.333261 381.065633 54.973887 388.841675 C 64.619721 396.622926 77.348888 400.513551 93.177014 400.513551 C 109.270765 400.513551 124.729099 397.586467 139.557225 391.737509 C 154.385351 385.883342 167.650977 377.508341 179.354103 366.60209 C 193.255146 353.503131 207.286397 334.414588 221.447856 309.346878 L 257.057233 245.211457 C 266.296817 230.518748 275.942651 212.763539 285.984318 191.951037 C 296.088486 171.138536 306.729111 147.232284 317.900987 120.232283 C 278.66661 119.701033 240.53119 123.523949 203.49473 131.706242 C 163.994727 140.148951 134.703058 151.852076 115.619724 166.815619 C 107.44264 172.799994 103.34889 179.049995 103.34889 185.56562 C 103.34889 191.284371 106.541598 196.008329 112.927015 199.732288 C 119.374932 203.388538 127.489516 205.216663 137.265559 205.216663 C 142.984309 205.216663 149.796809 204.419788 157.713477 202.82083 C 165.624936 201.159371 173.239519 198.898954 180.55202 196.039579 C 187.932229 193.180204 193.552021 189.987495 197.411396 186.461454 C 200.135354 184.268745 202.031188 183.174995 203.093688 183.174995 C 205.291605 183.174995 205.687438 184.268745 204.291605 186.461454 C 198.572854 193.247912 191.161396 198.966663 182.046812 203.617705 C 172.937436 208.206247 163.32806 211.66458 153.223893 213.992705 C 143.182226 216.320831 133.807225 217.482289 125.093683 217.482289 C 111.729099 217.482289 101.291598 214.826039 93.775972 209.503122 C 86.328055 204.185413 82.604097 197.305204 82.604097 188.857287 C 82.604097 179.081245 87.489514 169.539577 97.265556 160.232285 C 115.817641 142.279159 148.900976 128.945825 196.510354 120.232283 C 215.062439 116.977074 234.947857 114.617699 256.156191 113.154157 C 277.437443 111.622907 300.046819 110.992699 323.984321 111.258324 C 329.968696 106.070823 335.687447 103.477073 341.140572 103.477073 C 346.593697 103.477073 348.656198 106.336448 347.322864 112.055199 C 364.479115 113.117699 381.833283 115.315616 399.390576 118.638532 C 416.947869 121.898949 433.005161 126.451033 447.567662 132.3052 C 462.130163 138.154159 473.900997 145.367701 482.874956 153.945826 C 491.921832 162.523952 496.442666 172.664578 496.442666 184.367703 C 496.442666 196.935413 492.286415 208.872913 483.973915 220.174997 C 475.661414 231.414582 465.020789 241.424999 452.057246 250.201041 C 439.156203 258.909375 425.624953 265.826042 411.458285 270.945834 C 398.359326 275.602084 384.395783 279.289585 369.567657 282.018752 C 354.739531 284.74271 340.109322 286.107293 325.682238 286.107293 C 314.775987 286.107293 304.333278 285.310418 294.359319 283.71146 C 284.453068 282.050002 275.411401 279.456251 267.229109 275.935418 C 250.604108 300.138544 236.775982 319.888546 225.734314 335.180213 C 214.697855 350.409381 206.187438 361.013548 200.203063 366.997924 C 170.812436 396.388551 135.6666 411.086468 94.770764 411.086468 Z M 315.406195 276.331251 C 325.515571 276.331251 335.52078 275.300001 345.427031 273.242709 C 355.40099 271.180209 366.109324 268.388542 377.546824 264.8625 C 388.984325 261.070833 400.552034 256.253125 412.25516 250.398958 C 423.958286 244.549999 434.69787 237.867707 444.473912 230.352081 C 454.317663 222.836456 462.229122 214.78958 468.213497 206.211455 C 474.197872 197.633329 477.192664 188.992704 477.192664 180.279162 C 477.192664 170.503119 473.098914 162.02916 464.92183 154.846868 C 456.807246 147.596868 446.072871 141.643742 432.703078 136.9927 C 419.338494 132.33645 404.874951 128.747908 389.317659 126.216658 C 373.822866 123.622908 358.859323 121.898949 344.432239 121.034366 L 331.36453 161.924994 C 326.708279 173.628119 320.161404 187.263537 311.713487 202.82083 C 303.270778 218.315622 292.932236 235.737498 280.69786 255.086458 L 271.718692 268.951042 C 273.645776 270.013542 275.739526 270.914584 277.999943 271.643751 C 280.328068 272.310418 282.85411 272.909376 285.583277 273.440626 C 290.770777 274.503126 295.822861 275.268751 300.744736 275.732293 C 305.666611 276.133334 310.552028 276.331251 315.406195 276.331251 Z M 315.406195 276.331251 " stroke="#5271ff" stroke-width="18.895668" stroke-opacity="1" stroke-miterlimit="4"/><g fill="#38b6ff" fill-opacity="1"><g transform="translate(-2.539006, 262.591401)"><g><path d="M 65.265625 33.09375 C 49.328125 33.09375 36.660156 29.363281 27.265625 21.90625 C 17.867188 14.445312 13.171875 3.671875 13.171875 -10.421875 C 13.171875 -20.628906 15.363281 -30.28125 19.75 -39.375 C 24.144531 -48.46875 30.125 -56.585938 37.6875 -63.734375 C 45.25 -70.878906 53.878906 -76.492188 63.578125 -80.578125 C 73.285156 -84.671875 83.445312 -86.71875 94.0625 -86.71875 C 104.894531 -86.71875 113.425781 -84.265625 119.65625 -79.359375 C 125.882812 -74.453125 129 -67.8125 129 -59.4375 C 129 -53.3125 125.015625 -45.347656 117.046875 -35.546875 C 109.078125 -25.734375 105.09375 -22.460938 105.09375 -25.734375 C 105.09375 -26.554688 105.398438 -27.375 106.015625 -28.1875 C 112.554688 -37.789062 115.828125 -46.78125 115.828125 -55.15625 C 115.828125 -62.707031 113.425781 -68.726562 108.625 -73.21875 C 103.820312 -77.71875 97.539062 -79.96875 89.78125 -79.96875 C 81.195312 -79.96875 72.972656 -77.875 65.109375 -73.6875 C 57.242188 -69.5 50.25 -63.929688 44.125 -56.984375 C 38 -50.046875 33.195312 -42.390625 29.71875 -34.015625 C 26.25 -25.640625 24.515625 -17.363281 24.515625 -9.1875 C 24.515625 2.039062 28.140625 10.566406 35.390625 16.390625 C 42.640625 22.210938 52.1875 25.125 64.03125 25.125 C 76.082031 25.125 87.675781 22.925781 98.8125 18.53125 C 109.945312 14.144531 119.90625 7.863281 128.6875 -0.3125 C 139.101562 -10.113281 149.625 -24.410156 160.25 -43.203125 L 186.90625 -91.3125 C 193.851562 -102.34375 201.101562 -115.671875 208.65625 -131.296875 C 216.21875 -146.921875 224.1875 -164.84375 232.5625 -185.0625 C 203.144531 -185.476562 174.546875 -182.617188 146.765625 -176.484375 C 117.148438 -170.148438 95.191406 -161.367188 80.890625 -150.140625 C 74.765625 -145.640625 71.703125 -140.941406 71.703125 -136.046875 C 71.703125 -131.753906 74.097656 -128.226562 78.890625 -125.46875 C 83.691406 -122.71875 89.769531 -121.34375 97.125 -121.34375 C 101.414062 -121.34375 106.523438 -121.953125 112.453125 -123.171875 C 118.378906 -124.398438 124.097656 -126.085938 129.609375 -128.234375 C 135.128906 -130.378906 139.316406 -132.78125 142.171875 -135.4375 C 144.210938 -137.070312 145.644531 -137.890625 146.46875 -137.890625 C 148.09375 -137.890625 148.394531 -137.070312 147.375 -135.4375 C 143.09375 -130.320312 137.53125 -126.03125 130.6875 -122.5625 C 123.84375 -119.09375 116.640625 -116.488281 109.078125 -114.75 C 101.523438 -113.007812 94.476562 -112.140625 87.9375 -112.140625 C 77.925781 -112.140625 70.113281 -114.128906 64.5 -118.109375 C 58.882812 -122.097656 56.078125 -127.257812 56.078125 -133.59375 C 56.078125 -140.945312 59.753906 -148.097656 67.109375 -155.046875 C 80.992188 -168.523438 105.8125 -178.53125 141.5625 -185.0625 C 155.445312 -187.519531 170.351562 -189.304688 186.28125 -190.421875 C 202.21875 -191.546875 219.175781 -192.007812 237.15625 -191.8125 C 241.65625 -195.6875 245.945312 -197.625 250.03125 -197.625 C 254.113281 -197.625 255.644531 -195.484375 254.625 -191.203125 C 267.488281 -190.378906 280.507812 -188.742188 293.6875 -186.296875 C 306.863281 -183.847656 318.914062 -180.425781 329.84375 -176.03125 C 340.769531 -171.632812 349.601562 -166.21875 356.34375 -159.78125 C 363.09375 -153.351562 366.46875 -145.75 366.46875 -136.96875 C 366.46875 -127.570312 363.347656 -118.632812 357.109375 -110.15625 C 350.878906 -101.675781 342.910156 -94.164062 333.203125 -87.625 C 323.503906 -81.09375 313.347656 -75.882812 302.734375 -72 C 292.921875 -68.53125 282.445312 -65.773438 271.3125 -63.734375 C 260.1875 -61.691406 249.210938 -60.671875 238.390625 -60.671875 C 230.210938 -60.671875 222.394531 -61.28125 214.9375 -62.5 C 207.488281 -63.726562 200.695312 -65.671875 194.5625 -68.328125 C 182.101562 -50.148438 171.738281 -35.335938 163.46875 -23.890625 C 155.195312 -12.453125 148.8125 -4.488281 144.3125 0 C 122.25 22.0625 95.898438 33.09375 65.265625 33.09375 Z M 230.71875 -68.015625 C 238.28125 -68.015625 245.785156 -68.78125 253.234375 -70.3125 C 260.691406 -71.851562 268.710938 -73.953125 277.296875 -76.609375 C 285.878906 -79.460938 294.5625 -83.082031 303.34375 -87.46875 C 312.125 -91.863281 320.191406 -96.867188 327.546875 -102.484375 C 334.898438 -108.109375 340.820312 -114.132812 345.3125 -120.5625 C 349.8125 -127 352.0625 -133.488281 352.0625 -140.03125 C 352.0625 -147.382812 348.992188 -153.765625 342.859375 -159.171875 C 336.734375 -164.585938 328.664062 -169.03125 318.65625 -172.5 C 308.65625 -175.976562 297.832031 -178.6875 286.1875 -180.625 C 274.539062 -182.5625 263.304688 -183.835938 252.484375 -184.453125 L 242.671875 -153.8125 C 239.203125 -145.03125 234.300781 -134.816406 227.96875 -123.171875 C 221.632812 -111.523438 213.867188 -98.453125 204.671875 -83.953125 L 197.9375 -73.53125 C 199.363281 -72.71875 200.945312 -72.054688 202.6875 -71.546875 C 204.425781 -71.035156 206.316406 -70.578125 208.359375 -70.171875 C 212.234375 -69.347656 216.007812 -68.78125 219.6875 -68.46875 C 223.363281 -68.164062 227.039062 -68.015625 230.71875 -68.015625 Z M 230.71875 -68.015625 "/></g></g></g><g fill="#38b6ff" fill-opacity="1"><g transform="translate(321.343789, 262.591401)"><g/></g></g></svg>