<svg xmlns="http://www.w3.org/2000/svg" xmlns:xlink="http://www.w3.org/1999/xlink" width="500" zoomAndPan="magnify" viewBox="0 0 375 374.999991" height="500" preserveAspectRatio="xMidYMid meet" version="1.0"><defs><clipPath id="a3de113510"><path d="M 58.59375 0 L 316.40625 0 C 348.765625 0 375 26.234375 375 58.59375 L 375 316.40625 C 375 348.765625 348.765625 375 316.40625 375 L 58.59375 375 C 26.234375 375 0 348.765625 0 316.40625 L 0 58.59375 C 0 26.234375 26.234375 0 58.59375 0 Z M 58.59375 0 " clip-rule="nonzero"/></clipPath><clipPath id="8fb9701b34"><path d="M 43 0 L 308 0 L 308 369 L 43 369 Z M 43 0 " clip-rule="nonzero"/></clipPath><clipPath id="1a1764cd62"><path d="M 179.355469 -9.765625 L 344.960938 68.109375 L 195.90625 385.0625 L 30.304688 307.1875 Z M 179.355469 -9.765625 " clip-rule="nonzero"/></clipPath><clipPath id="f83766a70a"><path d="M 368.5 17.171875 L 126.882812 -96.453125 L -46.105469 271.402344 L 195.511719 385.023438 Z M 368.5 17.171875 " clip-rule="nonzero"/></clipPath></defs><g clip-path="url(#a3de113510)"><rect x="-37.5" width="450" fill="#daffef" y="-37.499999" height="449.999989" fill-opacity="1"/><path stroke-linecap="butt" transform="matrix(0.75, 0, 0, 0.75, 0.0000045, -0.000000000000021316)" fill="none" stroke-linejoin="miter" d="M 78.124994 0.000000000000028422 L 421.874995 0.000000000000028422 C 465.020828 0.000000000000028422 499.999995 34.979167 499.999995 78.125 L 499.999995 421.875001 C 499.999995 465.020834 465.020828 500.000001 421.874995 500.000001 L 78.124994 500.000001 C 34.979161 500.000001 -0.000006 465.020834 -0.000006 421.875001 L -0.000006 78.125 C -0.000006 34.979167 34.979161 0.000000000000028422 78.124994 0.000000000000028422 Z M 78.124994 0.000000000000028422 " stroke="#5ce1e6" stroke-width="10" stroke-opacity="1" stroke-miterlimit="4"/></g><g clip-path="url(#8fb9701b34)"><g clip-path="url(#1a1764cd62)"><g clip-path="url(#f83766a70a)"><path fill="#5271ff" d="M 195.59375 132.675781 C 195.410156 128.550781 195.351562 124.386719 196.472656 120.390625 C 197.625 116.277344 199.453125 112.375 201.691406 108.75 C 206.292969 101.3125 212.691406 95.355469 220.417969 91.261719 C 225.171875 88.746094 228.707031 95.4375 223.820312 97.894531 C 210.558594 104.554688 201.078125 118.558594 197.589844 132.757812 C 197.332031 133.8125 195.648438 133.878906 195.59375 132.675781 Z M 266.183594 124.914062 C 270.921875 131.914062 267.679688 142.222656 264.171875 149.109375 C 262.101562 153.171875 259.542969 156.117188 256.425781 159.351562 C 253.605469 162.273438 250.921875 165.671875 247.027344 167.167969 C 245.441406 167.777344 244.511719 165.882812 245.316406 164.6875 C 247.296875 161.738281 250.257812 159.570312 252.207031 156.5625 C 254.222656 153.460938 255.78125 149.261719 257.09375 145.78125 C 259.601562 139.144531 259.515625 131.363281 263.015625 125.175781 C 263.679688 124 265.359375 123.695312 266.183594 124.914062 Z M 221.917969 206.933594 C 222.054688 206.597656 222.59375 206.769531 222.523438 207.125 C 217.742188 231.425781 207.886719 254.996094 197.015625 277.15625 C 191.898438 287.589844 186.695312 298.332031 180.160156 307.972656 C 175.785156 314.4375 169.632812 320.636719 161.382812 321.128906 C 155.511719 321.484375 149.945312 318.636719 144.777344 316.230469 C 138.496094 313.304688 131.507812 310.160156 126.308594 305.492188 C 124.828125 304.160156 126.378906 302.027344 128.132812 302.667969 C 135.292969 305.28125 141.976562 309.714844 148.871094 312.972656 C 154.488281 315.625 160.605469 318.949219 166.742188 315.980469 C 171.40625 313.722656 174.84375 309.332031 177.621094 305.09375 C 181.386719 299.347656 184.53125 293.117188 187.707031 287.03125 C 194.375 274.25 200.421875 261.125 205.996094 247.832031 C 211.652344 234.335938 216.425781 220.496094 221.917969 206.933594 Z M 91.03125 23.78125 C 98.996094 22.878906 106.984375 22.15625 114.984375 21.625 C 130.367188 20.59375 146.070312 19.523438 161.359375 22.003906 C 162.785156 22.234375 162.617188 24.257812 161.261719 24.457031 C 146.128906 26.652344 130.773438 26.613281 115.554688 28.003906 C 108.050781 28.683594 100.566406 29.53125 93.097656 30.542969 C 86.066406 31.492188 77.777344 34.132812 70.773438 32.378906 C 69.011719 31.9375 68.179688 29.503906 69.898438 28.394531 C 75.835938 24.566406 84.179688 24.5625 91.03125 23.78125 Z M 135.917969 -20.4375 C 140.992188 -17.050781 145.613281 -13.148438 150.78125 -9.878906 C 156.390625 -6.324219 161.996094 -2.875 167.488281 0.859375 C 167.667969 0.976562 167.476562 1.242188 167.292969 1.164062 C 161.636719 -1.339844 156.136719 -4.039062 150.585938 -6.761719 C 144.773438 -9.613281 138.734375 -11.65625 132.835938 -14.277344 C 127.242188 -16.761719 121.894531 -20.078125 116.5 -22.988281 C 111.300781 -25.792969 104.601562 -28.261719 100.515625 -32.613281 C 98.535156 -34.71875 99.773438 -38.789062 103.109375 -38.128906 C 109.03125 -36.953125 114.515625 -32.746094 119.695312 -29.78125 C 125.074219 -26.703125 130.761719 -23.878906 135.917969 -20.4375 Z M 187.039062 -7.078125 C 174.59375 -20.128906 165.804688 -36.21875 154.429688 -50.199219 C 149.269531 -56.542969 144.261719 -63.460938 140.203125 -70.582031 C 137.515625 -75.292969 134.015625 -84.207031 137.941406 -89.09375 C 138.863281 -90.238281 140.605469 -90.011719 141.421875 -88.910156 C 143.078125 -86.6875 143.410156 -83.476562 144.570312 -80.921875 C 145.996094 -77.789062 147.679688 -74.746094 149.480469 -71.8125 C 153.777344 -64.808594 158.230469 -58.015625 162.273438 -50.855469 C 170.511719 -36.277344 181.140625 -23.042969 187.984375 -7.734375 C 188.222656 -7.203125 187.449219 -6.648438 187.039062 -7.078125 Z M 210.941406 18.878906 C 208.152344 17.042969 205.597656 14.898438 202.921875 12.90625 C 199.300781 20.707031 194.765625 28.003906 189.390625 34.722656 C 190.054688 35.222656 190.855469 35.523438 191.902344 35.65625 C 196.429688 36.242188 195.1875 43.105469 190.703125 42.609375 C 186.378906 42.136719 183.488281 39.703125 181.609375 35.898438 C 181.089844 34.847656 181.472656 33.265625 182.242188 32.441406 C 189.152344 25.011719 194.859375 16.761719 199.324219 7.648438 C 200.152344 5.957031 202.125 5.703125 203.558594 6.738281 C 207.542969 9.621094 211.121094 12.78125 213.351562 17.21875 C 214.121094 18.746094 212.023438 19.585938 210.941406 18.878906 Z M 201.699219 73.398438 C 203.597656 70.773438 205.757812 68.351562 207.535156 65.632812 C 209.410156 62.761719 210.667969 59.515625 212.789062 56.8125 C 215.132812 53.824219 220.082031 56.324219 219.425781 59.933594 C 218.210938 66.597656 212.445312 74.402344 207.28125 78.664062 C 204.519531 80.945312 200.957031 82.382812 197.871094 84.203125 C 194.972656 85.90625 192.035156 88 188.65625 88.527344 C 188.042969 88.621094 187.59375 87.765625 188.035156 87.320312 C 190.199219 85.125 193.015625 83.703125 195.359375 81.691406 C 198.109375 79.332031 199.628906 76.265625 201.699219 73.398438 Z M 260.289062 80.644531 C 256.957031 78.148438 258.902344 73.199219 261.222656 70.742188 C 263.5 68.332031 267.90625 66.09375 271.285156 67.121094 C 279.550781 69.644531 278.132812 82.972656 270.390625 85.09375 C 268.539062 85.605469 267.5 82.886719 269.367188 82.25 C 274.257812 80.582031 274.753906 72.585938 270.078125 70.386719 C 267.394531 69.125 265.015625 70.246094 263.40625 72.613281 C 261.871094 74.863281 262.273438 77.136719 262.175781 79.675781 C 262.136719 80.671875 261.144531 81.285156 260.289062 80.644531 Z M 200.480469 42.027344 C 200.105469 40.554688 200.625 38.933594 202.1875 38.394531 C 205.632812 37.199219 208.476562 39.496094 211.433594 41.128906 C 214.617188 42.894531 217.761719 44.753906 220.828125 46.722656 C 226.609375 50.433594 231.683594 54.644531 234.761719 60.921875 C 237.179688 65.84375 237.976562 71.675781 236.480469 76.996094 C 235 82.238281 232.03125 85.21875 226.859375 86.523438 C 226.394531 86.636719 226.1875 86.039062 226.609375 85.832031 C 231.378906 83.484375 233.816406 77.351562 233.722656 72.355469 C 233.617188 66.878906 230.8125 62.746094 226.660156 59.359375 C 222.539062 55.996094 218.089844 53.289062 213.367188 50.863281 C 209.546875 48.894531 201.636719 46.578125 200.480469 42.027344 Z M 294.796875 55.199219 C 282.46875 47.792969 270.613281 40.59375 257.117188 35.4375 C 243.609375 30.277344 229.363281 27.386719 214.980469 26.125 C 214.40625 26.074219 213.925781 25.921875 213.53125 25.695312 C 211.671875 29.777344 209.421875 34.082031 206.027344 36.496094 C 205.175781 37.101562 204.023438 36.304688 204.175781 35.3125 C 204.960938 30.238281 209.132812 25.417969 212.445312 21.382812 C 213.039062 20.03125 214.347656 18.949219 216.191406 19.078125 C 230.996094 20.117188 245.484375 23.722656 259.234375 29.289062 C 272.570312 34.679688 286.3125 42.339844 296.472656 52.605469 C 297.613281 53.757812 296.410156 56.167969 294.796875 55.199219 Z M 305.476562 107.074219 C 304.78125 106.160156 304.152344 105.199219 303.578125 104.195312 C 303.289062 104.332031 302.957031 104.4375 302.570312 104.480469 C 299.878906 104.789062 297.171875 104.480469 294.484375 104.820312 C 291.304688 105.226562 288.167969 106.550781 285.328125 107.988281 C 282.800781 109.265625 280.425781 110.808594 278.226562 112.597656 C 275.988281 114.414062 272.957031 116.714844 271.054688 118.878906 C 270.789062 119.175781 270.222656 118.851562 270.441406 118.484375 C 272.21875 115.5 273.238281 113.289062 275.886719 110.855469 C 278.257812 108.679688 280.859375 106.769531 283.664062 105.191406 C 286.332031 103.6875 289.125 102.582031 292.007812 101.574219 C 295.035156 100.507812 298.007812 99.222656 301.230469 99.109375 C 299.070312 93.328125 298.085938 86.847656 297.175781 81.105469 C 296.4375 76.449219 295.914062 71.757812 295.605469 67.054688 C 295.46875 65.027344 295.175781 62.824219 295.492188 60.800781 C 295.847656 58.539062 297.074219 56.34375 297.851562 54.203125 C 298.15625 53.375 299.457031 53.503906 299.710938 54.292969 C 300.371094 56.289062 301.394531 58.21875 301.90625 60.238281 C 302.410156 62.242188 302.277344 64.398438 302.386719 66.445312 C 302.613281 70.929688 303.042969 75.402344 303.664062 79.847656 C 304.871094 88.53125 308.070312 97.4375 307.898438 106.199219 C 307.871094 107.507812 306.335938 108.1875 305.476562 107.074219 Z M 259.566406 123.148438 C 253.003906 123.546875 246.90625 122.152344 241.246094 118.683594 C 236.660156 115.871094 230.15625 110.816406 229.773438 104.984375 C 229.6875 103.644531 231.199219 102.296875 232.511719 103.070312 C 236.859375 105.640625 239.65625 110.558594 243.785156 113.601562 C 248.457031 117.035156 254.023438 119.6875 259.644531 121.152344 C 260.691406 121.425781 260.773438 123.078125 259.566406 123.148438 Z M 235.828125 159.644531 C 232.71875 159.566406 229.433594 159.796875 226.421875 159.007812 C 223.464844 158.238281 220.605469 157.007812 217.980469 155.464844 C 213.546875 152.859375 207.023438 148.792969 206.0625 143.34375 C 205.824219 141.992188 207.382812 141.21875 208.472656 141.65625 C 210.671875 142.542969 212.199219 144.445312 213.941406 146.015625 C 216.066406 147.929688 218.261719 149.710938 220.714844 151.191406 C 225.222656 153.914062 230.800781 156.941406 235.890625 158.191406 C 236.640625 158.375 236.710938 159.664062 235.828125 159.644531 Z M 51.832031 261.78125 C 49.335938 266.003906 46.496094 270.234375 44.722656 274.832031 C 41.003906 284.46875 45.46875 292.597656 51.363281 300.199219 C 57.78125 308.484375 65.421875 315.71875 73.734375 322.085938 C 90.390625 334.839844 109.359375 344.175781 128.601562 352.324219 C 138.101562 356.34375 147.761719 360.207031 157.523438 363.5625 C 165.777344 366.402344 174.488281 368.78125 183.304688 368.136719 C 204.179688 366.609375 212.648438 347.5625 219.816406 330.570312 C 227.242188 312.964844 233.976562 295.039062 239.167969 276.636719 C 244.359375 258.222656 247.601562 239.253906 248.117188 220.105469 C 248.367188 210.691406 247.867188 201.253906 246.441406 191.9375 C 245.753906 187.429688 244.929688 182.941406 243.515625 178.597656 C 242.046875 174.082031 239.445312 169.949219 237.679688 165.511719 C 237.351562 164.6875 236.125 165.132812 236.386719 165.980469 C 238.035156 171.28125 238.078125 176.566406 238.964844 182.003906 C 239.726562 186.652344 240.632812 191.261719 241.160156 195.949219 C 242.277344 205.839844 242.390625 215.84375 241.644531 225.769531 C 240.140625 245.894531 235.277344 265.847656 229.082031 285.015625 C 223.5625 302.089844 216.707031 318.652344 209.628906 335.128906 C 206.074219 343.410156 202.136719 352.621094 194.269531 357.707031 C 187.125 362.332031 178.515625 361.859375 170.558594 359.984375 C 161.964844 357.960938 153.808594 354.292969 145.679688 350.941406 C 136.5 347.15625 127.328125 343.335938 118.328125 339.136719 C 100.144531 330.65625 82.503906 320.546875 67.875 306.644531 C 64.296875 303.242188 60.855469 299.644531 57.675781 295.855469 C 54.90625 292.550781 51.453125 288.8125 50.261719 284.566406 C 48.859375 279.597656 51.496094 274.878906 53.707031 270.570312 C 55.894531 266.308594 58.230469 262.15625 60.726562 258.074219 C 70.78125 241.617188 82.59375 226.15625 95.796875 212.101562 C 109.007812 198.035156 123.675781 185.339844 139.433594 174.199219 C 147.421875 168.546875 155.695312 163.300781 164.214844 158.488281 C 172.6875 153.703125 180.972656 148.65625 189.398438 143.796875 C 191.179688 142.761719 189.621094 140.136719 187.820312 140.71875 C 176.621094 144.359375 166.410156 148.980469 156.328125 155.050781 C 146.269531 161.101562 136.582031 167.769531 127.328125 174.996094 C 109.292969 189.066406 92.851562 205.234375 78.4375 222.992188 C 71.863281 231.097656 65.734375 239.558594 60.0625 248.320312 C 57.199219 252.738281 54.503906 257.25 51.832031 261.78125 " fill-opacity="1" fill-rule="nonzero"/></g></g></g></svg>