<svg xmlns="http://www.w3.org/2000/svg" xmlns:xlink="http://www.w3.org/1999/xlink" width="500" zoomAndPan="magnify" viewBox="0 0 375 374.999991" height="500" preserveAspectRatio="xMidYMid meet" version="1.0"><path fill="#38b6ff" d="M 312.488281 21.710938 C 337.257812 40.484375 354.835938 64.355469 362.324219 94.71875 C 363.324219 103.207031 363.523438 111.496094 363.425781 119.984375 C 363.425781 122.28125 363.425781 124.480469 363.324219 126.875 C 362.425781 162.929688 347.445312 190.394531 321.476562 215.164062 C 292.515625 238.335938 261.253906 245.027344 224.898438 241.832031 C 192.339844 235.539062 163.175781 218.460938 144.300781 190.996094 C 125.023438 159.933594 120.03125 128.375 125.425781 92.417969 C 133.8125 60.0625 154.6875 33.992188 182.652344 16.617188 C 223.898438 -6.054688 272.839844 -4.257812 312.488281 21.710938 Z M 161.078125 56.066406 C 145.5 76.441406 137.011719 101.207031 138.109375 126.976562 C 142.101562 156.4375 154.089844 184.503906 177.457031 203.578125 C 206.222656 223.15625 232.589844 227.949219 266.644531 224.652344 C 293.710938 217.960938 316.882812 200.785156 332.863281 178.011719 C 347.542969 150.746094 353.039062 121.984375 344.847656 91.421875 C 335.058594 63.757812 318.179688 42.683594 292.414062 28.800781 C 275.933594 21.210938 262.253906 17.214844 243.976562 17.414062 C 240.878906 17.414062 240.878906 17.414062 237.78125 17.414062 C 206.421875 18.414062 181.851562 32.894531 161.078125 56.066406 Z M 161.078125 56.066406 " fill-opacity="1" fill-rule="nonzero"/><path fill="#38b6ff" d="M 109.644531 126.578125 C 109.644531 131.46875 109.644531 136.265625 109.644531 141.257812 C 108.144531 141.359375 106.648438 141.359375 105.050781 141.457031 C 79.882812 143.15625 60.40625 151.746094 43.429688 170.722656 C 31.542969 189 28.546875 207.972656 31.144531 229.546875 C 38.335938 250.820312 48.921875 266.402344 68.894531 276.789062 C 89.070312 285.777344 104.851562 285.578125 125.722656 278.785156 C 142.601562 271.59375 156.785156 259.210938 164.277344 242.332031 C 164.875 240.53125 165.472656 238.835938 166.074219 236.9375 C 177.757812 239.035156 177.757812 239.035156 183.25 241.832031 C 177.558594 262.40625 161.480469 279.484375 143.703125 290.96875 C 121.328125 302.554688 96.5625 304.152344 72.292969 297.960938 C 50.519531 290.46875 30.945312 273.292969 20.65625 252.617188 C 9.871094 226.25 7.871094 202.480469 18.957031 175.613281 C 29.445312 157.039062 41.828125 144.054688 60.605469 133.867188 C 63.203125 132.371094 65.898438 130.871094 68.597656 129.273438 C 82.179688 125.179688 95.5625 125.976562 109.644531 126.578125 Z M 109.644531 126.578125 " fill-opacity="1" fill-rule="nonzero"/><path fill="#38b6ff" d="M 252.964844 267.597656 C 264.550781 275.289062 272.640625 285.375 278.832031 297.660156 C 282.726562 319.535156 280.628906 335.613281 267.945312 354.390625 C 259.253906 364.378906 248.46875 369.769531 236.085938 373.964844 C 218.507812 374.964844 200.230469 370.96875 186.347656 359.582031 C 171.765625 343.402344 168.671875 329.71875 169.070312 308.148438 C 170.566406 292.269531 177.859375 284.476562 189.242188 273.890625 C 208.621094 258.109375 230.390625 256.3125 252.964844 267.597656 Z M 191.140625 294.464844 C 184.050781 304.652344 183.550781 312.84375 184.550781 324.925781 C 188.644531 337.808594 195.136719 347.5 206.621094 354.789062 C 219.007812 360.082031 230.390625 357.886719 242.976562 353.988281 C 253.261719 348.097656 257.957031 341.804688 263.851562 331.71875 C 267.246094 318.234375 265.148438 306.75 258.65625 294.664062 C 250.46875 284.878906 243.574219 279.183594 230.59375 277.785156 C 212.515625 277.285156 203.425781 280.78125 191.140625 294.464844 Z M 191.140625 294.464844 " fill-opacity="1" fill-rule="nonzero"/><path fill="#38b6ff" d="M 274.039062 40.683594 C 273.238281 44.78125 272.4375 48.773438 271.539062 52.96875 C 268.445312 52.871094 265.347656 52.671875 262.253906 52.570312 C 236.183594 51.671875 215.710938 51.273438 195.535156 69.75 C 187.945312 77.738281 182.550781 85.726562 177.957031 95.714844 C 173.464844 104.40625 173.464844 104.40625 168.671875 106.503906 C 166.273438 106.703125 166.273438 106.703125 163.777344 106.902344 C 162.179688 105.304688 160.582031 103.707031 158.882812 102.007812 C 158.882812 83.832031 172.265625 68.847656 184.050781 55.964844 C 206.324219 34.59375 246.371094 22.707031 274.039062 40.683594 Z M 274.039062 40.683594 " fill-opacity="1" fill-rule="nonzero"/><path fill="#38b6ff" d="M 99.257812 158.136719 C 102.152344 158.136719 104.949219 158.238281 107.945312 158.238281 C 111.242188 158.335938 111.242188 158.335938 114.539062 158.4375 C 115.335938 164.128906 116.136719 169.722656 117.035156 175.613281 C 115.136719 175.515625 113.140625 175.316406 111.242188 175.214844 C 96.660156 174.617188 85.574219 174.117188 74.089844 183.90625 C 67.699219 191.09375 62.804688 199.085938 58.210938 207.574219 C 55.011719 206.777344 51.71875 205.976562 48.421875 205.078125 C 46.625 201.28125 46.625 201.28125 45.925781 195.289062 C 52.914062 179.710938 63.101562 169.722656 77.285156 160.535156 C 84.777344 157.636719 91.269531 157.9375 99.257812 158.136719 Z M 99.257812 158.136719 " fill-opacity="1" fill-rule="nonzero"/></svg>