<?xml version="1.0" encoding="utf-8"?>
<!-- Generator: Adobe Illustrator 27.9.0, SVG Export Plug-In . SVG Version: 6.00 Build 0)  -->
<svg version="1.1" id="Layer_1" xmlns="http://www.w3.org/2000/svg" xmlns:xlink="http://www.w3.org/1999/xlink" x="0px" y="0px"
	 viewBox="0 0 423 488" style="enable-background:new 0 0 423 488;" xml:space="preserve">
<style type="text/css">
	.st0{clip-path:url(#SVGID_00000059282436078108411610000012401265284396751495_);}
	.st1{clip-path:url(#SVGID_00000109020853940154981740000008585907564917693372_);}
	.st2{clip-path:url(#SVGID_00000103961708090749063660000013684361445878720444_);}
	.st3{fill:#38B6FF;}
	.st4{fill:#2C50F6;}
</style>
<g>
	<defs>
		<rect id="SVGID_1_" x="8" y="2.7" width="410.7" height="416"/>
	</defs>
	<clipPath id="SVGID_00000018939032797793764170000014606745552171598492_">
		<use xlink:href="#SVGID_1_"  style="overflow:visible;"/>
	</clipPath>
	<g style="clip-path:url(#SVGID_00000018939032797793764170000014606745552171598492_);">
		<g>
			<defs>
				
					<rect id="SVGID_00000098212204176848835030000012136397301320600495_" x="144.7" y="-77.7" transform="matrix(0.6931 -0.7208 0.7208 0.6931 -38.4113 241.3051)" width="239" height="487"/>
			</defs>
			<clipPath id="SVGID_00000054982897625638010920000014723338442213930887_">
				<use xlink:href="#SVGID_00000098212204176848835030000012136397301320600495_"  style="overflow:visible;"/>
			</clipPath>
			<g style="clip-path:url(#SVGID_00000054982897625638010920000014723338442213930887_);">
				<g>
					<defs>
						
							<rect id="SVGID_00000062881719676669903130000007701395306996815801_" x="144.7" y="-77.7" transform="matrix(0.6931 -0.7208 0.7208 0.6931 -38.4113 241.3051)" width="239" height="487"/>
					</defs>
					<clipPath id="SVGID_00000098205344666866358670000001563072658223675071_">
						<use xlink:href="#SVGID_00000062881719676669903130000007701395306996815801_"  style="overflow:visible;"/>
					</clipPath>
					<g style="clip-path:url(#SVGID_00000098205344666866358670000001563072658223675071_);">
						<path class="st3" d="M360,416.7c-1.9,2-5,2-7,0.1l-103.2-99.2c-2-1.9-2-5-0.1-7s5-2,7-0.1l103.2,99.2
							C361.8,411.6,361.8,414.7,360,416.7z M360.8,326.7c2.5,1.1,5.4-0.1,6.5-2.7c1-2.5-0.1-5.4-2.7-6.5l-89-37.1
							c-2.5-1.1-5.4,0.1-6.5,2.7c-0.8,1.9-0.3,4.1,1.1,5.5c0.4,0.4,0.9,0.8,1.5,1L360.8,326.7z M417.9,253.9c0.1-2.7-2.1-5-4.8-5.1
							l-130.6-3.2c-2.7-0.1-5,2.1-5.1,4.8c0,1.4,0.6,2.8,1.5,3.7c0.9,0.8,2,1.3,3.3,1.4l130.6,3.2
							C415.5,258.8,417.8,256.6,417.9,253.9z M341.3,192.5c-0.9-2.6-3.8-3.9-6.3-3l-58.7,21.2c-2.6,0.9-3.9,3.8-3,6.3
							c0.3,0.7,0.7,1.4,1.2,1.9c1.3,1.3,3.3,1.8,5.1,1.1l58.7-21.2C340.9,197.9,342.2,195,341.3,192.5z M346.8,79.5
							c-2-1.9-5.1-1.8-7,0.1l-89.1,92.6c-1.9,2-1.8,5.1,0.1,7c2,1.9,5.1,1.8,7-0.1L347,86.5C348.9,84.5,348.8,81.3,346.8,79.5z
							 M119.6,178.6L16.4,79.4c-2-1.9-5.1-1.8-7,0.1c-1.9,2-1.8,5.1,0.1,7l103.2,99.2c2,1.9,5.1,1.8,7-0.1
							C121.6,183.7,121.5,180.5,119.6,178.6z M148.8,158.5L117.9,92c-1.2-2.5-4.1-3.6-6.6-2.4c-2.5,1.1-3.6,4.1-2.4,6.6l30.8,66.5
							c0.3,0.6,0.6,1.1,1.1,1.5c1.4,1.4,3.6,1.8,5.5,0.9C148.9,163.9,149.9,161,148.8,158.5z M174.2,7.3c-0.2-2.7-2.5-4.8-5.2-4.6
							c-2.7,0.2-4.8,2.5-4.6,5.2l9.1,143c0.1,1.3,0.6,2.4,1.5,3.2c1,0.9,2.3,1.5,3.7,1.4c2.7-0.2,4.8-2.5,4.6-5.2L174.2,7.3z
							 M242.9,78.3c0.8-2.6-0.6-5.4-3.2-6.2c-2.6-0.8-5.4,0.6-6.2,3.2l-24.4,76.9c-0.6,1.9,0,3.8,1.3,5.1c0.5,0.5,1.2,0.9,1.9,1.1
							c2.6,0.8,5.4-0.6,6.2-3.2L242.9,78.3z"/>
					</g>
				</g>
			</g>
		</g>
	</g>
</g>
<g>
	<g transform="translate(53.568533, 367.413814)">
		<g>
			<path class="st4" d="M54.2,120.6c2.9,0,5.1-2,5.4-5.3l10.3-84.2C134.9,18.6,179.1-3.3,187.7-73.7c8.6-69.5-18.2-119.6-81.2-110.7
				c-29.1,4.1-54.8,17.2-82.2,24.4c-4,1-6.4,4.2-4.7,7.6c4.2,9.3,13.9,17,26.2,19.3L19.5,81.9C17.1,102.4,31.1,120.2,54.2,120.6z
				 M90.1-131.9c0.3-3.8,0.2-7.5-1.2-11.4c7.4-2.7,14.9-5.4,22.5-6.5c25-3.5,46.7,30,32.5,78.5c-11.3,39.5-30.4,58.6-70,69.6
				L90.1-131.9z"/>
		</g>
	</g>
</g>
</svg>
