<svg xmlns="http://www.w3.org/2000/svg" xmlns:xlink="http://www.w3.org/1999/xlink" width="500" zoomAndPan="magnify" viewBox="0 0 375 374.999991" height="500" preserveAspectRatio="xMidYMid meet" version="1.0"><defs><g/></defs><g fill="#2c50f6" fill-opacity="1"><g transform="translate(89.557997, 370.500959)"><g><path d="M 42.625 -2.171875 C 46.015625 -2.1875 48.5625 -4.46875 49 -8.390625 L 61.0625 -107.078125 C 137.140625 -121.71875 188.984375 -147.390625 199.015625 -229.875 C 209.171875 -311.40625 177.6875 -370.15625 103.90625 -359.703125 C 69.859375 -354.875 39.703125 -339.5 7.609375 -331.09375 C 2.9375 -329.9375 0.09375 -326.15625 2.125 -322.109375 C 7.046875 -311.21875 18.453125 -302.234375 32.828125 -299.4375 L 1.953125 -47.546875 C -0.921875 -23.5 15.546875 -2.703125 42.625 -2.171875 Z M 84.640625 -298.09375 C 85 -302.5 84.84375 -306.8125 83.234375 -311.40625 C 91.953125 -314.578125 100.6875 -317.734375 109.671875 -319.015625 C 138.984375 -323.171875 164.359375 -283.828125 147.796875 -226.96875 C 134.5625 -180.703125 112.203125 -158.234375 65.765625 -145.390625 Z M 84.640625 -298.09375 "/></g></g></g><g fill="#38b6ff" fill-opacity="1"><g transform="translate(105.859694, 374.819414)"><g><path d="M 44 -2.25 C 47.5 -2.25 50.140625 -4.625 50.5625 -8.65625 L 63.046875 -110.53125 C 141.578125 -125.65625 195.09375 -152.15625 205.4375 -237.28125 C 215.9375 -321.46875 183.4375 -382.109375 107.265625 -371.3125 C 72.109375 -366.34375 40.984375 -350.46875 7.84375 -341.78125 C 3.046875 -340.609375 0.109375 -336.703125 2.1875 -332.515625 C 7.265625 -321.28125 19.03125 -311.984375 33.890625 -309.125 L 2 -49.09375 C -0.953125 -24.265625 16.0625 -2.78125 44 -2.25 Z M 87.390625 -307.75 C 87.734375 -312.28125 87.59375 -316.734375 85.921875 -321.46875 C 94.9375 -324.75 103.9375 -328 113.21875 -329.3125 C 143.484375 -333.609375 169.65625 -293 152.5625 -234.3125 C 138.921875 -186.53125 115.828125 -163.34375 67.875 -150.078125 Z M 87.390625 -307.75 "/></g></g></g></svg>