<?xml version="1.0" encoding="utf-8"?>
<!-- Generator: Adobe Illustrator 27.9.0, SVG Export Plug-In . SVG Version: 6.00 Build 0)  -->
<svg version="1.1" id="Layer_1" xmlns="http://www.w3.org/2000/svg" xmlns:xlink="http://www.w3.org/1999/xlink" x="0px" y="0px"
	 viewBox="0 0 500 286.6" style="enable-background:new 0 0 500 286.6;" xml:space="preserve">
<style type="text/css">
	.st0{opacity:0.24;}
	.st1{clip-path:url(#SVGID_00000114047170748538287940000002490925407779551409_);}
	.st2{fill:#5CE1E6;}
	.st3{clip-path:url(#SVGID_00000124877464015123522610000011805338271639632810_);}
	.st4{clip-path:url(#SVGID_00000104668051499166384670000004275760840327219848_);}
	.st5{clip-path:url(#SVGID_00000103963250474611461220000016257998019790032555_);}
	.st6{clip-path:url(#SVGID_00000065791212469041136330000008294042450640902822_);}
	.st7{clip-path:url(#SVGID_00000119077806098492175500000009114097841359755440_);}
	.st8{clip-path:url(#SVGID_00000152957913955891647760000015695016607255734915_);}
	.st9{fill:#5271FF;}
	.st10{clip-path:url(#SVGID_00000142879984025997572400000018396096547694866062_);}
	.st11{fill:#38B6FF;}
</style>
<g transform="matrix(1, 0, 0, 1, 1, 75)" class="st0">
	<g>
		<defs>
			<rect id="SVGID_1_" x="0.3" y="-75.2" width="498.7" height="288"/>
		</defs>
		<clipPath id="SVGID_00000047027193857146186690000004590252040698905009_">
			<use xlink:href="#SVGID_1_"  style="overflow:visible;"/>
		</clipPath>
		<g style="clip-path:url(#SVGID_00000047027193857146186690000004590252040698905009_);">
			<path class="st2" d="M134.1,60.7c0-33.6-27.2-60.8-60.8-60.8c-33.6,0-60.8,27.2-60.8,60.8c0,33.6,27.2,60.8,60.8,60.8
				C106.9,121.5,134.1,94.3,134.1,60.7z M75.7,101c-8.9-1.9-5.1-15.5,3.8-13.6c14.9,3.2,26-8.2,27.1-22.6c0.7-9,14.8-9.1,14.1,0
				C118.9,88.6,100,106.3,75.7,101z"/>
			<g>
				<defs>
					<rect id="SVGID_00000165213332451018488800000014597878588777531053_" x="239" y="-75" width="122.7" height="122.5"/>
				</defs>
				<clipPath id="SVGID_00000170238754249874879780000015558920272997914524_">
					<use xlink:href="#SVGID_00000165213332451018488800000014597878588777531053_"  style="overflow:visible;"/>
				</clipPath>
				<g style="clip-path:url(#SVGID_00000170238754249874879780000015558920272997914524_);">
					<path class="st2" d="M239.8-13.6c0,33.6,27.2,60.8,60.8,60.8c33.6,0,60.8-27.2,60.8-60.8c0-33.6-27.2-60.8-60.8-60.8
						C267-74.4,239.8-47.2,239.8-13.6z M349-12.9c-2.8,25.7-20.6,46.4-47.8,45c-9-0.5-9.1-14.6,0-14.1c19,1,31.7-12.5,33.7-30.9
						C335.9-21.8,350-21.9,349-12.9z"/>
				</g>
			</g>
			<g>
				<defs>
					<rect id="SVGID_00000020392960784038179610000010568024491382105762_" x="149.7" y="59.5" width="152" height="150.9"/>
				</defs>
				<clipPath id="SVGID_00000164514658765788810300000017828811056819940536_">
					<use xlink:href="#SVGID_00000020392960784038179610000010568024491382105762_"  style="overflow:visible;"/>
				</clipPath>
				<g style="clip-path:url(#SVGID_00000164514658765788810300000017828811056819940536_);">
					<path class="st2" d="M300.6,135.7c0-41.4-33.6-74.9-74.9-74.9c-41.4,0-74.9,33.6-74.9,74.9s33.6,74.9,74.9,74.9
						C267.1,210.6,300.6,177,300.6,135.7z M191.5,186.6c-7.7-4.8-0.6-16.9,7.1-12.2c28.4,17.5,66.8,3.2,70-31.8c0.8-9,14.9-9,14.1,0
						C278.6,187.8,229.8,210.1,191.5,186.6z"/>
				</g>
			</g>
			<g>
				<defs>
					<rect id="SVGID_00000150798215481562954740000006168965914663529622_" x="91" y="-75" width="61.3" height="62.5"/>
				</defs>
				<clipPath id="SVGID_00000125570632859129933430000014746876426014575745_">
					<use xlink:href="#SVGID_00000150798215481562954740000006168965914663529622_"  style="overflow:visible;"/>
				</clipPath>
				<g style="clip-path:url(#SVGID_00000125570632859129933430000014746876426014575745_);">
					<path class="st2" d="M152.1-44c0-16.8-13.6-30.4-30.4-30.4c-16.8,0-30.4,13.6-30.4,30.4s13.6,30.4,30.4,30.4
						C138.5-13.6,152.1-27.2,152.1-44z M111.7-22.2c-3.6-1.3-6-4.7-4.9-8.7c0.9-3.4,5.1-6.3,8.7-4.9c3.8,1.4,6.4,1.3,9.7-1.2
						c3.1-2.3,7.9-0.5,9.6,2.5c2.1,3.5,0.5,7.4-2.5,9.6C126.4-20.4,118.5-19.7,111.7-22.2z"/>
				</g>
			</g>
			<path class="st2" d="M395.8-18.2c0,5.1,4.1,9.2,9.2,9.2c5.1,0,9.2-4.1,9.2-9.2c0-5.1-4.1-9.2-9.2-9.2
				C399.9-27.5,395.8-23.3,395.8-18.2z"/>
			<path class="st2" d="M60.1-34.7c0-5.1-4.1-9.2-9.2-9.2c-5.1,0-9.2,4.1-9.2,9.2c0,5.1,4.1,9.2,9.2,9.2
				C55.9-25.5,60.1-29.6,60.1-34.7z"/>
			<path class="st2" d="M478.6,69.9c0,5.1,4.1,9.2,9.2,9.2c5.1,0,9.2-4.1,9.2-9.2s-4.1-9.2-9.2-9.2
				C482.7,60.7,478.6,64.8,478.6,69.9z"/>
			<path class="st2" d="M324.4,69.9c-5.1,0-9.2,4.1-9.2,9.2c0,5.1,4.1,9.2,9.2,9.2c5.1,0,9.2-4.1,9.2-9.2
				C333.6,74.1,329.5,69.9,324.4,69.9z"/>
			<path class="st2" d="M124.2,135.7c0-5.1-4.1-9.2-9.2-9.2s-9.2,4.1-9.2,9.2c0,5.1,4.1,9.2,9.2,9.2S124.2,140.8,124.2,135.7z"/>
			<path class="st2" d="M21.8,18.4c0-5.1-4.1-9.2-9.2-9.2s-9.2,4.1-9.2,9.2s4.1,9.2,9.2,9.2S21.8,23.5,21.8,18.4z"/>
			<path class="st2" d="M389.6,28.7c-10.2,0-18.5,8.3-18.5,18.5s8.3,18.5,18.5,18.5c10.2,0,18.5-8.3,18.5-18.5
				S399.8,28.7,389.6,28.7z"/>
			<path class="st2" d="M448,18.4c0,10.2,8.3,18.5,18.5,18.5S485,28.6,485,18.4s-8.3-18.5-18.5-18.5S448,8.2,448,18.4z M479.5,22.7
				c0,9.1-14.1,9.1-14.1,0C465.4,13.6,479.5,13.6,479.5,22.7z"/>
			<path class="st2" d="M448,60.7c-10.2,0-18.5,8.3-18.5,18.5c0,10.2,8.3,18.5,18.5,18.5c10.2,0,18.5-8.3,18.5-18.5
				C466.5,69,458.2,60.7,448,60.7z M457.4,78.4c0.9,0.3,1.6,0.8,2.3,1.5c0.7,0.6,1.2,1.4,1.5,2.3c0.4,0.8,0.6,1.7,0.6,2.7
				c0,0.3-0.1,0.6-0.1,0.9c0-0.1-0.1,0.9-0.2,1.1c0,0,0,0.1,0,0.1c-0.2,0.6-0.5,1.1-0.7,1.7l0,0l0,0.1c0,0,0,0,0,0
				c-0.4,0.5-0.7,1-1.1,1.4c0,0-0.1,0.1-0.1,0.1c-0.1,0.1-1,0.9-1.6,1.2c-0.3,0.1-0.8,0.4-0.9,0.4c-0.2,0.1-0.6,0.3-0.9,0.4
				c0,0-0.1,0-0.1,0c-0.6,0.1-1.3,0.2-2,0.3c-0.1,0-0.2,0-0.3,0c-1.3,0-2.5-0.3-3.6-1c-0.5-0.4-1-0.7-1.4-1.1
				c-0.9-0.9-1.5-1.9-1.8-3.1c-0.1-0.6-0.2-1.2-0.3-1.9c0-1,0.2-1.9,0.6-2.7c0.3-0.9,0.8-1.6,1.5-2.3c0.5-0.5,1-0.9,1.7-1.2
				c0.8-0.6,1.6-1.1,2.5-1.4c0.6-0.1,1.2-0.2,1.9-0.2C455.6,77.8,456.5,78,457.4,78.4z"/>
			<path class="st2" d="M186.9,18.7c10.2,0,18.5-8.3,18.5-18.5c0-10.2-8.3-18.5-18.5-18.5c-10.2,0-18.5,8.3-18.5,18.5
				C168.5,10.4,176.8,18.7,186.9,18.7z"/>
		</g>
	</g>
</g>
<g>
	<defs>
		<rect id="SVGID_00000049939528335323814060000003466746800990162327_" x="328" y="169.2" width="61.3" height="109.3"/>
	</defs>
	<clipPath id="SVGID_00000110446469636548885140000005107850111026039697_">
		<use xlink:href="#SVGID_00000049939528335323814060000003466746800990162327_"  style="overflow:visible;"/>
	</clipPath>
	<g style="clip-path:url(#SVGID_00000110446469636548885140000005107850111026039697_);">
		<g>
			<defs>
				
					<rect id="SVGID_00000114074292938698407920000013168400728221717169_" x="305.7" y="192.4" transform="matrix(0.337 -0.9415 0.9415 0.337 23.5512 482.21)" width="97" height="64"/>
			</defs>
			<clipPath id="SVGID_00000023982539049660976200000013142247202139852700_">
				<use xlink:href="#SVGID_00000114074292938698407920000013168400728221717169_"  style="overflow:visible;"/>
			</clipPath>
			<g style="clip-path:url(#SVGID_00000023982539049660976200000013142247202139852700_);">
				<g>
					<defs>
						
							<rect id="SVGID_00000109719503470582875290000007630624449657468305_" x="305.5" y="192.3" transform="matrix(0.3371 -0.9415 0.9415 0.3371 23.465 481.9418)" width="97" height="64"/>
					</defs>
					<clipPath id="SVGID_00000111193750526440050760000008501981307899315388_">
						<use xlink:href="#SVGID_00000109719503470582875290000007630624449657468305_"  style="overflow:visible;"/>
					</clipPath>
					<g style="clip-path:url(#SVGID_00000111193750526440050760000008501981307899315388_);">
						<path class="st9" d="M362,220.8c-0.1-1-0.2-2-0.1-2.9c0.2-1,0.5-2,1-2.9c0.9-1.9,2.3-3.4,4.1-4.6c1.1-0.7,2.1,0.8,1,1.5
							c-3,1.9-4.9,5.4-5.4,8.9C362.4,221.1,362,221.1,362,220.8z M378.6,217.4c1.3,1.6,0.8,4.1,0.1,5.8c-0.4,1-0.9,1.8-1.6,2.6
							c-0.6,0.8-1.2,1.6-2.1,2.1c-0.4,0.2-0.6-0.2-0.5-0.6c0.4-0.7,1.1-1.3,1.5-2.1c0.4-0.8,0.7-1.8,0.9-2.7c0.4-1.6,0.2-3.5,0.9-5
							C378,217.2,378.3,217.1,378.6,217.4z M369.9,237.9c0-0.1,0.2-0.1,0.1,0c-0.6,5.9-2.4,11.7-4.5,17.2c-1,2.6-2,5.3-3.3,7.7
							c-0.9,1.6-2.2,3.3-4.2,3.6c-1.4,0.2-2.8-0.3-4.1-0.8c-1.6-0.6-3.3-1.1-4.6-2.1c-0.4-0.3-0.1-0.8,0.4-0.7
							c1.8,0.5,3.4,1.4,5.2,2c1.4,0.5,2.9,1.2,4.3,0.3c1.1-0.6,1.8-1.8,2.3-2.8c0.8-1.5,1.4-3,2-4.5c1.3-3.2,2.4-6.4,3.5-9.7
							C368.1,244.6,368.9,241.2,369.9,237.9z M334.6,197.3c1.9-0.4,3.8-0.8,5.6-1.1c3.6-0.6,7.3-1.2,11-1c0.3,0,0.3,0.5,0,0.6
							c-3.5,0.9-7.2,1.2-10.8,1.9c-1.8,0.3-3.5,0.7-5.3,1.1c-1.7,0.4-3.6,1.2-5.3,0.9c-0.4-0.1-0.7-0.6-0.3-0.9
							C331,197.9,333,197.7,334.6,197.3z M344.3,185.8c1.3,0.7,2.5,1.5,3.8,2.2c1.4,0.7,2.8,1.4,4.2,2.2c0,0,0,0.1,0,0.1
							c-1.4-0.5-2.8-1-4.2-1.5c-1.4-0.5-2.9-0.9-4.4-1.4c-1.4-0.5-2.7-1.1-4.1-1.7c-1.3-0.5-2.9-1-4-1.9c-0.5-0.5-0.3-1.4,0.5-1.4
							c1.4,0.1,2.8,1,4.1,1.6C341.6,184.6,343,185.1,344.3,185.8z M356.7,187.8c-3.3-2.8-5.7-6.4-8.7-9.5c-1.4-1.4-2.7-2.9-3.8-4.5
							c-0.7-1.1-1.8-3.1-1-4.3c0.2-0.3,0.6-0.3,0.8,0c0.4,0.5,0.6,1.2,0.9,1.8c0.4,0.7,0.9,1.4,1.4,2.1c1.2,1.6,2.4,3.1,3.5,4.7
							c2.3,3.3,5.1,6.2,7.1,9.7C357,187.8,356.8,187.9,356.7,187.8z M363,193.4c-0.7-0.4-1.4-0.8-2-1.2c-0.7,1.9-1.6,3.8-2.7,5.5
							c0.2,0.1,0.4,0.2,0.6,0.2c1.1,0,1,1.7-0.1,1.7c-1,0-1.8-0.5-2.3-1.4c-0.2-0.2-0.1-0.6,0.1-0.8c1.5-1.9,2.6-4,3.5-6.3
							c0.2-0.4,0.6-0.5,1-0.3c1,0.6,1.9,1.3,2.6,2.3C363.8,193.3,363.3,193.6,363,193.4z M362.1,206.6c0.4-0.7,0.8-1.3,1.2-2
							c0.4-0.7,0.6-1.5,1-2.2c0.5-0.8,1.7-0.3,1.7,0.6c-0.1,1.6-1.3,3.6-2.5,4.7c-0.6,0.6-1.4,1-2.1,1.5c-0.7,0.5-1.3,1-2.1,1.2
							c-0.1,0-0.3-0.2-0.2-0.3c0.5-0.6,1.1-1,1.6-1.5C361.3,208.1,361.6,207.3,362.1,206.6z M376.2,207c-0.8-0.5-0.5-1.7,0-2.4
							c0.5-0.6,1.5-1.3,2.3-1.1c2,0.4,2,3.6,0.2,4.3c-0.4,0.2-0.7-0.5-0.3-0.7c1.1-0.5,1.1-2.4-0.1-2.8c-0.7-0.2-1.2,0.1-1.5,0.7
							c-0.3,0.6-0.2,1.1-0.1,1.7C376.6,207,376.4,207.1,376.2,207z M361.1,199.2c-0.1-0.3,0-0.7,0.3-0.9c0.8-0.4,1.5,0.1,2.3,0.4
							c0.8,0.3,1.6,0.7,2.4,1.1c1.5,0.8,2.8,1.6,3.6,3.1c0.7,1.1,1,2.5,0.8,3.8c-0.2,1.3-0.9,2.1-2.1,2.5c-0.1,0-0.2-0.1-0.1-0.2
							c1.1-0.7,1.5-2.2,1.4-3.4c-0.2-1.3-0.9-2.2-2-2.9c-1.1-0.7-2.2-1.2-3.4-1.7C363.4,200.6,361.4,200.2,361.1,199.2z
							 M383.8,200.2c-3.1-1.5-6.1-2.9-9.4-3.8c-3.3-0.9-6.8-1.3-10.2-1.2c-0.1,0-0.3,0-0.4-0.1c-0.3,1-0.8,2.1-1.5,2.7
							c-0.2,0.2-0.5,0-0.5-0.2c0.1-1.2,1-2.5,1.6-3.5c0.1-0.3,0.4-0.6,0.8-0.6c3.5-0.1,7.1,0.4,10.5,1.4c3.3,1,6.7,2.5,9.4,4.7
							C384.4,199.7,384.2,200.3,383.8,200.2z M387.5,212.2c-0.2-0.2-0.4-0.4-0.5-0.6c-0.1,0-0.1,0.1-0.2,0.1
							c-0.6,0.1-1.3,0.1-1.9,0.3c-0.7,0.2-1.5,0.6-2.1,1c-0.6,0.4-1.1,0.8-1.6,1.3c-0.5,0.5-1.2,1.1-1.6,1.7c-0.1,0.1-0.2,0-0.2-0.1
							c0.4-0.8,0.5-1.3,1.1-1.9c0.5-0.6,1.1-1.1,1.7-1.5c0.6-0.4,1.2-0.7,1.9-1.1c0.7-0.3,1.4-0.7,2.1-0.8c-0.6-1.3-1-2.8-1.4-4.2
							c-0.3-1.1-0.5-2.2-0.7-3.3c-0.1-0.5-0.2-1-0.2-1.5c0-0.5,0.3-1.1,0.4-1.6c0.1-0.2,0.4-0.2,0.4,0c0.2,0.5,0.5,0.9,0.7,1.4
							c0.2,0.5,0.2,1,0.3,1.5c0.2,1.1,0.4,2.1,0.6,3.2c0.5,2,1.4,4.1,1.6,6.2C388.1,212.3,387.7,212.5,387.5,212.2z M377,217.1
							c-1.6,0.2-3,0.1-4.5-0.6c-1.2-0.6-2.8-1.6-3-3c-0.1-0.3,0.3-0.7,0.6-0.5c1.1,0.5,1.9,1.6,2.9,2.2c1.2,0.7,2.6,1.2,3.9,1.4
							C377.2,216.7,377.2,217.1,377,217.1z M372.1,226.3c-0.7,0.1-1.5,0.2-2.2,0.1c-0.7-0.1-1.4-0.3-2.1-0.7
							c-1.1-0.5-2.8-1.3-3.1-2.6c-0.1-0.3,0.3-0.5,0.5-0.5c0.5,0.2,0.9,0.6,1.4,0.9c0.6,0.4,1.1,0.8,1.7,1.1
							c1.1,0.5,2.5,1.1,3.8,1.3C372.3,226,372.4,226.3,372.1,226.3z M330.7,254.8c-0.5,1.1-1.1,2.1-1.4,3.3
							c-0.7,2.4,0.6,4.2,2.2,5.9c1.7,1.8,3.7,3.4,5.8,4.7c4.2,2.7,9,4.4,13.7,5.9c2.3,0.7,4.7,1.4,7.1,2c2,0.5,4.2,0.9,6.2,0.5
							c4.9-0.8,6.5-5.6,7.8-9.8c1.4-4.4,2.6-8.8,3.4-13.3s1.2-9.1,0.8-13.6c-0.2-2.2-0.5-4.5-1-6.7c-0.3-1.1-0.6-2.1-1-3.1
							c-0.5-1-1.2-2-1.7-3c-0.1-0.2-0.4-0.1-0.3,0.1c0.5,1.2,0.6,2.5,1,3.8c0.3,1.1,0.6,2.2,0.8,3.3c0.5,2.3,0.7,4.7,0.8,7.1
							c0.1,4.8-0.6,9.7-1.6,14.4c-0.9,4.2-2.2,8.3-3.5,12.4c-0.7,2.1-1.4,4.3-3.1,5.7c-1.6,1.3-3.7,1.3-5.6,1.1
							c-2.1-0.3-4.1-1-6.1-1.6c-2.3-0.7-4.5-1.4-6.8-2.2c-4.5-1.6-8.9-3.6-12.7-6.6c-0.9-0.7-1.8-1.5-2.7-2.3
							c-0.7-0.7-1.6-1.5-2-2.5c-0.4-1.1,0.1-2.3,0.5-3.4c0.4-1.1,0.9-2.1,1.4-3.1c2-4.1,4.5-8.1,7.3-11.7c2.8-3.6,6-7,9.5-10
							c1.8-1.5,3.6-3,5.5-4.3c1.9-1.3,3.8-2.7,5.7-4.1c0.4-0.3,0-0.9-0.4-0.7c-2.6,1.1-4.9,2.5-7.2,4.1c-2.3,1.7-4.4,3.5-6.4,5.4
							c-4,3.8-7.5,8-10.5,12.5c-1.4,2.1-2.6,4.2-3.8,6.4C331.8,252.5,331.3,253.7,330.7,254.8"/>
					</g>
				</g>
			</g>
		</g>
	</g>
</g>
<g>
	<g transform="translate(28.675147, 198.47692)">
		<g>
			<path class="st9" d="M37.5-19.8c-6.8,0-12.2-1.6-16.3-4.8c-4-3.2-6-7.8-6-13.9c0-4.4,0.9-8.5,2.8-12.4c1.9-3.9,4.4-7.4,7.7-10.4
				c3.2-3.1,6.9-5.5,11.1-7.2c4.2-1.8,8.5-2.6,13.1-2.6c4.6,0,8.3,1.1,11,3.1c2.7,2.1,4,4.9,4,8.5c0,2.6-1.7,6-5.1,10.3
				c-3.4,4.2-5.1,5.6-5.1,4.2c0-0.4,0.1-0.7,0.4-1.1c2.8-4.1,4.2-8,4.2-11.5c0-3.2-1-5.8-3.1-7.7c-2.1-1.9-4.8-2.9-8.1-2.9
				c-3.7,0-7.2,0.9-10.6,2.7c-3.4,1.8-6.4,4.2-9,7.1c-2.6,3-4.7,6.3-6.2,9.9c-1.5,3.6-2.2,7.1-2.2,10.6c0,4.8,1.6,8.5,4.7,11
				c3.1,2.5,7.2,3.8,12.3,3.8c5.2,0,10.1-0.9,14.9-2.8c4.8-1.9,9-4.6,12.8-8.1c4.5-4.2,9-10.3,13.5-18.4l11.4-20.6
				c3-4.7,6.1-10.4,9.3-17.1c3.2-6.7,6.7-14.4,10.2-23c-12.6-0.2-24.8,1-36.8,3.7c-12.7,2.7-22.1,6.5-28.2,11.3
				c-2.6,1.9-3.9,3.9-3.9,6c0,1.8,1,3.3,3.1,4.5c2.1,1.2,4.7,1.8,7.8,1.8c1.8,0,4-0.3,6.6-0.8c2.5-0.5,5-1.2,7.4-2.2
				c2.4-0.9,4.2-2,5.4-3.1c0.9-0.7,1.5-1.1,1.8-1.1c0.7,0,0.8,0.4,0.4,1.1c-1.8,2.2-4.2,4-7.1,5.5c-2.9,1.5-6,2.6-9.3,3.4
				c-3.2,0.7-6.2,1.1-9,1.1c-4.3,0-7.6-0.8-10.1-2.5c-2.4-1.7-3.6-3.9-3.6-6.6c0-3.2,1.6-6.2,4.7-9.2c6-5.8,16.6-10.1,31.9-12.9
				c5.9-1.1,12.3-1.8,19.1-2.3c6.8-0.5,14.1-0.7,21.8-0.6c1.9-1.7,3.8-2.5,5.5-2.5s2.4,0.9,2,2.8c5.5,0.3,11.1,1.1,16.7,2.1
				c5.7,1,10.8,2.5,15.5,4.4c4.7,1.9,8.5,4.2,11.4,7c2.9,2.8,4.3,6,4.3,9.8c0,4-1.3,7.9-4,11.5c-2.7,3.6-6.1,6.8-10.2,9.6
				c-4.2,2.8-8.5,5-13.1,6.7c-4.2,1.5-8.7,2.7-13.5,3.5c-4.8,0.9-9.5,1.3-14.1,1.3c-3.5,0-6.8-0.3-10-0.8c-3.2-0.5-6.1-1.4-8.7-2.5
				c-5.3,7.8-9.8,14.1-13.3,19c-3.5,4.9-6.3,8.3-8.2,10.2C61.9-24.5,50.7-19.8,37.5-19.8z M108.4-63.1c3.2,0,6.5-0.3,9.7-1
				c3.2-0.7,6.6-1.6,10.3-2.7c3.7-1.2,7.4-2.8,11.2-4.6c3.8-1.9,7.2-4,10.4-6.4c3.2-2.4,5.7-5,7.6-7.7c1.9-2.8,2.9-5.5,2.9-8.4
				c0-3.2-1.3-5.9-3.9-8.2c-2.6-2.3-6.1-4.2-10.4-5.7c-4.3-1.5-8.9-2.6-13.9-3.5c-5-0.8-9.8-1.4-14.4-1.6l-4.2,13.1
				c-1.5,3.8-3.6,8.1-6.3,13.1c-2.7,5-6,10.6-10,16.8l-2.9,4.5c0.6,0.3,1.3,0.6,2,0.9c0.8,0.2,1.6,0.4,2.4,0.6
				c1.7,0.3,3.3,0.6,4.9,0.7C105.3-63.2,106.8-63.1,108.4-63.1z"/>
		</g>
	</g>
</g>
<g>
	<g transform="translate(132.760313, 198.47692)">
		<g>
			<path class="st9" d="M71-33.3c-3.8,0-6.3-1-7.8-3c-1.4-2-2.1-4.6-2.1-8c0-3.7,1.1-8,3.4-13.1c0.9-2,1.8-3.8,2.8-5.4
				c1-1.6,2-3.1,3-4.5c-0.3,0.1-0.7,0.1-0.9,0.1c-0.3,0-0.5,0-0.8,0c-2.1,0-3.8-1.5-5.2-4.5l-9.7,12.6C48.5-52.3,45.4-49,44.3-49
				c-0.4,0-0.7-0.2-0.7-0.5c0-0.4,0.2-1,0.7-1.7c0.3-0.5,0.8-1.2,1.6-2.1c3.3-3.9,6.4-7.7,9.2-11.4c2.8-3.8,5.1-7.4,7-11
				c2-7.6,4.5-11.4,7.6-11.4c2,0,3,0.9,3,2.8c0,1.7-1.1,3.9-3.3,6.6c-2.1,2.7-3.2,4.1-3.2,4.2c0,1.8,1.4,2.8,4.1,2.8
				c1.6,0,3.3-0.6,5.2-1.7l3.4-2.1c0.2-0.1,0.4-0.1,0.8-0.1c1,0,2,0.4,2.8,1.3c0.8,0.9,1.1,1.7,0.8,2.4l-9.1,11.4
				c-5.6,7.2-8.4,13-8.4,17.3c0,3.9,1.9,5.9,5.8,5.9c2.6,0,5.4-0.8,8.5-2.4c3-1.6,6-3.5,8.8-5.9c2.8-2.3,5.2-4.6,7.2-6.8l3.1-3.7
				c0.2-0.2,0.4-0.4,0.7-0.6c0.3-0.3,0.5-0.4,0.6-0.4c0.6,0,0.9,0.3,0.9,0.9c0,0.2-0.1,0.5-0.3,0.9c-0.2,0.4-0.5,0.9-0.9,1.4
				L96-48.2c-2,2.3-4.5,4.6-7.4,6.9c-2.9,2.3-6,4.2-9.1,5.7C76.4-34.1,73.6-33.3,71-33.3z"/>
		</g>
	</g>
</g>
<g>
	<g transform="translate(171.558375, 198.47692)">
		<g>
			<path class="st9" d="M86.2-79.2c-1.5,0-2.8-0.5-3.9-1.4c-1.1-1-1.6-2.1-1.6-3.3c0-2.4,1.7-3.7,5-3.7c1.2,0,2.4,0.4,3.7,1.2
				c1.2,0.8,1.8,1.9,1.8,3.1c0,1-0.6,2-1.7,2.8C88.3-79.6,87.2-79.2,86.2-79.2z M61.9-32.6c-1.9,0-3.5-0.6-4.8-1.9
				c-1.3-1.3-1.9-3.5-1.9-6.8c0-1.8,0.4-3.9,1.2-6.4c0.8-2.4,1.9-4.8,3.1-7.3c1.3-2.4,2.5-4.6,3.8-6.6c4.9-8,8.9-12,12.1-12.1
				c0.8,0,1.8,0.3,2.9,1c1.1,0.7,1.7,1.4,1.7,2.1c0,0-3.3,4.3-10,12.9C63.5-49,60.2-43,60.2-39.4c0,2.8,1.1,4.2,3.3,4.2
				c1.4,0,3.2-0.6,5.5-1.8c2.2-1.2,4.6-2.7,7-4.5c2.5-1.8,4.8-3.8,7-5.9c2.2-2.1,4.1-4,5.5-5.8c0.9-1.1,1.6-1.9,2.3-2.4
				c0.7-0.4,1.1-0.7,1.2-0.7c0.3,0,0.5,0.3,0.5,0.8c0,0.4-0.5,1.3-1.5,2.6c-1,1.3-2.4,2.8-4.1,4.6c-2.1,2.1-4.4,4.4-7,6.9
				c-2.5,2.4-5.3,4.5-8.3,6.2C68.6-33.4,65.4-32.6,61.9-32.6z"/>
		</g>
	</g>
</g>
<g>
	<g transform="translate(193.813104, 198.47692)">
		<g>
			<path class="st9" d="M79.7-33.7c-4.1,0-7.2-1.4-9.1-4.1c-2-2.7-3.6-6.5-4.8-11.3c-1.6,1.6-2.7,2.4-3.3,2.4
				c-0.4,0-0.6-0.4-0.6-1.1c0-0.5,0.2-1,0.6-1.4c0,0,1.1-1.4,3.4-4.1c2.2-2.7,6-6.5,11.4-11.4l16.5-15.5c2.3-2.2,4.1-3.9,5.4-5
				c1.4-1.1,2.3-1.7,3-1.7c2.8,0,4.2,1.1,4.2,3.2c0,1-0.6,2.3-1.7,3.7c-0.9,1.1-1.5,1.9-1.9,2.4c-0.4,0.6-0.6,0.9-0.7,1
				c-1.6,2.7-3,7.6-4.3,14.6c-1,5.2-1.8,9.4-2.5,12.8c-0.7,3.3-1.3,5.7-1.7,7.2c3.7-0.1,7.3-1.2,10.9-3.4c3.6-2.2,7.4-5.8,11.6-10.8
				c0.2-0.2,0.4-0.4,0.8-0.8c0.3-0.3,0.7-0.5,1-0.5c0.5,0,0.8,0.2,0.8,0.6c0,0.4-0.1,0.9-0.4,1.3c-0.3,0.4-0.5,0.8-0.8,1.2
				c-2.7,3.2-5.2,5.9-7.6,7.9c-2.4,2.1-4.9,3.7-7.5,4.9c-2.6,1.2-5.7,2.2-9.3,3L88.8-36c-1.1,0.8-2.5,1.4-4.1,1.7
				C83.1-33.9,81.5-33.7,79.7-33.7z M81.3-40.4c2,0,3.7-0.5,5-1.4c1-0.5,1.9-2,2.8-4.4c0.9-2.4,1.8-5.4,2.7-9c0.7-3.1,1.2-6,1.6-9
				c0.4-2.9,0.8-5.8,1.1-8.5l0.5-4.5c-2,1.5-4.6,3.6-7.6,6.4c-3.1,2.8-6.1,5.7-9,8.8c-3,3.1-4.9,5.3-5.8,6.8
				c-0.9,1.4-1.4,2.5-1.4,3.2c-0.3,3.5,0.5,6.3,2.6,8.4C75.8-41.5,78.3-40.4,81.3-40.4z"/>
		</g>
	</g>
</g>
<g>
	<g transform="translate(229.164648, 198.47692)">
		<g>
			<path class="st9" d="M84.5-33.2c-2.8,0-5-0.7-6.6-2c-1.6-1.4-2.4-3.8-2.4-7.3c0-2,0.6-4.6,1.8-7.7c1.2-3.1,2.8-6.5,4.6-10
				c1.8-3.6,3.7-7.1,5.5-10.6c-1.1,0.3-2.1,0.4-3,0.4c-2.6,0-3.9-1-3.9-3c0-1,0.4-1.7,1.1-2.2c0.8-0.5,1.4-0.8,2.1-0.9
				c0,0,0.1,0,0.3,0c0.2,0,0.5,0,0.9-0.1h7.6c1.6-2,3.2-4.2,4.9-6.4c2.4-3,4.2-4.7,5.6-5.2h0.4c0.6,0,1.5,0.3,2.6,0.9
				c1.4,0.8,2.1,1.6,2.1,2.4c0,1.1-2.1,4.1-6.3,8.8c0.8,0.1,1.9,0.1,3.4,0.1c1.5,0,3.3,0,5.5,0c1,0,2.5,0,4.5,0c2,0,4,0,6.2-0.1
				c2.2-0.1,4-0.1,5.6-0.1c1.6,0,2.5-0.1,2.6-0.1c0.3,0.1,0.4,0.2,0.4,0.4c0,0.8-5.2,1.8-15.5,3.1c-5.9,0.8-10.4,1.4-13.5,1.9
				c-3.1,0.4-4.8,0.7-5,0.8c-1.2,1.1-2.7,2.9-4.5,5.4c-1.8,2.5-3.5,5.4-5.2,8.5c-1.8,3.2-3.2,6.2-4.4,9c-1.2,2.8-1.8,5.1-1.8,6.6
				c0,1.4,0.5,2.6,1.6,3.5c1.1,0.9,2.8,1.4,5.1,1.4c1.6,0,3.4-0.3,5.6-1c2.2-0.7,4.3-1.5,6.2-2.4c2-0.9,3.4-1.7,4.3-2.2
				c2.3-1.4,4.8-3.2,7.5-5.6c2.8-2.3,5.5-5,8.2-8c1.2-1.2,2.1-1.8,2.5-1.8c0.3,0,0.4,0.2,0.4,0.5c0,0.7-0.7,1.8-2,3.4
				c-2.1,2.5-4.4,5-7,7.3c-2.6,2.3-5.5,4.4-8.6,6.4c-3.6,2.2-7,3.8-10.3,4.7C90.4-33.7,87.3-33.2,84.5-33.2z"/>
		</g>
	</g>
</g>
<g>
	<g transform="translate(258.410905, 198.47692)">
		<g>
			<path class="st9" d="M115.2-79.2c-1.5,0-2.8-0.5-3.9-1.4c-1.1-1-1.6-2.1-1.6-3.3c0-2.4,1.7-3.7,5-3.7c1.2,0,2.4,0.4,3.7,1.2
				c1.2,0.8,1.8,1.9,1.8,3.1c0,1-0.6,2-1.7,2.8C117.3-79.6,116.2-79.2,115.2-79.2z M90.9-32.6c-1.9,0-3.5-0.6-4.8-1.9
				c-1.3-1.3-1.9-3.5-1.9-6.8c0-1.8,0.4-3.9,1.2-6.4c0.8-2.4,1.9-4.8,3.1-7.3c1.3-2.4,2.5-4.6,3.8-6.6c4.9-8,8.9-12,12.1-12.1
				c0.8,0,1.8,0.3,2.9,1c1.1,0.7,1.7,1.4,1.7,2.1c0,0-3.3,4.3-10,12.9C92.4-49,89.2-43,89.2-39.4c0,2.8,1.1,4.2,3.3,4.2
				c1.4,0,3.2-0.6,5.5-1.8c2.2-1.2,4.6-2.7,7-4.5c2.5-1.8,4.8-3.8,7-5.9c2.2-2.1,4.1-4,5.5-5.8c0.9-1.1,1.6-1.9,2.3-2.4
				c0.7-0.4,1.1-0.7,1.2-0.7c0.3,0,0.5,0.3,0.5,0.8c0,0.4-0.5,1.3-1.5,2.6c-1,1.3-2.4,2.8-4.1,4.6c-2.1,2.1-4.4,4.4-7,6.9
				c-2.5,2.4-5.3,4.5-8.3,6.2C97.6-33.4,94.4-32.6,90.9-32.6z"/>
		</g>
	</g>
</g>
<g>
	<g transform="translate(280.665635, 198.47692)">
		<g>
			<path class="st9" d="M127-33.7c-2.4,0-4-0.7-5-2c-1-1.4-1.4-3-1.4-5.1c0-5.1,1.8-10.5,5.2-16.3l8.4-13.7
				c-6,4.4-11.9,9.9-17.7,16.4c-1.6,1.8-3.4,3.8-5.3,6.2c-2,2.4-4.1,5.1-6.5,8.1c-3.2,4.1-5,6.2-5.6,6.2c-1.2,0-2.2-0.5-3-1.6
				c-0.8-1.1-1.2-2.1-1.2-3c0-0.7,0.2-2,0.6-3.9c0.4-1.9,1-3.5,1.6-4.9c0.6-1.5,1.2-2.9,1.9-4.4c0.7-1.4,1.3-2.9,1.9-4.3L93-47.6
				c-0.2,0.2-0.7,0.7-1.6,1.6s-1.6,1.3-2.1,1.3c-0.4,0-0.6-0.3-0.6-0.9c0-0.2,0.1-0.4,0.2-0.7c0.1-0.3,0.4-0.7,0.8-1.1
				c1.3-1.3,2.7-2.7,4.1-4.2c1.4-1.5,2.9-3.2,4.4-5.1c0.8-1,1.9-2.4,3.5-4.4c1.6-2,3.3-4.1,5.2-6.4c1.9-2.3,3.7-4.4,5.3-6.3
				c0.4-0.6,0.9-1,1.4-1.2c0.5-0.2,0.9-0.3,1.1-0.3c2.4,0,3.5,0.9,3.5,2.8c0,0.5-0.1,1.1-0.4,1.6C110-60.3,105.2-52,103.7-46.3
				c10.2-10.2,18.3-17.8,24.5-22.9c6.2-5.1,10.6-7.7,13.2-7.7c1.4,0,2.5,0.2,3.2,0.7c0.8,0.4,1.1,1.3,1.1,2.5c0,0.4,0,0.8-0.1,1.1
				c-0.3,0.6-2.1,3.1-5.4,7.4c-2,2.4-3.8,4.7-5.3,6.7c-1.5,2-2.8,3.8-3.8,5.2c-1.6,2.5-2.8,4.8-3.5,6.9c-0.8,2.1-1.2,4-1.2,5.4
				c0,0.6,0.1,1.4,0.2,2.2c0.2,0.9,0.7,1.3,1.6,1.3c2,0,5.2-1.8,9.4-5.2c2-1.8,3.9-3.5,5.6-5.3c1.8-1.8,3.4-3.6,5-5.3
				c0.3-0.3,0.9-1,1.7-2c0.8-1,1.3-1.5,1.4-1.5c0.3,0,0.5,0.4,0.5,1.1c0,0.3-0.2,0.9-0.6,1.8c-0.4,0.8-0.8,1.5-1.2,1.9
				c-1,1.1-2.4,2.7-4.3,4.7c-1.9,2-4,4.1-6.3,6.2c-2.3,2.1-4.6,3.9-6.8,5.4C130.6-34.5,128.7-33.7,127-33.7z"/>
		</g>
	</g>
</g>
<g>
	<g transform="translate(320.349969, 198.47692)">
		<g>
			<path class="st9" d="M113.5-32.3c-2.8,0-5.3-0.9-7.6-2.7c-2.3-1.8-3.4-4.2-3.4-7.2c0-6.2,3.8-13.3,11.4-21.3
				c7.8-8,14.8-12.1,20.9-12.1c2,0,3.7,0.6,4.9,1.6c1.3,1.1,1.9,2.4,1.9,4c0,4.9-3.9,9.7-11.7,14.4c-6.9,4.2-12.7,6.3-17.5,6.3
				c-0.7,0-1.3-0.1-1.8-0.2c-1.3,2.4-2,4.9-2,7.5c0,4.6,2.1,6.8,6.4,6.8c4.4,0,10-2.9,16.9-8.8c5.3-4.3,9.9-8.8,13.6-13.6
				c0.8-1.1,1.5-1.6,2.1-1.6c0.5,0,0.8,0.3,0.8,0.8c0,0.5-0.3,1.3-1,2.2c-2.5,3.2-5.1,6.2-7.9,8.9c-2.8,2.7-5.8,5.2-9,7.5
				C123.8-34.7,118.1-32.3,113.5-32.3z M114.3-52c3.3,0,7.7-1.7,13-5c1.8-1.2,3.5-2.6,5.2-4.1c1.7-1.5,3.1-3.1,4.2-4.7
				c1.1-1.6,1.6-3,1.6-4.2c0-1.1-0.9-1.7-2.8-1.7c-2.6,0-6.3,2-11,5.9c-2.3,1.9-4.5,4-6.6,6.3c-2.1,2.3-3.9,4.7-5.4,7.2
				C113.1-52.1,113.6-52,114.3-52z"/>
		</g>
	</g>
</g>
<g>
	<defs>
		<rect id="SVGID_00000070100949524300605450000014010225449432446895_" x="230" y="87.1" width="55" height="55"/>
	</defs>
	<clipPath id="SVGID_00000065054222281584150330000016713362151054894256_">
		<use xlink:href="#SVGID_00000070100949524300605450000014010225449432446895_"  style="overflow:visible;"/>
	</clipPath>
	<g style="clip-path:url(#SVGID_00000065054222281584150330000016713362151054894256_);">
		<path class="st9" d="M258,101.8c0.1,0.8,0.2,1.5,0.4,2.3c0.2,0.7,0.5,1.5,0.8,2.1c0.3,0.7,0.7,1.4,1.2,2c0.4,0.6,0.9,1.2,1.5,1.8
			c0.5,0.5,1.1,1,1.8,1.5c0.6,0.4,1.3,0.8,2,1.2c0.7,0.3,1.4,0.6,2.2,0.8c0.7,0.2,1.5,0.4,2.2,0.4c3.7,0.4,8.5,0.7,14.6,0.7
			c-6.2,0-10.9,0.3-14.6,0.7c-0.8,0.1-1.5,0.2-2.2,0.4c-0.7,0.2-1.5,0.5-2.2,0.8c-0.7,0.3-1.4,0.7-2,1.2c-0.6,0.4-1.2,0.9-1.8,1.5
			c-0.5,0.5-1,1.1-1.5,1.8c-0.4,0.6-0.8,1.3-1.2,2c-0.3,0.7-0.6,1.4-0.8,2.1c-0.2,0.7-0.4,1.5-0.4,2.3c-0.4,3.7-0.7,8.5-0.7,14.6
			c0-6.2-0.3-10.9-0.7-14.6c-0.1-0.8-0.2-1.5-0.4-2.3c-0.2-0.7-0.5-1.5-0.8-2.1c-0.3-0.7-0.7-1.4-1.2-2c-0.4-0.6-0.9-1.2-1.5-1.8
			c-0.5-0.5-1.1-1-1.8-1.5c-0.6-0.4-1.3-0.8-2-1.2c-0.7-0.3-1.4-0.6-2.2-0.8c-0.7-0.2-1.5-0.4-2.3-0.4c-3.7-0.4-8.5-0.7-14.6-0.7
			c6.2,0,10.9-0.3,14.6-0.7c0.8-0.1,1.5-0.2,2.3-0.4c0.7-0.2,1.5-0.5,2.2-0.8c0.7-0.3,1.3-0.7,2-1.2c0.6-0.4,1.2-0.9,1.8-1.5
			c0.5-0.5,1-1.1,1.5-1.8c0.4-0.6,0.8-1.3,1.2-2c0.3-0.7,0.6-1.4,0.8-2.1c0.2-0.7,0.4-1.5,0.4-2.3c0.4-3.7,0.7-8.5,0.7-14.6
			C257.4,93.3,257.6,98.1,258,101.8z"/>
	</g>
</g>
<g>
	<g transform="translate(120.52723, 251.324844)">
		<g>
			<path class="st11" d="M55.2-15.9c-4.5,0-7.7-1.3-9.5-4c-1.8-2.7-2.8-6.4-2.8-11.2v-16.1c0-5,0.9-8.8,2.7-11.4
				c1.8-2.6,5-3.9,9.6-3.9c4.1,0,7.1,1.1,8.8,3.3c1.8,2.2,2.7,5.5,2.7,9.8v3.6h-6V-49c0-2.1-0.1-3.7-0.3-4.9c-0.2-1.1-0.7-2-1.4-2.7
				c-0.8-0.7-2-1-3.7-1c-1.7,0-3,0.4-3.9,1.1c-0.8,0.7-1.4,1.7-1.7,3c-0.3,1.3-0.4,3-0.4,5.2v18.1c0,2.3,0.2,4.2,0.6,5.5
				c0.4,1.3,1,2.3,1.8,2.8c0.8,0.6,2,0.8,3.5,0.8c1.6,0,2.8-0.4,3.6-1.1c0.8-0.7,1.3-1.7,1.5-2.9c0.2-1.2,0.3-2.9,0.3-5.1v-3.4h6
				v3.4c0,4.6-0.9,8.1-2.6,10.5C62.4-17.1,59.4-15.9,55.2-15.9z"/>
		</g>
	</g>
</g>
<g>
	<g transform="translate(142.339032, 251.324844)">
		<g>
			<path class="st11" d="M51-62.1h6.4V-21h11.7v4.6H51V-62.1z"/>
		</g>
	</g>
</g>
<g>
	<g transform="translate(159.153172, 251.324844)">
		<g>
			<path class="st11" d="M56.6-62.1h17.7v4.8H63v15.1h9.2v4.5H63V-21h11.5v4.6H56.6V-62.1z"/>
		</g>
	</g>
</g>
<g>
	<g transform="translate(176.39085, 251.324844)">
		<g>
			<path class="st11" d="M69.6-62.1h6.1l9.8,45.8h-6l-2.1-11.5h-9.3l-2.2,11.5h-6L69.6-62.1z M76.5-32.5l-3.8-20.6l-3.8,20.6H76.5z"
				/>
		</g>
	</g>
</g>
<g>
	<g transform="translate(197.228531, 251.324844)">
		<g>
			<path class="st11" d="M69.3-62.1h4.4l13,30.4v-30.4H92v45.8h-4.1L74.7-47.6v31.2h-5.4V-62.1z"/>
		</g>
	</g>
</g>
</svg>
