<?xml version="1.0" encoding="utf-8"?>
<!-- Generator: Adobe Illustrator 27.9.0, SVG Export Plug-In . SVG Version: 6.00 Build 0)  -->
<svg version="1.1" id="Layer_1" xmlns="http://www.w3.org/2000/svg" xmlns:xlink="http://www.w3.org/1999/xlink" x="0px" y="0px"
	 viewBox="0 0 500 213" style="enable-background:new 0 0 500 213;" xml:space="preserve">
<style type="text/css">
	.st0{fill:#2C50F6;}
</style>
<g>
	<g transform="translate(161.749619, 186.784602)">
		<g>
			<path class="st0" d="M61.8-81c0.6,0.1,1.2-0.3,1.3-1L68-99.9c14.4-0.7,24.7-4.1,28.7-19c4-14.8-0.3-26.4-14.1-26.4
				c-6.4,0-12.4,2-18.5,2.8c-0.9,0.1-1.5,0.7-1.2,1.5c0.6,2.1,2.5,4.1,5.1,5L55.5-90.5C54.4-86.1,56.9-81.8,61.8-81z M77.3-134.5
				c0.2-0.8,0.3-1.6,0.1-2.5c1.7-0.4,3.4-0.7,5.1-0.7c5.5,0,9.2,7.9,4.6,18c-3.6,8.2-8.4,11.8-17.3,12.9L77.3-134.5z"/>
		</g>
	</g>
</g>
<g>
	<g transform="translate(192.795662, 186.784602)">
		<g>
			<path class="st0" d="M66.6-76.8c0.4,0,0.7-0.4,0.9-1l12.3-40l5.1-0.9c1.3-0.3,2.2,0.7,1.9,2l-4.5,14.8
				c-3.9,12.9-0.9,21.4,7.5,21.4c8.8,0,13.5-6,16.6-16.7c0.5-1.9-0.1-3.3-2-4.5c-0.3-0.2-0.6-0.1-0.7,0.3
				c-3.8,12.5-7.9,13.6-10.8,13.6c-3.6,0-3.8-2.6-2-9.4l4.5-16.8c2.4-9.1,0.9-12.4-3.7-12.8c-4.4,0-10.9,4.2-12,4.4
				c1.9-1.9,3.9-10.9-0.5-10.9c-3.9,0-5.8,2.7-6.9,6.2c-1,2.9-1.4,6.7,1,9.8L62.7-87.7C60.4-81.2,62.9-77.2,66.6-76.8z"/>
		</g>
	</g>
</g>
<g>
	<g transform="translate(219.702235, 186.784602)">
		<g>
			<path class="st0" d="M91.4-130.3c0.6,0.2,1.2-0.2,1.5-0.7l2.6-6.8c1.6-4.1-0.7-7.9-4.8-9l-1.4-0.4c-0.7-0.2-1.3,0.2-1.5,0.7
				l-2.6,6.8c-1.5,3.9,0.8,7.6,4.7,8.9L91.4-130.3z M82-80.3c8.8,0,13.2-6.6,16.6-16.7c0.5-1.8-0.1-3.2-2-4.5
				c-0.3-0.2-0.6-0.1-0.7,0.4C92-88.8,87.9-87.7,85.1-87.7c-3.6,0-4.1-2.6-2-9.4c1.8-5.6,3.6-11.2,5.2-16.8
				c2.9-9.9,0.1-12.8-5.3-12.8c-0.5,0-1,0.4-1.2,0.9c-2.4,8-4.6,16-7.3,24C70.2-88.9,73.2-80.3,82-80.3z"/>
		</g>
	</g>
</g>
<g>
	<g transform="translate(234.056854, 186.784602)">
		<g>
			<path class="st0" d="M117.9-101.6c-0.3-0.2-0.6-0.1-0.7,0.3c-2.9,9.2-9.1,13.4-14.2,14.7c2-2.7,3.8-6.6,4.3-13.9
				c0.2-5.4-0.3-15-4.3-22.1c1.5-2,2.3-3.9,2.7-5.7c0.6-3.1-1.2-4-4.3-4c-3.2,0-5.4,2.2-6.5,5.5c-1.4,4.1-5.3,10.6-14.3,26.6
				c-0.1-1-0.1-2-0.2-2.9c-0.1-0.8-0.7-1.4-1.4-1.3c-3.1,0.5-5.6,2.7-5.6,7.4c0,9.6,7.4,16.6,20.7,16.6c11.6,0,21.4-2.8,25.9-16.6
				C120.5-98.9,119.9-100.3,117.9-101.6z M89.3-85.7c-4.1,0-6.2-2.2-7.4-6l14.9-27.5C102.3-104.8,95.8-85.7,89.3-85.7z"/>
		</g>
	</g>
</g>
<g>
	<g transform="translate(260.829893, 186.784602)">
		<g>
			<path class="st0" d="M114.3-101.6c-0.3-0.2-0.6-0.1-0.7,0.4c-3.8,12.5-7.9,13.5-10.8,13.5c-3.6,0-5.9-2.6-3.8-9.4
				c3.6-11.2,5.2-15.1,7.7-23.1c1,0,2-0.1,2.8-0.1l5.6-0.2c0.9,0,1.5-0.5,1.2-1.3c-0.9-2.6-2.9-5.2-6.9-5.2h-0.9
				c0.1-0.4,0.2-0.8,0.4-1.2c2.8-9.8,0.1-12.8-5.4-12.8c-0.5,0-1,0.4-1.1,0.9c-1.6,5.5-2.9,9.8-4,13.5h-1.7c-2.2,0-3.7-0.1-5.2-0.1
				c-0.9,0-1.7,0.4-1.5,1.2c0.5,2.5,2.3,6,5.5,5.9h0.7c-1.7,5-3.4,10.1-5.9,17.9c-4,12.9-0.4,21.4,9.2,21.4
				c8.8,0,13.3-6.6,16.6-16.7C116.9-98.8,116.2-100.3,114.3-101.6z"/>
		</g>
	</g>
</g>
<g>
	<g transform="translate(278.188967, 186.784602)">
		<g>
			<path class="st0" d="M110.9-130.3c0.6,0.2,1.2-0.2,1.5-0.7l2.6-6.8c1.6-4.1-0.7-7.9-4.8-9l-1.4-0.4c-0.7-0.2-1.3,0.2-1.5,0.7
				l-2.6,6.8c-1.5,3.9,0.8,7.6,4.7,8.9L110.9-130.3z M101.5-80.3c8.8,0,13.2-6.6,16.6-16.7c0.5-1.8-0.1-3.2-2-4.5
				c-0.3-0.2-0.6-0.1-0.7,0.4c-3.8,12.5-7.9,13.5-10.8,13.5c-3.6,0-4.1-2.6-2-9.4c1.8-5.6,3.6-11.2,5.2-16.8
				c2.9-9.9,0.1-12.8-5.3-12.8c-0.5,0-1,0.4-1.2,0.9c-2.4,8-4.6,16-7.3,24C89.7-88.9,92.6-80.3,101.5-80.3z"/>
		</g>
	</g>
</g>
<g>
	<g transform="translate(292.543586, 186.784602)">
		<g>
			<path class="st0" d="M128.3-80.3c8.8,0,13.4-6,16.7-16.7c0.5-1.9-0.1-3.3-2.1-4.5c-0.3-0.2-0.6-0.1-0.7,0.3
				c-3.8,12.5-7.9,13.6-10.8,13.6c-3.6,0-3.8-2.6-2-9.4l4.5-16.8c2.5-9.2,0.8-12.5-3.9-12.8c-6.5-2.4-12.6-0.6-16,5.4
				c-0.5-3.3-1.6-6.3-5.1-6.4c-0.6,0-1.1,0.4-1.3,1L96.8-89.8c-1.2,4.4,1.2,8.5,6,9.4c0.8,0.2,1.4-0.3,1.6-1
				c7-30.3,12-38.7,19.3-39.6c1.1-0.2,2.7,0.9,2.3,2l-5.2,17.4C115.7-84.8,118.4-80.3,128.3-80.3z"/>
		</g>
	</g>
</g>
<g>
	<g transform="translate(323.456094, 186.784602)">
		<g>
			<path class="st0" d="M149.7-101.6c-0.3-0.2-0.6-0.1-0.7,0.4c-3.6,12.5-10.8,13.5-17.2,13.5c-5.8,0-10.3-2-11-8.2
				c0.6,0.2,1.3,0.2,2.1,0.4c6.9,1.2,14.8-2.3,19.9-12.6c4.8-9.8,1.4-19-7.5-18.7c-9.3-2.4-18.5,2.6-23,19
				c-6.8,24.9,10,27.4,16.4,27.4c13,0,20-6.6,23.1-16.7C152.2-98.9,151.6-100.3,149.7-101.6z M131.3-122.2c5.5,1.1,6.1,4.5,3.4,11.2
				c-2.9,6.2-5.1,9.4-13.6,8.8c0.2-1.4,0.6-2.9,1.1-4.5C125-116.4,127.2-121.8,131.3-122.2z"/>
		</g>
	</g>
</g>
<g>
	<g transform="translate(186.989321, 236.146214)">
		<g>
			<path class="st0" d="M80.4-64.4c10.6,0,15.8-4.4,18.6-12.1c1.7-4.7,0.5-8.7-2.2-10.6c-0.7-0.5-1.7,0-2,1
				c-3.3,11.4-8.5,16.5-13.9,15.3c-5.5,0.5-7.6-8.6-3.5-24.3C83-116.2,89-123,96.4-123c3,0,3.5,3.6,0.4,15.6
				c-0.4,1.6-1.3,6.5,4.8,7.9c0.6,0.1,1.1-0.2,1.4-0.7c8.5-18.1,6.9-30-8.2-28.8c-13.2-2-22.1,10.8-27.9,34
				C62.5-76.7,67.4-64.4,80.4-64.4z"/>
		</g>
	</g>
</g>
<g>
	<g transform="translate(219.103617, 236.146214)">
		<g>
			<path class="st0" d="M84-63.9c8.8,0,13.2-6.6,16.6-16.7c0.5-1.8-0.1-3.2-2.1-4.5c-0.2-0.2-0.6-0.1-0.7,0.4
				C94-72.3,90-71.2,87.1-71.2c-3.6,0-4.1-2.6-2-9.4l11.5-38.1c2.8-9.8,0.1-12.8-5.3-12.8c-0.5,0-1,0.4-1.2,0.9L76.5-85.3
				C71.1-68,74.1-63.9,84-63.9z"/>
		</g>
	</g>
</g>
<g>
	<g transform="translate(235.127378, 236.146214)">
		<g>
			<path class="st0" d="M120.2-85.1c-0.3-0.2-0.6-0.1-0.7,0.4c-3.6,12.5-10.8,13.5-17.2,13.5c-5.8,0-10.3-2-11-8.2
				c0.6,0.2,1.3,0.2,2.1,0.4c6.9,1.2,14.8-2.3,19.9-12.6c4.8-9.8,1.4-19-7.5-18.7c-9.2-2.4-18.5,2.6-23,19
				c-6.8,24.9,10,27.4,16.4,27.4c13,0,20-6.6,23.1-16.7C122.8-82.5,122.2-83.9,120.2-85.1z M101.9-105.8c5.5,1.1,6.1,4.5,3.4,11.2
				c-2.9,6.2-5.1,9.4-13.6,8.8c0.2-1.4,0.6-2.9,1.1-4.5C95.6-100,97.8-105.3,101.9-105.8z"/>
		</g>
	</g>
</g>
<g>
	<g transform="translate(263.369263, 236.146214)">
		<g>
			<path class="st0" d="M134.9-85.1c-0.2-0.2-0.6-0.1-0.7,0.3c-3.8,12.5-7.9,13.6-10.8,13.6c-3.6,0-4-2.6-2-9.4l5.2-17.6
				c2.9-9.7,0.6-12.8-4.7-12.8c-0.5,0-1,0.4-1.2,0.9l-1.1,3.4c-1.5-3.3-4.3-4.7-6.9-3.8c-10.2-0.8-17,7.9-21,21.3
				c-5.4,18.2,1,29.3,13.6,24c1.9,0,3.5-1.4,5-3.6c1.1,3.8,4.5,5.1,9.8,5.1c8.8,0,13.4-6.6,16.6-16.7
				C137.5-82.5,136.8-83.9,134.9-85.1z M103-69.8c-4.9-2.3-4.2-9.8-1.6-18.4c3.4-11.2,8-16.6,12-16.6c4.2,0,3.9,5.1,1.4,13.2l-2,6.4
				c-0.7,2.1-1.2,4-1.7,5.8C109.2-73.8,105.8-69.1,103-69.8z"/>
		</g>
	</g>
</g>
<g>
	<g transform="translate(295.550321, 236.146214)">
		<g>
			<path class="st0" d="M129.3-63.9c8.8,0,13.4-6,16.7-16.7c0.5-1.9-0.1-3.3-2.1-4.5c-0.3-0.2-0.6-0.1-0.7,0.3
				c-3.8,12.5-7.9,13.6-10.8,13.6c-3.6,0-3.8-2.6-2-9.4l4.5-16.8c2.5-9.2,0.8-12.5-3.9-12.8c-6.5-2.4-12.6-0.6-16,5.4
				c-0.5-3.3-1.6-6.3-5.1-6.4c-0.6,0-1.1,0.4-1.3,1L97.8-73.4c-1.2,4.4,1.2,8.5,6,9.4c0.8,0.2,1.4-0.3,1.6-1
				c7-30.3,12-38.7,19.3-39.6c1.1-0.2,2.7,0.9,2.3,2l-5.2,17.4C116.7-68.3,119.4-63.9,129.3-63.9z"/>
		</g>
	</g>
</g>
<path class="st0" d="M211.1,143.9c-0.8-1.6-1.9-3-3.5-3.9c-0.4-0.1-0.4-0.1-0.7-0.2c0-0.3,0-0.5,0-0.8c-0.4-0.1-0.8-0.3-1.2-0.4
	c0-0.3,0-0.5,0-0.8c-2.7-1.8-5-4.4-7-6.9c-0.7-0.8-0.7-0.8-1.3-1.4c-0.4-0.1-0.8-0.3-1.2-0.4c0-0.3,0-0.5,0-0.8
	c-0.5-0.6-0.5-0.6-1.2-1.2c-1-0.9-1.6-1.8-2.1-3c1.1-1,2-2.1,2.9-3.3c0.2-1.6,0.2-1.6,0-2.9c-0.8-1.2-0.8-1.2-1.8-1.9
	c-0.4-0.2-0.8-0.5-1.2-0.8c-0.7-0.4-0.7-0.4-1.4-0.8c-1.2-0.8-2.5-1.5-3.7-2.2c-0.4-0.2-0.4-0.2-0.8-0.5c-6.8-4.2-13.3-9-19.6-13.9
	c-1.5-1.1-2.9-2.2-4.4-3.2c-3.2-2-6.1-4.2-9.1-6.6c-0.9-0.7-1.7-1.3-2.6-2c-3.8-2.9-7.5-5.7-10.6-9.3c-0.5-0.6-1-1.2-1.5-1.7
	c-5.2-5.2-8.8-11.6-12.5-18c-1.1-2-2.2-3.9-3.4-5.8c-0.3-0.5-0.6-0.9-0.9-1.4c-0.6-0.9-1.2-1.8-1.8-2.8c-1.6-2.4-3.1-4.3-2.5-7.3
	c0.5-1.8,0.7-3.5,0.8-5.4c0-0.4,0-0.7,0-1c0-5.5-0.9-11.5-3.6-16.3c-1.6-1.6-1.6-1.6-6.3-2.8c-0.4-0.1-0.8-0.2-1.2-0.3
	c-0.9-0.2-1.7-0.4-2.6-0.6c-1.3-0.3-2.7-0.7-4-1c-7.8-2-15.6-3.8-23.4-5.2c-2.2-0.4-4.3-0.8-6.5-1.2c-1.8-0.5-3.6-0.9-5.4-1.2
	c-5.5-0.5-7,1.2-8.2,6.6c-0.1,0.3-0.1,0.7-0.2,1c-0.5,2.5-1.1,5.2-0.8,7.8c0.8,0.8,0.8,0.8,1.7,1.3c0.2,0.1,0.5,0.2,0.8,0.4
	c0,0.3,0,0.5,0,0.8c-0.9,0.2-0.9,0.2-2.1,0.8c-2.5,2.2-4,5.1-4.3,8.4c-0.1,2,0.1,3.2-1.2,4.8c-1.2,1-1.8,1.8-2.5,3.2
	c-1.1,3.8-0.4,7.2,1.4,10.5c0.8,1.4,1.2,2.2,1.1,3.8c-0.3,1.2-0.3,1.2-0.3,2.5c0,0.4,0,0.9,0,1.3c0,1.8,0,3,1,4.5
	c1.5,2.2,2.1,3.7,2,6.4c0,0.9-0.1,1.9-0.1,2.8c0.7,2.1,1.7,3.9,3.4,5.3c1.1,0.8,2.2,1.7,3.2,2.6c0.4,0.3,0.4,0.3,0.8,0.6
	c1.3,1,2.5,1.7,2.8,3.4c-7.1,14.4-7.1,14.4-20.6,23.9c-3.8,2.7-7.3,5.7-10.7,9c-0.3,0.3-0.7,0.7-1,1c-4.9,4.5-8.4,10-11.6,15.8
	c-0.2,0.3-0.3,0.6-0.5,0.9c-0.3,0.5-0.5,1-0.8,1.5c-5,9.9-6.2,20.7-2.9,31.4c1.3,2.8,1.2,4,0.3,7c-1.4,4.2-2.7,8.6-1.1,12.9
	c3.7,6,3.7,6,17.6,10.6c1,0.3,1.9,0.6,2.8,1c3.5,1.2,7.1,2.4,10.7,3.5c1.8,0.5,3.6,1.1,5.3,1.7c3.1,1.1,6.2,2,9.3,2.9
	c0.5,0.2,1.1,0.3,1.6,0.5c4,1.2,8.2,2.5,12.2,1c6-3.5,6-3.5,11.3-19.3c1.2-3.7,2.6-7,4.8-10.2c3.5-5,6.1-10.5,8.5-16.1
	c0.1-0.3,0.2-0.6,0.4-0.9c0.6-1.3,1.1-2.6,1.6-4c2.4-7,4.4-14.7,1-21.7c-1.2-2.4-2.5-4.6-2.2-7.3c0.3-1.7,0.5-3.3,0.6-5.1
	c0.1-1.5,0.1-2.9,0.2-4.3c0.4-1.4,0.5-2.7,0.5-4.2c0-0.3,0-0.6,0-0.9c0-0.6,0-1.2,0-1.8c0-0.5,0-1,0-1.4c1.5,0.9,1.5,0.9,2.7,2.2
	c0.4,0.4,0.4,0.4,0.8,0.8c0.5,0.5,1,1,1.6,1.6c0.8,0.8,1.7,1.7,2.5,2.5c3.2,3.1,6.2,6.3,9,9.7c0.7,0.9,1.5,1.7,2.2,2.6
	c7.4,8.4,14,18.1,19.4,27.9c1.1,2,2.2,4.1,3.5,5.9c1.2,1,1.5,1.2,2.9,1.3c1.8-0.3,2.5-0.7,3.7-2c1.4-1.4,2.3-2.2,4.2-2.9
	c5.2,5.3,10.5,10.7,16,15.7c0.3,0.3,0.3,0.3,0.6,0.6c1,1,2.1,1.9,3.2,2.9c0.7,0.6,1.4,1.2,2,1.8c1.3,1.2,2.6,2.3,3.9,3.5
	c1.3,1.1,2.6,2.2,3.8,3.4c2.9,2.7,5.9,5.4,8.9,8c0.8,0.6,1.5,1.2,2.2,1.9c2.1,1.8,4.2,3.7,6.4,5.4c0.4,0.3,0.8,0.6,1.2,0.9
	c1.2,0.9,1.9,1.3,3.3,1.6c1.2-0.2,1.2-0.2,2.3-1.2c1.2-1.5,1.2-1.5,1.2-5.1c0-0.5,0-0.9,0-1.4c0-1,0-2,0-3c0-1.6,0-3.2,0-4.8
	c0-2.2,0-4.3,0-6.5c0-3.5,0-6.9,0.1-10.4c0-0.5,0-1.1,0-1.6c0.2-5.5,0.5-10.9,1-16.4C211,151.6,211.4,147.7,211.1,143.9z M67.9,23.4
	c0-0.4,0.1-0.9,0.1-1.3c0-0.5,0.1-0.9,0.1-1.4c0-0.5,0.1-0.9,0.1-1.4c0.3-3.6,0.8-7.2,1.2-10.8c0.2,0,0.5,0.1,0.8,0.2
	c2.2,0.4,4.3,0.8,6.5,1.1c1.8,0.2,3.5,0.5,5.3,0.9c0.4,0.1,0.8,0.1,1.1,0.2c0.8,0.2,0.8,0.2,1.2,0.6c0.7,0.2,1.4,0.3,2.1,0.5
	c0.4,0.1,0.9,0.2,1.3,0.2c0.5,0.1,0.9,0.2,1.4,0.2c3.6,0.7,7.1,1.5,10.6,2.5c1,0.3,2,0.5,3.1,0.8c0.3,0,0.5,0.1,0.8,0.2
	c0.6,0.1,1.2,0.2,1.9,0.4c1,0.2,1.9,0.4,2.8,0.6c0.3,0,0.6,0.1,0.9,0.2c1.6,0.3,2.3,0.6,3.5,1.8c0.9,1.8,1.4,3.5,1.8,5.5
	c0.1,0.4,0.2,0.8,0.3,1.2c1,4.5,1.5,9.6-0.2,14c-1.2-0.2-2.1-0.6-3.1-1.3c-0.4-0.2-0.4-0.2-0.8-0.5c-0.3-0.2-0.6-0.4-0.9-0.5
	c-2.9-1.9-5.8-3.4-9-4.7c-0.3-0.1-0.5-0.3-0.8-0.4c-3.2-1.5-7.9-1.2-11.3-0.4c-5.5,1.9-9.3,6.3-12.8,10.7c-0.1-0.2-0.1-0.5-0.2-0.7
	c-1.5-5.4-3.8-10.7-7.6-15C67.7,25.4,67.8,24.8,67.9,23.4z M60.5,11.1c0.1-0.6,0.2-1.2,0.4-1.8c0.4-1.9,0.4-1.9,1.7-2
	c1.5,0.1,2.6,0.4,4,0.9c0.1,2.6-0.1,5-0.5,7.5c0,0.3-0.1,0.6-0.1,1c-0.3,2.3-0.3,2.3-0.8,2.8c-2,0.2-3.9,0.2-5.7-0.8
	C59.7,15.9,59.9,13.6,60.5,11.1z M58.3,26c2-1.4,3.4-2.1,5.8-1.7c1.9,1.4,3.3,2.9,4.6,4.9c0.2,0.2,0.4,0.5,0.5,0.8
	c1.4,2,2.4,4.1,3.2,6.5c0.2,0.5,0.2,0.5,0.5,1.1c0.5,1.9,0.5,3.7,0.5,5.7c0,0.4,0,0.8,0,1.2c0,2.8,0,2.8-0.5,3.3
	c-1.9,0.4-3.5,0.3-5.3-0.6c-1.2-0.9-2.3-1.8-3.5-2.8c-0.4-0.3-0.8-0.7-1.2-1c-3-2.6-6.9-6.2-7.2-10.3C55.9,30.5,56.7,28,58.3,26z
	 M51.4,42.2c0.4-2.2,1.6-4.5,4-4.5c0.4,0.6,0.8,1.1,1.1,1.7c2.3,3.5,5.5,5.9,8.9,8.3c0.3,0.2,0.6,0.5,1,0.7c1.9,1.3,3.4,1.7,5.7,1.8
	c-0.1,0.2-0.2,0.4-0.3,0.7c-1,2.6-1.1,4.9-1,7.7c-6-1-13-3.6-17.1-8.3C51.9,47.7,51.2,45.3,51.4,42.2z M55.4,62.2
	c-1-1.7-1.4-2.7-1.4-4.7c0-0.4,0-0.8,0-1.2c0.1-1,0.1-1,1-1.9c1.5,0.6,3,1.2,4.4,2c3.7,1.9,7.2,3.6,11.4,4.2
	c1.9,0.3,2.8,0.7,4.2,2.1c0.9,0.5,1.7,1,2.6,1.6c0.8,0.5,0.8,0.5,1.6,1.8c0.3,2.2,0.4,4-0.9,5.9c-1.5,1-2.3,0.9-4.1,0.8
	c-5.5-1.5-15-4.9-18.2-9.8C55.7,62.6,55.6,62.4,55.4,62.2z M62.2,76.8c-0.2-0.2-0.5-0.5-0.8-0.7c-2.2-1.9-4.2-4-4.5-7
	c0.2-1.1,0.2-1.1,0.6-1.5c1.7,0.5,3.2,1.2,4.8,2c4,2,8,3.8,12.3,4.9c0.8,0.2,0.8,0.2,1.2,0.6c0.2,1.6,0.1,2.3-0.8,3.7
	c-1.4,1.4-2.5,1.4-4.3,1.4c-0.6,0-0.6,0-1.2,0C66.3,80,64.5,78.8,62.2,76.8z M100.4,138c3,7.6-0.8,16.8-3.8,23.8
	c-2.3,5.2-5,10.2-8,14.9c-2.3,3.8-4.1,7.4-5.5,11.6c-4.7,13.8-4.7,13.8-9.4,16.8c-4.2,1.1-8.4-0.5-12.4-1.8
	c-0.5-0.2-1.1-0.3-1.6-0.5c-3.2-1-6.5-2-9.7-3.1c-2.6-0.9-5.2-1.7-7.9-2.5c-1.5-0.5-3-1-4.5-1.6c-1.9-0.8-3.9-1.4-5.8-2
	c-10.2-3.2-10.2-3.2-13-7.2c-1.5-4.1-0.8-7.7,0.9-11.6c1.5-3.8,0.7-6.2-0.8-9.9c-3-8.2-1.5-18.3,2-26.2c2-4.2,4.4-8.1,7.1-11.9
	c0.2-0.2,0.3-0.5,0.5-0.8c4.9-6.9,11.3-12.5,18.3-17.2c2.9-2,5.6-4.2,8.2-6.6c0.3-0.2,0.6-0.5,0.9-0.8c3.5-3,6.7-5.8,8.7-10
	c0.2-0.5,0.4-1,0.7-1.4c1.1-2.4,2-4.8,2.7-7.3c0.4,0,0.7-0.1,1.1-0.1c3.6-0.4,3.6-0.4,6.8-2C77,79,77.5,78,77.4,76
	c0-1.6,0-1.6,1.2-2.8c0.4-0.3,0.9-0.6,1.3-0.9c1.2-1.9,1.1-4.1,0.6-6.3c-0.2-0.7-0.4-1.4-0.6-2c0.3-0.1,0.6-0.2,1-0.4
	c2.8-1.1,5.1-2.3,7.4-4.2c2-1.7,2-1.7,2.5-1.7c0,0.3,0,0.6,0,0.9c0.3,7.4,1,13.4,6.2,19.1c0.5,0.3,0.9,0.7,1.3,1
	c1.3,1.3,1.4,2.5,1.4,4.3c0,1.1,0,2.1-0.1,3.2c0,0.5,0,1.1,0,1.6c0,2.1-0.1,4.2-0.4,6.3c-0.2,2-0.3,4-0.3,6c0,0.8,0,1.6,0,2.4
	c0,0.4,0,0.8,0,1.2c-0.1,7.2-0.4,14.2-1.1,21.3c-0.1,0.8-0.1,0.8-0.2,1.6c0,0.5-0.1,0.9-0.2,1.4c-0.1,2.7,0.5,4.8,1.6,7.2
	c0.3,0.6,0.6,1.3,0.9,1.9C100.2,137.5,100.2,137.5,100.4,138z M148.8,159.9c-0.3,0.3-0.3,0.3-0.6,0.7c-0.2,0.2-0.4,0.5-0.5,0.7
	c0,0-0.1,0.1-0.1,0.1c-0.5,0.4-0.6,0.5-1.2,0.4c-0.1,0-0.2,0-0.3-0.1c-1.2-0.6-1.6-1.5-2.3-2.8c-0.1-0.2-0.3-0.5-0.4-0.8
	c-0.3-0.5-0.6-1.1-0.9-1.6c-0.8-1.4-1.6-2.8-2.4-4.2c-0.2-0.3-0.3-0.5-0.5-0.8c-1.7-2.9-3.5-5.7-5.5-8.5c-0.2-0.2-0.3-0.5-0.5-0.7
	c-1.2-1.7-2.4-3.4-3.7-5.1c-0.2-0.2-0.4-0.5-0.6-0.8c-3-4-6.1-7.9-9.4-11.7c-0.4-0.5-0.4-0.5-0.8-1c-0.7-0.8-1.4-1.6-2.1-2.4
	c-0.2-0.3-0.5-0.6-0.8-0.9c-3.3-3.7-6.8-7.5-10.6-10.7c-0.2-0.2-0.5-0.5-0.8-0.7c-0.7-0.6-0.7-0.6-1.6-1.2c-1.2-0.9-1.9-1.6-2.2-3.1
	c0,0,0-0.1,0-0.1c-0.2-2.7,0-5.4,0.3-8c0.4-2.6,0.4-5.2,0.5-7.9c0.1-1.8,0.1-3.5,0.4-5.2c0.1-0.5,0.6-0.8,1-0.6
	c1.2,0.5,1.4,0.5,2.2,0.9c0,0,0.1,0,0.1,0c0.5,0.2,1.1,0.3,1.6,0.3c0.8,0.1,1.2-1,0.5-1.4c-0.7-0.5-1.5-0.9-2.3-1.3
	c-5.1-2.7-9.4-7.2-11.4-12.7c0,0,0,0,0-0.1c-1.7-6.3-0.4-12.7,0.7-19c0.2-0.9-1.1-1.3-1.5-0.5c0,0,0,0,0,0c-0.2,0.4-0.3,0.7-0.5,1.1
	c-0.8,1.6-1.5,2.9-2.7,4.2c0,0-0.1,0.1-0.1,0.1l-0.5,0.9c0,0,0,0,0,0.1c-1.7,2.5-4.5,4.5-7.2,5.6c0,0-0.1,0-0.2,0
	c-1.8,0.3-3.4,0.2-5.1-0.5c-0.1,0-0.2-0.1-0.2-0.1c-2-1.7-3.2-2.8-3.5-5.4c0,0,0-0.1,0-0.1c0-2.3,1.1-4.1,2.2-6.1
	c0.2-0.4,0.4-0.8,0.6-1.2c3.3-6,7.2-11.5,13.8-14.2c0,0,0.1,0,0.1,0c6.2-1.7,11.5,0.8,16.7,3.8c5.2,3,9,6.3,12,11.5
	c0.4,0.7,0.8,1.4,1.2,2.1c0.3,0.5,0.3,0.5,0.6,1.1c1.8,3.1,3.5,6.1,5.4,9.1c0.5,0.8,0.9,1.5,1.4,2.3c5.7,9.6,12.7,17.2,21.5,24.1
	c0.3,0.2,0.6,0.5,1,0.8c3.8,2.9,7.6,5.7,11.5,8.4c2.5,1.8,5,3.6,7.5,5.5c3.2,2.5,6.5,4.9,9.9,7.1c0.5,0.3,1,0.7,1.5,1
	c2.2,1.5,4.5,3,6.9,4.4c0.3,0.2,0.7,0.4,1,0.6c0.7,0.4,1.4,0.8,2,1.2c0.3,0.2,0.6,0.4,0.9,0.5l0.8,0.4c0,0,0.1,0.1,0.1,0.1l0.3,0.2
	c0.2,0.1,0.2,0.3,0.2,0.6c0,1.3,0,1.4-0.7,2.1c0,0,0,0-0.1,0.1l-0.9,0.8c-0.3,0.3-0.7,0.6-1,0.9c-0.8,0.7-1.7,1.3-2.6,2
	c-2.4,1.7-4.5,3.8-6.6,5.8c-1.7,1.6-3.5,3.1-5.2,4.6c-3.2,2.7-6.2,5.5-9.3,8.3c-1.1,1-2.2,2-3.2,3c-0.2,0.2-0.4,0.4-0.6,0.6
	c-1.3,1.2-2.6,2.3-3.9,3.5C154.9,153.3,151.7,156.5,148.8,159.9z M208,151.9c-0.3,2.1-0.5,4.2-0.6,6.3c0,0.5-0.1,1-0.1,1.5
	c-0.5,7.7-0.6,15.5-0.8,23.2c0,2.2-0.1,4.4-0.1,6.5c-0.1,4.2-0.2,8.5-0.2,12.7c-1.8-0.3-2.7-0.8-4-2.1c-1.5-1.4-3-2.7-4.5-4
	c-2.2-1.8-4.3-3.7-6.5-5.6c-0.7-0.6-1.4-1.2-2.1-1.9c-1-1-2.1-1.9-3.2-2.8c-3.7-3.4-3.7-3.4-7.6-6.7c-3.9-3.2-7.5-6.8-11.1-10.4
	c-0.2-0.2-0.4-0.4-0.6-0.6c-0.6-0.6-1.1-1.1-1.7-1.7c-0.8-0.9-0.8-0.9-1.7-1.2c0-0.3,0-0.5,0-0.8c-0.2-0.1-0.5-0.2-0.8-0.3
	c-1-0.5-1.7-1.1-2.5-2c-0.3-0.3-0.5-0.5-0.8-0.8c-0.4-0.4-0.4-0.4-0.9-0.9c-0.3-0.3-0.6-0.6-0.9-0.9c-0.7-0.7-1.4-1.5-2.1-2.2
	c1.5-3.2,4.7-5.6,7.3-7.9c1.4-1.2,2.7-2.5,4.1-3.8c1.9-1.8,3.8-3.5,5.7-5.2c1-0.8,1.9-1.7,2.8-2.5c1.4-1.3,2.9-2.5,4.4-3.7
	c2.1-1.7,4-3.4,6-5.2c1.1-1,2.2-2,3.5-3c1.7,0.7,2.7,1.9,3.9,3.2c1.9,2.1,3.9,4.1,6,6c0.8,0.8,1.7,1.5,2.5,2.3
	c0.6,0.5,1.1,1,1.7,1.5c5.1,4.4,5.1,4.4,5.3,7.5C208.5,148.3,208.2,150.1,208,151.9z"/>
<path class="st0" d="M79.4,116.9c4.2,3.2,7.2,7.2,8.5,12.4c0.2,1.4,0.2,2.8,0.2,4.3c0,0.4,0,0.8,0,1.2c-0.2,6.1-2.7,10.8-7.1,15
	c-4.9,3.9-10.2,5.1-16.4,4.5c-5.5-1-10.5-4-13.7-8.6c-3.3-5.3-4.1-10.6-3.2-16.7c1.4-5.5,5-9.9,9.7-12.9
	C64.4,112.2,72.7,112.5,79.4,116.9z M53.7,122.8c-2.7,3.5-4.1,7.7-3.9,12c0.7,5,2.7,9.7,6.7,13c4.9,3.3,9.4,4.1,15.2,3.6
	c4.6-1.1,8.5-4,11.2-7.9c2.5-4.6,3.4-9.5,2-14.7c-1.7-4.7-4.5-8.3-8.9-10.6c-2.8-1.3-5.1-2-8.2-1.9c-0.5,0-0.5,0-1,0
	C61.4,116.4,57.2,118.8,53.7,122.8z"/>
<path class="st0" d="M45,134.7c0,0.8,0,1.7,0,2.5c-0.2,0-0.5,0-0.8,0c-4.2,0.3-7.6,1.8-10.5,5c-2,3.1-2.5,6.3-2.1,10
	c1.2,3.6,3,6.2,6.4,8c3.4,1.5,6.1,1.5,9.7,0.3c2.9-1.2,5.2-3.3,6.5-6.2c0.1-0.3,0.2-0.6,0.3-0.9c2,0.4,2,0.4,2.9,0.8
	c-1,3.5-3.7,6.4-6.7,8.3c-3.8,2-8,2.2-12.1,1.2c-3.7-1.3-7-4.2-8.7-7.7c-1.9-4.4-2.2-8.4-0.4-13c1.8-3.2,3.9-5.4,7.1-7.1
	c0.5-0.2,0.9-0.5,1.3-0.8C40.3,134.5,42.5,134.7,45,134.7z"/>
<path class="st0" d="M69.3,158.7c2,1.3,3.3,3,4.4,5.1c0.7,3.7,0.3,6.5-1.8,9.6c-1.5,1.7-3.3,2.6-5.4,3.3c-3,0.2-6.1-0.5-8.5-2.5
	c-2.5-2.8-3-5.1-2.9-8.8c0.2-2.7,1.5-4,3.4-5.8C61.7,157.1,65.4,156.8,69.3,158.7z M58.8,163.2c-1.2,1.7-1.3,3.1-1.1,5.2
	c0.7,2.2,1.8,3.8,3.7,5.1c2.1,0.9,4,0.5,6.2-0.1c1.8-1,2.5-2.1,3.5-3.8c0.6-2.3,0.2-4.2-0.9-6.3c-1.4-1.7-2.6-2.6-4.8-2.9
	C62.4,160.3,60.9,160.9,58.8,163.2z"/>
<path class="st0" d="M72.9,120.2c-0.1,0.7-0.3,1.4-0.4,2.1c-0.5,0-1,0-1.6-0.1c-4.4-0.1-7.9-0.2-11.3,2.9c-1.3,1.4-2.2,2.7-3,4.4
	c-0.8,1.5-0.8,1.5-1.6,1.8c-0.4,0-0.4,0-0.8,0.1c-0.3-0.3-0.5-0.5-0.8-0.8c0-3.1,2.3-5.6,4.2-7.8C61.4,119.1,68.2,117.1,72.9,120.2z
	"/>
<path class="st0" d="M43.2,140.1c0.5,0,1,0,1.5,0c0.5,0,0.5,0,1.1,0c0.1,1,0.3,1.9,0.4,2.9c-0.3,0-0.7,0-1-0.1
	c-2.5-0.1-4.4-0.2-6.3,1.5c-1.1,1.2-1.9,2.6-2.7,4c-0.5-0.1-1.1-0.3-1.7-0.4c-0.3-0.7-0.3-0.7-0.4-1.7c1.2-2.7,2.9-4.3,5.3-5.9
	C40.7,140,41.8,140.1,43.2,140.1z"/>
</svg>
