<?xml version="1.0" encoding="utf-8"?>
<!-- Generator: Adobe Illustrator 27.9.0, SVG Export Plug-In . SVG Version: 6.00 Build 0)  -->
<svg version="1.1" id="Layer_1" xmlns="http://www.w3.org/2000/svg" xmlns:xlink="http://www.w3.org/1999/xlink" x="0px" y="0px"
	 viewBox="0 0 500 202" style="enable-background:new 0 0 500 202;" xml:space="preserve">
<style type="text/css">
	.st0{fill:#2C50F6;}
</style>
<path class="st0" d="M192.8,135c-0.8-1.5-1.8-2.8-3.3-3.7c-0.4-0.1-0.4-0.1-0.7-0.2c0-0.3,0-0.5,0-0.8c-0.4-0.1-0.8-0.3-1.2-0.4
	c0-0.3,0-0.5,0-0.8c-2.6-1.7-4.7-4.2-6.7-6.6c-0.6-0.8-0.6-0.8-1.2-1.3c-0.4-0.1-0.8-0.3-1.2-0.4c0-0.3,0-0.5,0-0.8
	c-0.5-0.6-0.5-0.6-1.1-1.1c-1-0.9-1.5-1.7-2-2.8c1-1,1.9-2,2.8-3.2c0.2-1.5,0.2-1.5,0-2.8c-0.8-1.2-0.8-1.2-1.7-1.8
	c-0.4-0.2-0.8-0.5-1.2-0.7c-0.7-0.4-0.7-0.4-1.3-0.8c-1.2-0.7-2.3-1.4-3.5-2.1c-0.4-0.2-0.4-0.2-0.7-0.4c-6.5-4-12.6-8.5-18.6-13.2
	c-1.4-1.1-2.7-2.1-4.2-3.1c-3-1.9-5.8-4-8.7-6.3c-0.8-0.6-1.6-1.3-2.5-1.9c-3.6-2.7-7.2-5.5-10.1-8.9c-0.5-0.6-0.9-1.1-1.4-1.6
	c-4.9-5-8.4-11-11.8-17.1c-1-1.9-2.1-3.7-3.2-5.5c-0.3-0.4-0.6-0.9-0.8-1.3c-0.6-0.9-1.1-1.7-1.7-2.6c-1.5-2.3-3-4.1-2.4-6.9
	c0.5-1.7,0.7-3.3,0.7-5.1c0-0.4,0-0.7,0-1c0-5.2-0.8-10.9-3.4-15.5c-1.5-1.5-1.5-1.5-6-2.7c-0.4-0.1-0.8-0.2-1.1-0.3
	c-0.8-0.2-1.6-0.4-2.5-0.6c-1.3-0.3-2.5-0.6-3.8-0.9C80.8,7.8,73.4,6.1,66,4.8c-2.1-0.4-4.1-0.7-6.2-1.2c-1.7-0.4-3.4-0.9-5.1-1.2
	c-5.3-0.5-6.7,1.1-7.8,6.3c-0.1,0.3-0.1,0.7-0.2,1c-0.5,2.4-1.1,4.9-0.7,7.4c0.8,0.8,0.8,0.8,1.6,1.2c0.2,0.1,0.5,0.2,0.8,0.4
	c0,0.3,0,0.5,0,0.8c-0.8,0.2-0.8,0.2-2,0.8c-2.3,2.1-3.8,4.9-4.1,8c-0.1,1.9,0.1,3.1-1.2,4.6c-1.2,0.9-1.7,1.7-2.4,3
	c-1,3.6-0.4,6.8,1.3,10c0.8,1.3,1.2,2.1,1,3.6c-0.3,1.2-0.3,1.2-0.3,2.4c0,0.4,0,0.8,0,1.2c0,1.7,0,2.9,1,4.3c1.5,2.1,2,3.5,1.9,6.1
	c0,0.9-0.1,1.8-0.1,2.7c0.6,2,1.6,3.7,3.2,5.1c1,0.8,2.1,1.6,3.1,2.5c0.4,0.3,0.4,0.3,0.7,0.6c1.2,0.9,2.3,1.6,2.6,3.2
	C46.4,91,46.4,91,33.6,100.1c-3.6,2.6-7,5.4-10.1,8.5c-0.3,0.3-0.6,0.6-0.9,1c-4.6,4.3-8,9.5-11,15c-0.2,0.3-0.3,0.6-0.4,0.8
	c-0.3,0.5-0.5,0.9-0.8,1.4c-4.7,9.4-5.9,19.7-2.8,29.8c1.3,2.7,1.2,3.8,0.3,6.7c-1.3,4-2.6,8.2-1.1,12.3c3.5,5.7,3.5,5.7,16.7,10.1
	c0.9,0.3,1.8,0.6,2.7,0.9c3.4,1.2,6.7,2.3,10.1,3.3c1.7,0.5,3.4,1.1,5.1,1.6c2.9,1,5.9,1.9,8.8,2.8c0.5,0.2,1,0.3,1.5,0.4
	c3.8,1.1,7.8,2.4,11.6,0.9c5.7-3.3,5.7-3.3,10.7-18.3c1.2-3.5,2.5-6.7,4.6-9.7c3.3-4.8,5.8-9.9,8-15.3c0.1-0.3,0.2-0.6,0.4-0.8
	c0.6-1.3,1-2.5,1.5-3.8c2.3-6.7,4.2-14,0.9-20.7c-1.1-2.3-2.3-4.4-2.1-7c0.3-1.6,0.5-3.2,0.6-4.8c0.1-1.4,0.1-2.7,0.2-4.1
	c0.4-1.3,0.4-2.6,0.4-4c0-0.3,0-0.6,0-0.9c0-0.6,0-1.1,0-1.7c0-0.4,0-0.9,0-1.3c1.4,0.9,1.4,0.9,2.5,2.1c0.4,0.4,0.4,0.4,0.7,0.7
	c0.5,0.5,1,1,1.5,1.5c0.8,0.8,1.6,1.6,2.3,2.3c3,3,5.9,6,8.6,9.3c0.7,0.8,1.4,1.6,2.1,2.5c7,8,13.3,17.2,18.5,26.6
	c1.1,1.9,2.1,3.9,3.4,5.6c1.2,0.9,1.4,1.1,2.8,1.3c1.7-0.3,2.3-0.6,3.5-1.9c1.3-1.3,2.2-2.1,4-2.8c5,5,10,10.1,15.2,14.9
	c0.3,0.3,0.3,0.3,0.6,0.6c1,0.9,2,1.8,3,2.7c0.6,0.6,1.3,1.1,1.9,1.7c1.2,1.1,2.5,2.2,3.7,3.3c1.2,1.1,2.5,2.1,3.6,3.2
	c2.8,2.6,5.6,5.1,8.5,7.6c0.7,0.6,1.4,1.2,2.1,1.8c2,1.7,4,3.5,6.1,5.1c0.4,0.3,0.8,0.6,1.1,0.9c1.1,0.8,1.8,1.3,3.2,1.5
	c1.2-0.2,1.2-0.2,2.2-1.2c1.1-1.5,1.1-1.5,1.2-4.8c0-0.4,0-0.9,0-1.3c0-1,0-1.9,0-2.9c0-1.5,0-3,0-4.6c0-2.1,0-4.1,0-6.2
	c0-3.3,0-6.6,0.1-9.9c0-0.5,0-1,0-1.5c0.2-5.2,0.5-10.4,1-15.6C192.6,142.3,193,138.6,192.8,135z M56.7,20.5c0-0.4,0.1-0.8,0.1-1.2
	c0-0.4,0.1-0.9,0.1-1.3c0-0.4,0.1-0.9,0.1-1.3c0.3-3.4,0.7-6.8,1.2-10.3c0.2,0,0.5,0.1,0.8,0.2c2.1,0.4,4.1,0.7,6.2,1
	c1.7,0.2,3.4,0.5,5.1,0.8c0.4,0.1,0.7,0.1,1.1,0.2C72,8.8,72,8.8,72.4,9.1c0.7,0.2,1.3,0.3,2,0.4c0.4,0.1,0.8,0.2,1.3,0.2
	c0.4,0.1,0.9,0.2,1.3,0.2c3.4,0.7,6.7,1.4,10.1,2.3c1,0.3,1.9,0.5,2.9,0.7c0.3,0,0.5,0.1,0.8,0.2c0.6,0.1,1.2,0.2,1.8,0.4
	c0.9,0.2,1.8,0.4,2.7,0.6c0.3,0,0.6,0.1,0.9,0.2c1.5,0.3,2.2,0.6,3.3,1.7c0.8,1.7,1.3,3.4,1.7,5.2c0.1,0.4,0.2,0.7,0.3,1.1
	c0.9,4.3,1.5,9.1-0.2,13.3c-1.2-0.2-2-0.6-2.9-1.2C98,34.2,98,34.2,97.7,34c-0.3-0.2-0.6-0.4-0.8-0.5c-2.8-1.8-5.5-3.2-8.5-4.5
	c-0.3-0.1-0.5-0.3-0.8-0.4c-3.1-1.5-7.5-1.2-10.8-0.4c-5.3,1.8-8.8,6-12.2,10.2c-0.1-0.2-0.1-0.5-0.2-0.7
	c-1.5-5.1-3.6-10.2-7.2-14.3C56.5,22.3,56.5,21.7,56.7,20.5z M49.6,8.7C49.8,8.1,49.9,7.6,50,7c0.4-1.8,0.4-1.8,1.6-1.9
	c1.4,0.1,2.5,0.4,3.8,0.9c0.1,2.5-0.1,4.7-0.5,7.1c0,0.3-0.1,0.6-0.1,0.9c-0.3,2.2-0.3,2.2-0.7,2.7c-1.9,0.2-3.7,0.2-5.5-0.8
	C48.8,13.3,49,11.1,49.6,8.7z M47.5,23c1.9-1.3,3.2-2,5.5-1.6c1.8,1.3,3.1,2.8,4.4,4.6c0.2,0.2,0.4,0.5,0.5,0.8
	c1.3,1.9,2.3,3.9,3,6.1c0.2,0.5,0.2,0.5,0.4,1c0.5,1.8,0.5,3.5,0.4,5.4c0,0.4,0,0.7,0,1.1c0,2.7,0,2.7-0.5,3.1
	c-1.8,0.4-3.4,0.3-5-0.6c-1.2-0.8-2.2-1.7-3.3-2.6c-0.4-0.3-0.8-0.6-1.2-0.9C49,37,45.4,33.6,45,29.7C45.2,27.2,46,24.9,47.5,23z
	 M40.9,38.4c0.4-2.1,1.5-4.3,3.8-4.3c0.4,0.6,0.8,1.1,1.1,1.6c2.2,3.3,5.2,5.6,8.4,7.9c0.3,0.2,0.6,0.4,0.9,0.6
	c1.8,1.2,3.2,1.6,5.4,1.7c-0.1,0.2-0.2,0.4-0.3,0.6c-1,2.5-1.1,4.7-0.9,7.3c-5.7-0.9-12.3-3.4-16.2-7.9
	C41.4,43.5,40.8,41.2,40.9,38.4z M44.8,57.3c-0.9-1.6-1.3-2.6-1.3-4.5c0-0.4,0-0.8,0-1.1c0.1-1,0.1-1,0.9-1.8
	c1.5,0.6,2.8,1.2,4.2,1.9c3.5,1.8,6.9,3.4,10.8,4c1.8,0.3,2.7,0.7,4,2c0.8,0.5,1.6,1,2.5,1.5c0.7,0.5,0.7,0.5,1.5,1.7
	c0.3,2.1,0.4,3.8-0.8,5.6c-1.5,0.9-2.2,0.8-3.9,0.7c-5.2-1.4-14.3-4.7-17.3-9.3C45.1,57.8,44.9,57.6,44.8,57.3z M51.2,71.2
	c-0.2-0.2-0.5-0.4-0.8-0.6c-2.1-1.8-4-3.8-4.3-6.6c0.2-1,0.2-1,0.6-1.4c1.6,0.5,3.1,1.1,4.6,1.9c3.8,1.9,7.6,3.6,11.7,4.6
	c0.8,0.2,0.8,0.2,1.2,0.6c0.2,1.5,0.1,2.2-0.7,3.5c-1.3,1.3-2.4,1.3-4.1,1.3c-0.6,0-0.6,0-1.1,0C55.1,74.3,53.4,73.2,51.2,71.2z
	 M87.5,129.4c2.8,7.2-0.8,16-3.6,22.6c-2.2,4.9-4.8,9.7-7.6,14.2c-2.2,3.6-3.9,7-5.2,11c-4.5,13.1-4.5,13.1-8.9,16
	c-4,1-8-0.5-11.8-1.7c-0.5-0.2-1-0.3-1.5-0.5c-3.1-0.9-6.1-1.9-9.2-3c-2.5-0.8-5-1.6-7.5-2.4c-1.5-0.4-2.9-0.9-4.3-1.5
	c-1.8-0.8-3.7-1.3-5.5-1.9c-9.7-3.1-9.7-3.1-12.3-6.8c-1.5-3.9-0.8-7.4,0.8-11c1.5-3.6,0.7-5.9-0.8-9.4c-2.9-7.8-1.4-17.4,1.9-24.9
	c1.9-4,4.2-7.7,6.7-11.3c0.2-0.2,0.3-0.5,0.5-0.7c4.7-6.6,10.8-11.9,17.4-16.4c2.8-1.9,5.3-4,7.8-6.3c0.3-0.2,0.6-0.5,0.9-0.8
	c3.3-2.8,6.4-5.5,8.2-9.5c0.2-0.4,0.4-0.9,0.6-1.3c1-2.3,1.9-4.6,2.5-7c0.4,0,0.7-0.1,1-0.1c3.4-0.4,3.4-0.4,6.5-1.9
	c1.2-1.5,1.7-2.5,1.5-4.4c0-1.5,0-1.5,1.2-2.6c0.4-0.3,0.8-0.6,1.2-0.9c1.2-1.8,1.1-3.9,0.6-6c-0.2-0.6-0.4-1.3-0.6-1.9
	c0.3-0.1,0.6-0.2,0.9-0.4c2.7-1,4.8-2.2,7-4c1.9-1.6,1.9-1.6,2.4-1.6c0,0.3,0,0.6,0,0.8c0.3,7,0.9,12.8,5.9,18.2
	c0.4,0.3,0.8,0.6,1.3,0.9c1.3,1.3,1.3,2.3,1.3,4.1c0,1,0,2-0.1,3c0,0.5,0,1,0,1.5c0,2-0.1,4-0.4,6c-0.2,1.9-0.3,3.8-0.3,5.7
	c0,0.8,0,1.5,0,2.3c0,0.4,0,0.8,0,1.2c-0.1,6.8-0.4,13.5-1.1,20.3c-0.1,0.8-0.1,0.8-0.2,1.5c0,0.4-0.1,0.9-0.2,1.3
	c-0.1,2.5,0.5,4.5,1.5,6.8c0.3,0.6,0.6,1.2,0.8,1.8C87.3,128.9,87.3,128.9,87.5,129.4z M133.6,150.2c-0.3,0.3-0.3,0.3-0.6,0.6
	c-0.2,0.2-0.4,0.4-0.5,0.6c0,0-0.1,0.1-0.1,0.1c-0.5,0.4-0.6,0.4-1.1,0.4c-0.1,0-0.2,0-0.3-0.1c-1.2-0.6-1.5-1.5-2.2-2.7
	c-0.1-0.2-0.3-0.5-0.4-0.7c-0.3-0.5-0.6-1-0.9-1.5c-0.8-1.3-1.5-2.7-2.3-4c-0.2-0.3-0.3-0.5-0.4-0.8c-1.6-2.8-3.4-5.5-5.2-8.1
	c-0.2-0.2-0.3-0.4-0.5-0.7c-1.1-1.6-2.3-3.2-3.5-4.9c-0.2-0.2-0.4-0.5-0.6-0.8c-2.8-3.8-5.8-7.5-8.9-11.1c-0.4-0.4-0.4-0.4-0.8-0.9
	c-0.7-0.8-1.3-1.5-2-2.3c-0.2-0.3-0.5-0.6-0.8-0.9c-3.2-3.6-6.5-7.1-10.1-10.2c-0.2-0.2-0.5-0.4-0.7-0.6c-0.7-0.6-0.7-0.6-1.5-1.1
	c-1.2-0.8-1.8-1.5-2.1-3c0,0,0-0.1,0-0.1c-0.2-2.5,0-5.1,0.3-7.6c0.4-2.5,0.4-5,0.4-7.5c0.1-1.7,0.1-3.3,0.4-4.9
	c0.1-0.5,0.6-0.8,1-0.6c1.2,0.5,1.3,0.5,2.1,0.9c0,0,0.1,0,0.1,0c0.5,0.2,1,0.3,1.5,0.3c0.8,0.1,1.1-0.9,0.4-1.3
	c-0.7-0.4-1.4-0.8-2.2-1.2c-4.8-2.6-8.9-6.8-10.8-12c0,0,0,0,0-0.1c-1.6-6-0.4-12.1,0.7-18.1c0.2-0.8-1-1.2-1.4-0.4c0,0,0,0,0,0
	c-0.2,0.4-0.3,0.7-0.5,1c-0.7,1.5-1.5,2.7-2.5,4c0,0-0.1,0.1-0.1,0.1l-0.5,0.9c0,0,0,0,0,0.1c-1.6,2.4-4.2,4.3-6.9,5.3
	c0,0-0.1,0-0.2,0c-1.7,0.3-3.2,0.2-4.9-0.4c-0.1,0-0.2-0.1-0.2-0.1c-1.9-1.6-3-2.6-3.3-5.1c0,0,0-0.1,0-0.1c0-2.2,1.1-3.9,2.1-5.8
	c0.2-0.4,0.4-0.8,0.6-1.1c3.2-5.7,6.9-11,13.1-13.5c0,0,0.1,0,0.1,0c5.9-1.6,10.9,0.8,15.9,3.6c4.9,2.9,8.6,6,11.4,11
	c0.4,0.7,0.8,1.3,1.2,2c0.3,0.5,0.3,0.5,0.6,1.1c1.7,2.9,3.4,5.8,5.1,8.7c0.4,0.8,0.9,1.5,1.3,2.2c5.4,9.1,12.1,16.4,20.5,22.9
	c0.3,0.2,0.6,0.5,0.9,0.7c3.6,2.8,7.2,5.4,11,8c2.4,1.7,4.8,3.4,7.1,5.2c3.1,2.3,6.2,4.6,9.4,6.8c0.5,0.3,0.9,0.6,1.4,0.9
	c2.1,1.5,4.3,2.9,6.5,4.2c0.3,0.2,0.7,0.4,1,0.6c0.6,0.4,1.3,0.8,1.9,1.1c0.3,0.2,0.6,0.4,0.9,0.5l0.7,0.4c0,0,0.1,0.1,0.1,0.1
	l0.3,0.2c0.2,0.1,0.2,0.3,0.2,0.6c0,1.2,0,1.3-0.6,2c0,0,0,0-0.1,0.1l-0.9,0.8c-0.3,0.3-0.7,0.6-1,0.8c-0.8,0.6-1.6,1.3-2.5,1.9
	c-2.3,1.6-4.2,3.6-6.3,5.5c-1.6,1.5-3.3,2.9-5,4.4c-3,2.6-5.9,5.2-8.8,7.9c-1,1-2.1,1.9-3.1,2.9c-0.2,0.2-0.4,0.4-0.6,0.6
	c-1.2,1.1-2.5,2.2-3.7,3.3C139.3,143.9,136.3,146.9,133.6,150.2z M189.8,142.6c-0.3,2-0.4,4-0.6,6c0,0.4-0.1,0.9-0.1,1.4
	c-0.5,7.4-0.6,14.7-0.7,22.1c0,2.1-0.1,4.2-0.1,6.2c-0.1,4-0.2,8.1-0.2,12.1c-1.7-0.3-2.5-0.8-3.8-2c-1.4-1.3-2.8-2.6-4.3-3.8
	c-2.1-1.7-4.1-3.5-6.1-5.3c-0.7-0.6-1.3-1.2-2-1.8c-1-0.9-2-1.8-3-2.7c-3.6-3.2-3.6-3.2-7.2-6.3c-3.7-3.1-7.1-6.5-10.5-9.9
	c-0.2-0.2-0.4-0.4-0.6-0.6c-0.6-0.6-1.1-1.1-1.6-1.6c-0.8-0.8-0.8-0.8-1.6-1.2c0-0.3,0-0.5,0-0.8c-0.2-0.1-0.5-0.2-0.7-0.3
	c-1-0.5-1.6-1.1-2.3-1.9c-0.3-0.3-0.5-0.5-0.8-0.8c-0.4-0.4-0.4-0.4-0.8-0.8c-0.3-0.3-0.6-0.6-0.8-0.8c-0.7-0.7-1.3-1.4-2-2.1
	c1.4-3.1,4.4-5.3,7-7.5c1.3-1.2,2.6-2.4,3.9-3.6c1.8-1.7,3.6-3.3,5.4-4.9c0.9-0.8,1.8-1.6,2.7-2.4c1.3-1.2,2.7-2.4,4.2-3.5
	c2-1.6,3.8-3.2,5.7-5c1.1-1,2.1-1.9,3.3-2.8c1.6,0.6,2.6,1.8,3.7,3c1.8,2,3.7,3.9,5.7,5.7c0.8,0.8,1.6,1.5,2.4,2.2
	c0.6,0.5,1.1,1,1.6,1.5c4.8,4.2,4.8,4.2,5.1,7.1C190.3,139.2,190.1,140.9,189.8,142.6z"/>
<path class="st0" d="M67.6,109.3c4,3,6.8,6.9,8,11.8c0.2,1.3,0.2,2.7,0.2,4.1c0,0.4,0,0.7,0,1.1c-0.2,5.8-2.6,10.2-6.8,14.2
	c-4.7,3.7-9.7,4.8-15.6,4.3c-5.3-1-10-3.8-13-8.2c-3.1-5-3.9-10.1-3.1-15.9c1.3-5.2,4.7-9.4,9.2-12.2
	C53.3,104.9,61.2,105.2,67.6,109.3z M43.2,114.9c-2.5,3.3-3.9,7.3-3.7,11.4c0.6,4.8,2.6,9.3,6.3,12.4c4.6,3.2,8.9,3.9,14.4,3.4
	c4.4-1.1,8.1-3.8,10.7-7.5c2.4-4.4,3.2-9.1,1.9-14c-1.6-4.5-4.3-7.9-8.5-10.1c-2.7-1.2-4.9-1.9-7.8-1.8c-0.5,0-0.5,0-1,0
	C50.4,108.8,46.5,111.2,43.2,114.9z"/>
<path class="st0" d="M34.8,126.3c0,0.8,0,1.6,0,2.4c-0.2,0-0.5,0-0.8,0c-4,0.3-7.2,1.7-9.9,4.7c-1.9,3-2.4,6-2,9.5
	c1.2,3.4,2.9,5.9,6.1,7.6c3.2,1.5,5.8,1.4,9.2,0.3c2.7-1.2,5-3.2,6.2-5.9c0.1-0.3,0.2-0.6,0.3-0.9c1.9,0.4,1.9,0.4,2.8,0.8
	c-0.9,3.3-3.5,6.1-6.4,7.9c-3.6,1.9-7.6,2.1-11.5,1.1c-3.5-1.2-6.7-4-8.3-7.3c-1.8-4.2-2.1-8-0.4-12.4c1.7-3,3.7-5.1,6.7-6.7
	c0.4-0.2,0.8-0.5,1.3-0.8C30.4,126.1,32.5,126.2,34.8,126.3z"/>
<path class="st0" d="M58,149c1.9,1.2,3.2,2.8,4.2,4.9c0.6,3.5,0.3,6.1-1.7,9.1c-1.4,1.6-3.1,2.5-5.1,3.2c-2.8,0.2-5.8-0.5-8-2.3
	c-2.3-2.6-2.8-4.8-2.8-8.3c0.2-2.6,1.4-3.8,3.2-5.5C50.8,147.5,54.3,147.2,58,149z M48,153.4c-1.1,1.6-1.2,3-1.1,4.9
	c0.7,2.1,1.7,3.6,3.6,4.8c2,0.8,3.8,0.5,5.9-0.1c1.7-0.9,2.4-2,3.4-3.6c0.6-2.2,0.2-4-0.8-6c-1.3-1.6-2.5-2.5-4.6-2.7
	C51.4,150.6,50,151.2,48,153.4z"/>
<path class="st0" d="M61.4,112.4c-0.1,0.6-0.3,1.3-0.4,2c-0.5,0-1,0-1.5-0.1c-4.2-0.1-7.5-0.2-10.8,2.8c-1.2,1.3-2.1,2.6-2.8,4.2
	c-0.7,1.4-0.7,1.4-1.5,1.7c-0.4,0-0.4,0-0.8,0.1c-0.3-0.3-0.5-0.5-0.8-0.8c0-2.9,2.2-5.3,4-7.4C50.4,111.4,56.9,109.5,61.4,112.4z"
	/>
<path class="st0" d="M33.2,131.4c0.5,0,0.9,0,1.4,0c0.5,0,0.5,0,1.1,0c0.1,0.9,0.3,1.8,0.4,2.8c-0.3,0-0.6,0-1-0.1
	c-2.4-0.1-4.2-0.2-6,1.4c-1,1.1-1.8,2.5-2.6,3.8c-0.5-0.1-1-0.3-1.6-0.4c-0.3-0.6-0.3-0.6-0.4-1.6c1.1-2.5,2.8-4.1,5.1-5.6
	C30.8,131.3,31.9,131.3,33.2,131.4z"/>
<g>
	<g transform="translate(143.97266, 73.5527)">
		<g>
			<path class="st0" d="M57,25.3c0.7,0.1,1.3-0.3,1.5-1.1l5.5-20.4C80.5,3,92.2-0.9,96.8-18c4.6-16.9-0.3-30.2-16.2-30.2
				c-7.3,0-14.1,2.3-21.1,3.1c-1,0.1-1.7,0.8-1.4,1.7c0.7,2.5,2.9,4.7,5.8,5.7l-14,52.2C48.5,19.5,51.3,24.4,57,25.3z M74.7-35.8
				c0.2-0.9,0.3-1.8,0.1-2.9c1.9-0.4,3.9-0.8,5.8-0.8c6.3,0,10.5,9,5.3,20.5C81.7-9.5,76.4-5.5,66.2-4.1L74.7-35.8z"/>
		</g>
	</g>
</g>
<g>
	<g transform="translate(179.436148, 73.5527)">
		<g>
			<path class="st0" d="M62.5,30.2c0.4,0,0.8-0.5,1-1.1l14-45.7l5.8-1c1.5-0.3,2.5,0.8,2.1,2.4L80.4,1.6c-4.5,14.8-1,24.5,8.5,24.5
				c10.1,0,15.5-6.8,19-19.1c0.6-2.1-0.1-3.8-2.4-5.2c-0.3-0.2-0.7-0.1-0.8,0.3c-4.4,14.3-9,15.6-12.3,15.6c-4.1,0-4.4-3-2.2-10.7
				l5.2-19.2c2.8-10.4,1-14.1-4.2-14.6c-5.1,0-12.5,4.8-13.7,5c2.1-2.1,4.5-12.4-0.6-12.4c-4.5,0-6.6,3-7.9,7.1
				c-1.1,3.4-1.5,7.6,1.1,11.2l-12,33.7C55.4,25.1,58.3,29.7,62.5,30.2z"/>
		</g>
	</g>
</g>
<g>
	<g transform="translate(210.171177, 73.5527)">
		<g>
			<path class="st0" d="M90.8-30.9c0.7,0.2,1.4-0.2,1.7-0.8l2.9-7.7c1.8-4.7-0.8-9.1-5.5-10.3l-1.5-0.4c-0.8-0.2-1.5,0.2-1.7,0.8
				l-2.9,7.7c-1.7,4.5,0.9,8.8,5.4,10.2L90.8-30.9z M80,26.1c10.1,0,15.2-7.5,19-19.1c0.6-2-0.1-3.6-2.3-5.2
				c-0.3-0.2-0.7-0.1-0.8,0.4c-4.4,14.2-9.1,15.5-12.3,15.5c-4.1,0-4.7-3-2.2-10.7c2-6.4,4.1-12.8,5.9-19.2
				c3.2-11.3,0.1-14.6-6.1-14.6c-0.6,0-1.1,0.4-1.3,1c-2.8,9.1-5.3,18.3-8.4,27.5C66.6,16.4,70,26.1,80,26.1z"/>
		</g>
	</g>
</g>
<g>
	<g transform="translate(226.568271, 73.5527)">
		<g>
			<path class="st0" d="M121.1,1.9c-0.3-0.2-0.7-0.1-0.8,0.3C117,12.6,109.9,17.5,104,18.9c2.2-3.1,4.4-7.5,4.9-15.9
				c0.3-6.2-0.3-17.2-4.9-25.2c1.7-2.2,2.6-4.5,3-6.5c0.7-3.6-1.4-4.6-4.9-4.6c-3.7,0-6.1,2.5-7.4,6.3c-1.6,4.7-6,12.1-16.4,30.4
				c-0.1-1.1-0.1-2.2-0.2-3.4c-0.1-0.9-0.8-1.6-1.6-1.5C73-0.8,70.1,1.6,70.1,7c0,11,8.4,19,23.7,19c13.2,0,24.4-3.1,29.6-19
				C124,4.9,123.3,3.3,121.1,1.9z M88.4,20c-4.7,0-7.1-2.5-8.4-6.8l17-31.4C103.3-1.8,95.9,20,88.4,20z"/>
		</g>
	</g>
</g>
<g>
	<g transform="translate(257.150762, 73.5527)">
		<g>
			<path class="st0" d="M116.9,1.9c-0.3-0.2-0.7-0.1-0.8,0.4c-4.4,14.2-9,15.5-12.3,15.5c-4.1,0-6.7-3-4.3-10.7
				c4.2-12.8,5.9-17.3,8.8-26.4c1.1,0,2.2-0.1,3.2-0.1l6.4-0.2c1,0,1.7-0.6,1.4-1.5c-1-3-3.4-5.9-7.8-5.9h-1
				c0.1-0.5,0.3-0.9,0.4-1.4c3.2-11.2,0.1-14.6-6.1-14.6c-0.6,0-1.1,0.4-1.3,1c-1.8,6.3-3.2,11.2-4.6,15.5H97c-2.5,0-4.3-0.1-6-0.1
				c-1,0-1.9,0.4-1.7,1.3c0.6,2.8,2.6,6.8,6.3,6.7h0.8c-1.9,5.7-3.9,11.6-6.7,20.4c-4.6,14.8-0.4,24.5,10.6,24.5
				c10.1,0,15.1-7.5,19-19.1C119.9,5,119.2,3.4,116.9,1.9z"/>
		</g>
	</g>
</g>
<g>
	<g transform="translate(276.979812, 73.5527)">
		<g>
			<path class="st0" d="M113.1-30.9c0.7,0.2,1.4-0.2,1.7-0.8l2.9-7.7c1.8-4.7-0.8-9.1-5.5-10.3l-1.5-0.4c-0.8-0.2-1.5,0.2-1.7,0.8
				l-2.9,7.7c-1.7,4.5,0.9,8.8,5.4,10.2L113.1-30.9z M102.3,26.1c10.1,0,15.2-7.5,19-19.1c0.6-2-0.1-3.6-2.3-5.2
				c-0.3-0.2-0.7-0.1-0.8,0.4c-4.4,14.2-9.1,15.5-12.3,15.5c-4.1,0-4.7-3-2.2-10.7c2-6.4,4.1-12.8,5.9-19.2
				c3.2-11.3,0.1-14.6-6.1-14.6c-0.6,0-1.1,0.4-1.3,1c-2.8,9.1-5.3,18.3-8.4,27.5C88.9,16.4,92.2,26.1,102.3,26.1z"/>
		</g>
	</g>
</g>
<g>
	<g transform="translate(293.376906, 73.5527)">
		<g>
			<path class="st0" d="M133,26.1c10.1,0,15.2-6.9,19-19.1c0.6-2.1-0.1-3.8-2.4-5.2c-0.3-0.2-0.7-0.1-0.8,0.3
				c-4.4,14.3-9,15.6-12.3,15.6c-4.1,0-4.4-3-2.2-10.7l5.2-19.2c2.9-10.6,0.9-14.2-4.5-14.6c-7.4-2.8-14.3-0.7-18.3,6.2
				c-0.5-3.8-1.8-7.2-5.8-7.3c-0.7,0-1.3,0.5-1.5,1.1L97,15.3c-1.4,5,1.4,9.8,6.9,10.7c0.9,0.2,1.6-0.3,1.8-1.1
				c8-34.6,13.7-44.2,22.1-45.2c1.2-0.2,3,1,2.6,2.2l-6,19.8C118.5,21.1,121.7,26.1,133,26.1z"/>
		</g>
	</g>
</g>
<g>
	<g transform="translate(328.687867, 73.5527)">
		<g>
			<path class="st0" d="M157.4,1.9c-0.3-0.2-0.7-0.1-0.8,0.4c-4.1,14.2-12.3,15.5-19.6,15.5c-6.6,0-11.8-2.2-12.6-9.4
				c0.7,0.2,1.5,0.3,2.4,0.5c7.9,1.4,16.9-2.6,22.7-14.4c5.5-11.2,1.6-21.8-8.5-21.4c-10.6-2.8-21.1,3-26.2,21.8
				c-7.7,28.5,11.5,31.3,18.7,31.3c14.9,0,22.9-7.5,26.3-19.1C160.3,4.9,159.6,3.3,157.4,1.9z M136.4-21.8c6.3,1.3,6.9,5.2,3.9,12.8
				c-3.4,7.1-5.9,10.8-15.6,10.1c0.3-1.6,0.7-3.4,1.2-5.2C129.2-15.1,131.7-21.2,136.4-21.8z"/>
		</g>
	</g>
</g>
<g>
	<g transform="translate(172.800784, 130.552696)">
		<g>
			<path class="st0" d="M78.2,44.5c12.1,0,18-5,21.2-13.8c1.9-5.4,0.5-10-2.5-12.1c-0.8-0.6-1.9,0-2.2,1.1
				c-3.8,13-9.7,18.8-15.9,17.5c-6.3,0.6-8.6-9.9-4-27.8C81.2-14.6,88-22.4,96.5-22.4c3.5,0,4.1,4.2,0.5,17.8
				c-0.5,1.8-1.5,7.4,5.5,9.1c0.7,0.1,1.3-0.2,1.6-0.8c9.7-20.6,7.8-34.3-9.4-32.9C79.8-31.5,69.6-16.9,63,9.7
				C57.8,30.5,63.4,44.5,78.2,44.5z"/>
		</g>
	</g>
</g>
<g>
	<g transform="translate(209.48452, 130.552696)">
		<g>
			<path class="st0" d="M82.3,45.1c10.1,0,15.2-7.5,19-19.1c0.6-2-0.1-3.6-2.3-5.2c-0.3-0.2-0.7-0.1-0.8,0.4
				c-4.4,14.2-9.1,15.5-12.3,15.5c-4.1,0-4.7-3-2.2-10.7l13.1-43.5c3.2-11.2,0.1-14.6-6.1-14.6c-0.6,0-1.1,0.4-1.3,1L73.8,20.6
				C67.6,40.4,71.1,45.1,82.3,45.1z"/>
		</g>
	</g>
</g>
<g>
	<g transform="translate(227.788257, 130.552696)">
		<g>
			<path class="st0" d="M123.7,20.9c-0.3-0.2-0.7-0.1-0.8,0.4c-4.1,14.2-12.3,15.5-19.6,15.5c-6.6,0-11.8-2.2-12.6-9.4
				c0.7,0.2,1.5,0.3,2.4,0.5c7.9,1.4,16.9-2.6,22.7-14.4c5.5-11.2,1.6-21.8-8.5-21.4C96.7-10.7,86.1-5,81,13.8
				c-7.7,28.5,11.5,31.3,18.7,31.3c14.9,0,22.9-7.5,26.3-19.1C126.7,23.9,126,22.3,123.7,20.9z M102.8-2.8c6.3,1.3,6.9,5.2,3.9,12.8
				c-3.4,7.1-5.9,10.8-15.6,10.1c0.3-1.6,0.7-3.4,1.2-5.2C95.6,3.9,98.1-2.2,102.8-2.8z"/>
		</g>
	</g>
</g>
<g>
	<g transform="translate(260.048589, 130.552696)">
		<g>
			<path class="st0" d="M140.5,20.9c-0.3-0.2-0.7-0.1-0.8,0.3c-4.4,14.3-9,15.6-12.3,15.6c-4.1,0-4.6-3-2.2-10.7l6-20.1
				c3.2-11.1,0.7-14.6-5.4-14.6c-0.6,0-1.1,0.4-1.3,1l-1.2,3.9c-1.7-3.8-4.9-5.4-7.8-4.4c-11.7-0.9-19.4,9-24,24.3
				c-6.2,20.8,1.1,33.5,15.5,27.5c2.1,0,4-1.6,5.7-4.2c1.3,4.4,5.2,5.8,11.2,5.8c10.1,0,15.3-7.5,19-19.1
				C143.4,23.9,142.7,22.3,140.5,20.9z M104.1,38.3c-5.6-2.6-4.8-11.2-1.8-21c3.9-12.8,9.1-19,13.7-19c4.8,0,4.5,5.9,1.6,15
				l-2.3,7.3c-0.8,2.4-1.4,4.6-1.9,6.6C111.2,33.7,107.2,39.1,104.1,38.3z"/>
		</g>
	</g>
</g>
<g>
	<g transform="translate(296.808589, 130.552696)">
		<g>
			<path class="st0" d="M134.1,45.1c10.1,0,15.3-6.9,19-19.1c0.6-2.1-0.1-3.8-2.4-5.2c-0.3-0.2-0.7-0.1-0.8,0.3
				c-4.4,14.3-9,15.6-12.3,15.6c-4.1,0-4.4-3-2.2-10.7l5.2-19.2c2.9-10.6,0.9-14.2-4.5-14.6c-7.4-2.7-14.3-0.7-18.3,6.2
				c-0.5-3.8-1.8-7.2-5.8-7.3c-0.7,0-1.3,0.5-1.5,1.1L98.1,34.3c-1.4,5,1.4,9.8,6.9,10.7c0.9,0.2,1.6-0.3,1.8-1.1
				c8-34.6,13.7-44.2,22.1-45.2c1.2-0.2,3,1,2.6,2.2l-6,19.8C119.7,40.1,122.8,45.1,134.1,45.1z"/>
		</g>
	</g>
</g>
</svg>
