<?xml version="1.0" encoding="utf-8"?>
<!-- Generator: Adobe Illustrator 27.9.0, SVG Export Plug-In . SVG Version: 6.00 Build 0)  -->
<svg version="1.1" id="Layer_1" xmlns="http://www.w3.org/2000/svg" xmlns:xlink="http://www.w3.org/1999/xlink" x="0px" y="0px"
	 viewBox="0 0 500 217.8" style="enable-background:new 0 0 500 217.8;" xml:space="preserve">
<style type="text/css">
	.st0{clip-path:url(#SVGID_00000098911425872169215960000011972479681043524493_);}
	.st1{fill:#080808;}
	.st2{clip-path:url(#SVGID_00000045598984017254752680000013366990616994308530_);}
	.st3{fill:#231F20;}
</style>
<g>
	<defs>
		<rect id="SVGID_1_" x="5.8" width="434.2" height="186.1"/>
	</defs>
	<clipPath id="SVGID_00000181062250827239958640000009276326837153516732_">
		<use xlink:href="#SVGID_1_"  style="overflow:visible;"/>
	</clipPath>
	<g style="clip-path:url(#SVGID_00000181062250827239958640000009276326837153516732_);">
		<path class="st1" d="M65.2,184.8c-20.6-12.9-33-28.5-34.6-46.1C25.4,80.7,139.4,23.1,285.3,10c56.9-5.1,110.2-2.7,154.4,5.6
			c-42.6-9.8-92.2-15.5-145-15.5C135.2,0.1,5.8,51.5,5.8,115C5.8,141.3,28,165.5,65.2,184.8z"/>
	</g>
</g>
<g>
	<g transform="translate(35.848468, 221.06938)">
		<g>
			<path class="st1" d="M41.1-58.8c-7.1,0-12.8-1.7-17-5c-4.2-3.3-6.3-8.1-6.3-14.4c0-4.6,1-8.9,2.9-12.9c2-4.1,4.6-7.7,8-10.9
				c3.4-3.2,7.2-5.7,11.6-7.5c4.3-1.8,8.9-2.8,13.6-2.8c4.8,0,8.6,1.1,11.4,3.3c2.8,2.2,4.2,5.1,4.2,8.9c0,2.7-1.8,6.3-5.3,10.7
				c-3.6,4.4-5.3,5.8-5.3,4.4c0-0.4,0.1-0.7,0.4-1.1c2.9-4.3,4.4-8.3,4.4-12c0-3.4-1.1-6-3.2-8c-2.1-2-4.9-3-8.4-3
				c-3.8,0-7.5,0.9-11,2.8c-3.5,1.9-6.6,4.3-9.4,7.4c-2.7,3.1-4.9,6.5-6.4,10.3c-1.5,3.7-2.3,7.4-2.3,11.1c0,5,1.6,8.8,4.9,11.4
				c3.2,2.6,7.5,3.9,12.8,3.9c5.4,0,10.5-1,15.5-2.9c5-2,9.4-4.8,13.3-8.4c4.7-4.4,9.3-10.8,14.1-19.1l11.9-21.5
				c3.1-4.9,6.3-10.9,9.7-17.9c3.4-7,6.9-15,10.7-24c-13.1-0.2-25.9,1.1-38.3,3.8c-13.2,2.8-23,6.8-29.4,11.8
				c-2.7,2-4.1,4.1-4.1,6.3c0,1.9,1.1,3.5,3.2,4.7c2.1,1.2,4.9,1.9,8.1,1.9c1.9,0,4.2-0.3,6.8-0.8c2.6-0.6,5.2-1.3,7.6-2.3
				c2.5-1,4.3-2,5.6-3.2c0.9-0.7,1.5-1.1,1.9-1.1c0.7,0,0.9,0.4,0.4,1.1c-1.9,2.3-4.4,4.2-7.5,5.8c-3,1.5-6.2,2.7-9.6,3.5
				c-3.4,0.8-6.5,1.2-9.4,1.2c-4.5,0-8-0.9-10.5-2.7c-2.5-1.8-3.8-4.1-3.8-6.9c0-3.3,1.6-6.5,4.9-9.6c6.2-6,17.3-10.5,33.2-13.4
				c6.2-1.1,12.8-1.9,20-2.4c7.1-0.5,14.7-0.7,22.7-0.6c2-1.7,3.9-2.6,5.7-2.6c1.8,0,2.5,1,2.1,2.9c5.7,0.4,11.5,1.1,17.4,2.2
				c5.9,1.1,11.3,2.6,16.1,4.6s8.8,4.4,11.8,7.2c3,2.9,4.5,6.3,4.5,10.2c0,4.2-1.4,8.2-4.2,12c-2.8,3.8-6.3,7.1-10.7,10
				c-4.3,2.9-8.9,5.2-13.6,7c-4.4,1.6-9.1,2.8-14,3.7c-5,0.9-9.9,1.4-14.7,1.4c-3.7,0-7.1-0.3-10.5-0.8c-3.3-0.5-6.3-1.4-9.1-2.6
				c-5.6,8.1-10.2,14.7-13.9,19.8c-3.7,5.1-6.5,8.7-8.5,10.7C66.5-63.7,54.8-58.8,41.1-58.8z M114.9-103.9c3.4,0,6.7-0.3,10-1
				c3.3-0.7,6.9-1.6,10.7-2.8c3.8-1.3,7.7-2.9,11.6-4.9c3.9-2,7.5-4.2,10.8-6.7c3.3-2.5,5.9-5.2,7.9-8.1c2-2.9,3-5.8,3-8.7
				c0-3.3-1.4-6.1-4.1-8.5c-2.7-2.4-6.3-4.4-10.8-5.9c-4.5-1.6-9.3-2.8-14.5-3.6c-5.2-0.9-10.2-1.4-15-1.7l-4.4,13.7
				c-1.6,3.9-3.8,8.5-6.6,13.7c-2.8,5.2-6.3,11-10.4,17.5l-3,4.7c0.6,0.4,1.3,0.7,2.1,0.9c0.8,0.2,1.6,0.4,2.5,0.6
				c1.7,0.4,3.4,0.6,5,0.8C111.6-104,113.3-103.9,114.9-103.9z"/>
		</g>
	</g>
</g>
<g>
	<g transform="translate(144.260038, 221.06938)">
		<g>
			<path class="st1" d="M76-72.8c-3.9,0-6.6-1-8.1-3.1c-1.5-2.1-2.2-4.8-2.2-8.3c0-3.8,1.2-8.4,3.5-13.7c0.9-2.1,1.9-4,2.9-5.7
				c1-1.7,2-3.3,3.1-4.7c-0.4,0.1-0.7,0.1-1,0.1c-0.3,0-0.5,0-0.8,0c-2.2,0-4-1.5-5.5-4.6L57.9-99.7c-5.4,7-8.7,10.5-9.9,10.5
				c-0.5,0-0.7-0.2-0.7-0.6c0-0.4,0.2-1,0.7-1.8c0.3-0.5,0.8-1.3,1.6-2.2c3.5-4,6.6-8,9.6-11.9c2.9-3.9,5.3-7.7,7.2-11.5
				c2.1-7.9,4.7-11.9,7.9-11.9c2.1,0,3.1,1,3.1,2.9c0,1.7-1.1,4-3.4,6.9c-2.2,2.8-3.3,4.3-3.3,4.4c0,1.9,1.4,2.9,4.2,2.9
				c1.6,0,3.5-0.6,5.5-1.8l3.6-2.2c0.2-0.1,0.4-0.1,0.8-0.1c1.1,0,2.1,0.5,2.9,1.4c0.8,0.9,1.1,1.7,0.8,2.4l-9.4,11.9
				c-5.8,7.5-8.8,13.5-8.8,18.1c0,4.1,2,6.1,6,6.1c2.7,0,5.7-0.8,8.8-2.5c3.2-1.6,6.2-3.7,9.2-6.1c3-2.4,5.5-4.8,7.5-7l3.3-3.8
				c0.2-0.2,0.4-0.4,0.7-0.7c0.3-0.3,0.5-0.4,0.7-0.4c0.6,0,1,0.3,1,1c0,0.2-0.1,0.5-0.3,1c-0.2,0.4-0.5,0.9-1,1.5l-4.4,4.9
				c-2.1,2.4-4.7,4.8-7.7,7.2c-3.1,2.4-6.2,4.4-9.4,6C81.6-73.6,78.6-72.8,76-72.8z"/>
		</g>
	</g>
</g>
<g>
	<g transform="translate(184.670779, 221.06938)">
		<g>
			<path class="st1" d="M91.8-120.6c-1.6,0-2.9-0.5-4-1.5c-1.1-1-1.7-2.1-1.7-3.4c0-2.6,1.7-3.8,5.2-3.8c1.3,0,2.6,0.4,3.8,1.3
				c1.3,0.9,1.9,1.9,1.9,3.2c0,1.1-0.6,2.1-1.8,2.9C94-121,92.9-120.6,91.8-120.6z M66.5-72c-2,0-3.7-0.7-5-2c-1.3-1.3-2-3.7-2-7
				c0-1.9,0.4-4.1,1.3-6.6c0.9-2.5,1.9-5,3.3-7.6c1.3-2.6,2.6-4.8,3.9-6.9c5.1-8.3,9.3-12.5,12.6-12.6c0.8,0,1.8,0.3,3,1
				c1.2,0.7,1.8,1.4,1.8,2.2c0,0-3.5,4.5-10.4,13.4c-6.8,8.8-10.2,15.1-10.2,18.9c0,2.9,1.1,4.4,3.4,4.4c1.5,0,3.3-0.6,5.7-1.8
				c2.3-1.2,4.8-2.8,7.3-4.7c2.6-1.9,5-4,7.3-6.1c2.3-2.2,4.2-4.2,5.7-6c0.9-1.2,1.7-2,2.4-2.5c0.7-0.5,1.1-0.7,1.3-0.7
				c0.4,0,0.6,0.3,0.6,0.8c0,0.5-0.5,1.4-1.6,2.8c-1,1.4-2.5,3-4.3,4.8c-2.2,2.2-4.6,4.6-7.2,7.1c-2.6,2.5-5.5,4.7-8.6,6.5
				C73.5-72.9,70.1-72,66.5-72z"/>
		</g>
	</g>
</g>
<g>
	<g transform="translate(207.850548, 221.06938)">
		<g>
			<path class="st1" d="M85-73.3c-4.3,0-7.5-1.4-9.5-4.2c-2-2.8-3.7-6.8-5-11.8c-1.6,1.6-2.8,2.5-3.4,2.5c-0.5,0-0.7-0.4-0.7-1.1
				c0-0.6,0.2-1.1,0.7-1.5c0,0,1.2-1.4,3.5-4.2c2.3-2.8,6.3-6.8,11.8-11.9l17.2-16.1c2.4-2.3,4.3-4,5.7-5.2c1.4-1.2,2.4-1.8,3.1-1.8
				c2.9,0,4.4,1.1,4.4,3.3c0,1.1-0.6,2.4-1.8,3.8c-0.9,1.1-1.6,1.9-2,2.5c-0.4,0.6-0.6,0.9-0.7,1c-1.6,2.8-3.1,7.9-4.5,15.2
				c-1,5.4-1.9,9.8-2.6,13.3c-0.7,3.5-1.3,6-1.8,7.5c3.8-0.1,7.6-1.3,11.4-3.6c3.7-2.3,7.8-6,12-11.2c0.2-0.2,0.4-0.4,0.8-0.8
				c0.4-0.4,0.7-0.6,1.1-0.6c0.6,0,0.8,0.2,0.8,0.7c0,0.5-0.1,0.9-0.4,1.4c-0.3,0.5-0.6,0.9-0.8,1.2c-2.8,3.4-5.5,6.1-7.9,8.3
				c-2.5,2.1-5.1,3.8-7.8,5.1c-2.7,1.2-6,2.3-9.7,3.1l-4.4,2.9c-1.2,0.8-2.6,1.4-4.2,1.8C88.6-73.4,86.8-73.3,85-73.3z M86.7-80.2
				c2.1,0,3.8-0.5,5.2-1.5c1-0.5,2-2.1,2.9-4.6c1-2.5,1.9-5.6,2.8-9.4c0.7-3.2,1.3-6.3,1.7-9.4c0.4-3.1,0.8-6,1.2-8.8l0.5-4.7
				c-2.1,1.6-4.7,3.8-7.9,6.7c-3.2,2.9-6.3,6-9.4,9.2c-3.1,3.2-5.1,5.5-6,7c-0.9,1.5-1.4,2.6-1.5,3.4c-0.4,3.6,0.5,6.6,2.7,8.8
				C80.9-81.3,83.5-80.2,86.7-80.2z"/>
		</g>
	</g>
</g>
<g>
	<g transform="translate(244.671514, 221.06938)">
		<g>
			<path class="st1" d="M90-72.7c-2.9,0-5.2-0.7-6.9-2.1c-1.7-1.4-2.5-3.9-2.5-7.6c0-2.1,0.6-4.8,1.9-8c1.3-3.2,2.9-6.7,4.8-10.5
				c1.9-3.7,3.8-7.4,5.7-11.1c-1.2,0.3-2.2,0.4-3.1,0.4c-2.7,0-4.1-1-4.1-3.1c0-1,0.4-1.8,1.2-2.3c0.8-0.6,1.5-0.9,2.1-1
				c0,0,0.1,0,0.3,0c0.2,0,0.5,0,0.9-0.1h7.9c1.6-2.1,3.3-4.3,5.1-6.7c2.5-3.1,4.4-4.9,5.9-5.5h0.4c0.6,0,1.5,0.3,2.7,1
				c1.5,0.8,2.2,1.6,2.2,2.5c0,1.2-2.2,4.2-6.6,9.2c0.8,0.1,2,0.1,3.5,0.1c1.6,0,3.5,0,5.8,0c1.1,0,2.7,0,4.7,0c2.1,0,4.2,0,6.4-0.1
				c2.2,0,4.2-0.1,5.8-0.1c1.6-0.1,2.5-0.1,2.7-0.1c0.3,0.1,0.4,0.2,0.4,0.4c0,0.8-5.4,1.9-16.1,3.3c-6.1,0.8-10.8,1.5-14,1.9
				c-3.2,0.4-5,0.7-5.3,0.8c-1.3,1.1-2.8,3-4.6,5.6c-1.8,2.6-3.6,5.6-5.5,8.9c-1.8,3.3-3.3,6.4-4.6,9.4c-1.2,3-1.8,5.3-1.8,6.9
				c0,1.5,0.5,2.7,1.6,3.6c1.1,1,2.9,1.4,5.4,1.4c1.6,0,3.6-0.4,5.9-1.1c2.3-0.7,4.4-1.6,6.5-2.5c2.1-1,3.5-1.7,4.5-2.3
				c2.4-1.5,5-3.4,7.9-5.8c2.9-2.4,5.7-5.2,8.6-8.3c1.3-1.3,2.1-1.9,2.6-1.9c0.3,0,0.4,0.2,0.4,0.6c0,0.7-0.7,1.9-2,3.5
				c-2.2,2.7-4.6,5.2-7.3,7.6c-2.7,2.4-5.7,4.6-9,6.6c-3.7,2.3-7.3,3.9-10.7,4.9S93-72.7,90-72.7z"/>
		</g>
	</g>
</g>
<g>
	<g transform="translate(275.133421, 221.06938)">
		<g>
			<path class="st1" d="M121.9-120.6c-1.6,0-2.9-0.5-4-1.5c-1.1-1-1.7-2.1-1.7-3.4c0-2.6,1.7-3.8,5.2-3.8c1.3,0,2.6,0.4,3.8,1.3
				c1.3,0.9,1.9,1.9,1.9,3.2c0,1.1-0.6,2.1-1.8,2.9C124.2-121,123-120.6,121.9-120.6z M96.6-72c-2,0-3.7-0.7-5-2c-1.3-1.3-2-3.7-2-7
				c0-1.9,0.4-4.1,1.3-6.6c0.9-2.5,1.9-5,3.3-7.6c1.3-2.6,2.6-4.8,3.9-6.9c5.1-8.3,9.3-12.5,12.6-12.6c0.8,0,1.8,0.3,3,1
				c1.2,0.7,1.8,1.4,1.8,2.2c0,0-3.5,4.5-10.4,13.4c-6.8,8.8-10.2,15.1-10.2,18.9c0,2.9,1.1,4.4,3.4,4.4c1.5,0,3.3-0.6,5.7-1.8
				c2.3-1.2,4.8-2.8,7.3-4.7c2.6-1.9,5-4,7.3-6.1c2.3-2.2,4.2-4.2,5.7-6c0.9-1.2,1.7-2,2.4-2.5c0.7-0.5,1.1-0.7,1.3-0.7
				c0.4,0,0.6,0.3,0.6,0.8c0,0.5-0.5,1.4-1.6,2.8c-1,1.4-2.5,3-4.3,4.8c-2.2,2.2-4.6,4.6-7.2,7.1c-2.6,2.5-5.5,4.7-8.6,6.5
				C103.7-72.9,100.3-72,96.6-72z"/>
		</g>
	</g>
</g>
<g>
	<g transform="translate(298.31319, 221.06938)">
		<g>
			<path class="st1" d="M134.3-73.3c-2.5,0-4.2-0.7-5.2-2.1c-1-1.4-1.5-3.2-1.5-5.3c0-5.3,1.8-10.9,5.5-17l8.8-14.2
				c-6.2,4.6-12.4,10.3-18.5,17.1c-1.6,1.8-3.5,4-5.5,6.4c-2.1,2.5-4.3,5.3-6.8,8.5c-3.3,4.3-5.2,6.4-5.9,6.4
				c-1.3,0-2.3-0.6-3.1-1.7c-0.8-1.2-1.2-2.2-1.2-3.1c0-0.7,0.2-2.1,0.7-4c0.5-2,1-3.7,1.6-5.1c0.6-1.6,1.3-3.1,2-4.6
				c0.7-1.5,1.4-3,2-4.4l-8.2,8.6c-0.2,0.2-0.7,0.7-1.6,1.6c-0.9,0.9-1.6,1.4-2.2,1.4c-0.5,0-0.7-0.3-0.7-1c0-0.2,0.1-0.4,0.2-0.8
				c0.1-0.3,0.4-0.7,0.9-1.2c1.4-1.4,2.8-2.8,4.2-4.4c1.5-1.6,3-3.3,4.5-5.3c0.8-1,2-2.5,3.7-4.6c1.6-2.1,3.4-4.3,5.4-6.6
				c2-2.4,3.8-4.6,5.5-6.6c0.5-0.6,1-1.1,1.5-1.3c0.6-0.2,0.9-0.4,1.1-0.4c2.5,0,3.7,1,3.7,2.9c0,0.5-0.1,1.1-0.4,1.6
				c-8.2,11.3-13.1,19.9-14.8,25.9c10.6-10.6,19.1-18.5,25.5-23.9c6.4-5.3,11-8,13.8-8c1.5,0,2.6,0.2,3.4,0.7
				c0.8,0.4,1.2,1.3,1.2,2.6c0,0.5-0.1,0.8-0.1,1.1c-0.3,0.6-2.1,3.2-5.6,7.6c-2.1,2.6-3.9,4.9-5.5,7c-1.6,2.1-2.9,3.9-3.9,5.5
				c-1.6,2.5-2.9,4.9-3.7,7.2c-0.8,2.2-1.2,4.1-1.2,5.7c0,0.6,0.1,1.4,0.3,2.3c0.2,0.9,0.7,1.4,1.6,1.4c2.1,0,5.4-1.8,9.9-5.5
				c2.1-1.8,4-3.7,5.9-5.5c1.8-1.9,3.6-3.7,5.2-5.5c0.4-0.4,0.9-1.1,1.8-2.1c0.8-1.1,1.3-1.6,1.5-1.6c0.4,0,0.5,0.4,0.5,1.1
				c0,0.4-0.2,1-0.6,1.9c-0.4,0.9-0.8,1.5-1.3,2c-1,1.2-2.5,2.8-4.4,4.9c-2,2.1-4.1,4.2-6.6,6.4c-2.4,2.2-4.8,4.1-7,5.6
				C138.1-74,136-73.3,134.3-73.3z"/>
		</g>
	</g>
</g>
<g>
	<g transform="translate(339.647043, 221.06938)">
		<g>
			<path class="st1" d="M120.2-71.8c-2.9,0-5.6-0.9-7.9-2.8c-2.4-1.9-3.6-4.4-3.6-7.5c0-6.5,4-13.9,11.9-22.1
				c8.1-8.4,15.4-12.6,21.8-12.6c2.1,0,3.8,0.6,5.1,1.7c1.3,1.1,2,2.5,2,4.2c0,5.1-4.1,10.1-12.2,15c-7.2,4.4-13.3,6.6-18.2,6.6
				c-0.7,0-1.4-0.1-1.9-0.3c-1.4,2.5-2,5.1-2,7.8c0,4.7,2.2,7.1,6.7,7.1c4.6,0,10.4-3,17.6-9.1c5.6-4.5,10.3-9.2,14.2-14.2
				c0.8-1.1,1.5-1.6,2.2-1.6c0.5,0,0.8,0.3,0.8,0.8c0,0.5-0.4,1.3-1.1,2.3c-2.6,3.4-5.3,6.5-8.2,9.3c-2.9,2.8-6.1,5.4-9.4,7.8
				C131-74.3,125-71.8,120.2-71.8z M121-92.3c3.5,0,8-1.7,13.5-5.2c1.8-1.3,3.6-2.7,5.4-4.3c1.8-1.6,3.2-3.2,4.4-4.9
				c1.1-1.7,1.7-3.1,1.7-4.4c0-1.2-1-1.8-2.9-1.8c-2.7,0-6.6,2.1-11.5,6.2c-2.4,2-4.7,4.2-6.9,6.6c-2.2,2.4-4,4.9-5.6,7.5
				C119.8-92.4,120.4-92.3,121-92.3z"/>
		</g>
	</g>
</g>
<g>
	<defs>
		<rect id="SVGID_00000177470595982510766150000014161213034279605902_" x="247.6" y="67" width="57" height="57"/>
	</defs>
	<clipPath id="SVGID_00000051343614620991008470000012192270433372042642_">
		<use xlink:href="#SVGID_00000177470595982510766150000014161213034279605902_"  style="overflow:visible;"/>
	</clipPath>
	<g style="clip-path:url(#SVGID_00000051343614620991008470000012192270433372042642_);">
		<path class="st3" d="M276.8,82.2c0.1,0.8,0.2,1.6,0.5,2.3s0.5,1.5,0.8,2.2c0.3,0.7,0.8,1.4,1.2,2.1c0.5,0.7,1,1.3,1.5,1.8
			c0.6,0.6,1.2,1.1,1.8,1.5c0.7,0.5,1.3,0.9,2.1,1.2c0.7,0.3,1.5,0.6,2.2,0.8c0.8,0.2,1.6,0.4,2.3,0.5c3.9,0.4,8.8,0.7,15.2,0.7
			c-6.4,0-11.4,0.3-15.2,0.7c-0.8,0.1-1.6,0.2-2.3,0.5c-0.8,0.2-1.5,0.5-2.2,0.8c-0.7,0.3-1.4,0.8-2.1,1.2c-0.7,0.5-1.3,1-1.8,1.5
			c-0.6,0.6-1.1,1.2-1.5,1.8c-0.5,0.7-0.9,1.3-1.2,2.1c-0.3,0.7-0.6,1.5-0.8,2.2s-0.4,1.6-0.5,2.4c-0.4,3.9-0.7,8.8-0.7,15.2
			c0-6.4-0.3-11.4-0.7-15.2c-0.1-0.8-0.2-1.6-0.5-2.4s-0.5-1.5-0.8-2.2c-0.3-0.7-0.8-1.4-1.2-2.1c-0.5-0.7-1-1.3-1.5-1.8
			c-0.6-0.6-1.2-1.1-1.8-1.5c-0.7-0.5-1.3-0.9-2.1-1.2c-0.7-0.3-1.5-0.6-2.2-0.8c-0.8-0.2-1.6-0.4-2.3-0.5
			c-3.9-0.4-8.8-0.7-15.2-0.7c6.4,0,11.4-0.3,15.2-0.7c0.8-0.1,1.6-0.2,2.3-0.5s1.5-0.5,2.2-0.8c0.7-0.3,1.4-0.8,2.1-1.2
			c0.7-0.5,1.3-1,1.8-1.5c0.6-0.6,1.1-1.2,1.5-1.8c0.5-0.7,0.9-1.3,1.2-2.1c0.3-0.7,0.6-1.5,0.8-2.2s0.4-1.6,0.5-2.3
			c0.4-3.9,0.7-8.8,0.7-15.3C276.1,73.4,276.3,78.4,276.8,82.2z"/>
	</g>
</g>
<g>
	<g transform="translate(189.876118, 269.493085)">
		<g>
			<path class="st1" d="M76.2-56.9c-3.5,0-6.1-1.1-7.9-3.2c-1.8-2.1-2.8-5.1-3-8.8l5.1-1.4c0.2,2.7,0.7,4.8,1.5,6.4
				c0.9,1.6,2.3,2.4,4.3,2.4c1.5,0,2.6-0.4,3.4-1.2c0.8-0.8,1.1-2,1.1-3.6c0-1.7-0.4-3.1-1.1-4.2c-0.7-1.1-1.8-2.4-3.4-3.7l-6.9-6.1
				c-1.4-1.2-2.4-2.5-3-3.9c-0.6-1.4-0.9-3.1-0.9-5.2c0-3,0.9-5.4,2.6-7c1.7-1.7,4.1-2.5,7.1-2.5c3.2,0,5.7,0.9,7.4,2.6
				c1.7,1.7,2.7,4.4,3,8L80.6-87c-0.2-2.4-0.7-4.3-1.4-5.6c-0.8-1.3-2.1-2-4.1-2c-1.5,0-2.6,0.4-3.4,1.1c-0.8,0.8-1.2,1.9-1.2,3.4
				c0,1.2,0.2,2.2,0.6,3.1c0.4,0.8,1.1,1.7,2.1,2.5l7,6.1c1.8,1.6,3.2,3.3,4.3,5.2c1.1,1.9,1.6,4,1.6,6.4c0,3-0.9,5.4-2.8,7.2
				C81.5-57.8,79.1-56.9,76.2-56.9z"/>
		</g>
	</g>
</g>
<g>
	<g transform="translate(207.933176, 269.493085)">
		<g>
			<path class="st1" d="M72.5-98.6h16v4.3H78.3v13.6h8.3v4.1h-8.3v15.1h10.3v4.1H72.5V-98.6z"/>
		</g>
	</g>
</g>
<g>
	<g transform="translate(223.470642, 269.493085)">
		<g>
			<path class="st1" d="M77.7-98.6H86c4.2,0,7.2,0.9,9.2,2.6c2,1.7,2.9,4.5,2.9,8.4c0,5.3-1.7,8.5-5.1,9.6l5.9,20.7h-5.6l-5.4-19.4
				h-4.5v19.4h-5.8V-98.6z M85.6-80.9c2.5,0,4.3-0.5,5.3-1.5c1.1-1,1.6-2.8,1.6-5.4c0-1.7-0.2-3-0.6-4c-0.4-1-1-1.7-2-2.1
				c-0.9-0.5-2.3-0.7-4-0.7h-2.5v13.6H85.6z"/>
		</g>
	</g>
</g>
<g>
	<g transform="translate(243.283765, 269.493085)">
		<g>
			<path class="st1" d="M82.3-98.6h5.4l6.5,30.4l6.2-30.4h5.2l-9.1,41.2h-5L82.3-98.6z"/>
		</g>
	</g>
</g>
<g>
	<g transform="translate(262.562443, 269.493085)">
		<g>
			<path class="st1" d="M91-98.6h5.6v41.2H91V-98.6z"/>
		</g>
	</g>
</g>
<g>
	<g transform="translate(272.029985, 269.493085)">
		<g>
			<path class="st1" d="M104.2-56.9c-4.1,0-6.9-1.2-8.6-3.6c-1.7-2.4-2.5-5.8-2.5-10.1v-14.6c0-4.5,0.8-7.9,2.4-10.3
				c1.6-2.3,4.5-3.5,8.7-3.5c3.7,0,6.4,1,8,3c1.6,2,2.4,5,2.4,8.9v3.2h-5.5v-2.9c0-1.9-0.1-3.4-0.2-4.4c-0.2-1-0.6-1.8-1.3-2.5
				c-0.7-0.6-1.8-0.9-3.3-0.9c-1.6,0-2.7,0.3-3.5,1c-0.8,0.7-1.3,1.6-1.5,2.8c-0.2,1.2-0.4,2.7-0.4,4.7v16.4c0,2.1,0.2,3.7,0.5,4.9
				c0.3,1.2,0.9,2,1.7,2.5c0.8,0.5,1.8,0.8,3.2,0.8c1.5,0,2.5-0.3,3.2-1c0.7-0.6,1.2-1.5,1.3-2.6c0.2-1.1,0.3-2.7,0.3-4.6v-3.1h5.5
				v3.1c0,4.1-0.8,7.3-2.3,9.5C110.7-58,108.1-56.9,104.2-56.9z"/>
		</g>
	</g>
</g>
<g>
	<g transform="translate(291.690412, 269.493085)">
		<g>
			<path class="st1" d="M100.4-98.6h16v4.3h-10.2v13.6h8.3v4.1h-8.3v15.1h10.3v4.1h-16.1V-98.6z"/>
		</g>
	</g>
</g>
<g>
	<g transform="translate(307.227877, 269.493085)">
		<g>
			<path class="st1" d="M115.3-56.9c-3.5,0-6.1-1.1-7.9-3.2c-1.8-2.1-2.8-5.1-3-8.8l5.1-1.4c0.2,2.7,0.7,4.8,1.5,6.4
				c0.9,1.6,2.3,2.4,4.3,2.4c1.5,0,2.6-0.4,3.4-1.2c0.8-0.8,1.1-2,1.1-3.6c0-1.7-0.4-3.1-1.1-4.2c-0.7-1.1-1.8-2.4-3.4-3.7l-6.9-6.1
				c-1.4-1.2-2.4-2.5-3-3.9c-0.6-1.4-0.9-3.1-0.9-5.2c0-3,0.9-5.4,2.6-7c1.7-1.7,4.1-2.5,7.1-2.5c3.2,0,5.7,0.9,7.4,2.6
				c1.7,1.7,2.7,4.4,3,8l-4.9,1.3c-0.2-2.4-0.7-4.3-1.4-5.6c-0.8-1.3-2.1-2-4.1-2c-1.5,0-2.6,0.4-3.4,1.1c-0.8,0.8-1.2,1.9-1.2,3.4
				c0,1.2,0.2,2.2,0.6,3.1c0.4,0.8,1.1,1.7,2.1,2.5l7,6.1c1.8,1.6,3.2,3.3,4.3,5.2c1.1,1.9,1.6,4,1.6,6.4c0,3-0.9,5.4-2.8,7.2
				C120.6-57.8,118.3-56.9,115.3-56.9z"/>
		</g>
	</g>
</g>
</svg>
