<svg xmlns="http://www.w3.org/2000/svg" xmlns:xlink="http://www.w3.org/1999/xlink" width="500" zoomAndPan="magnify" viewBox="0 0 375 374.999991" height="500" preserveAspectRatio="xMidYMid meet" version="1.0"><defs><g/><clipPath id="1dc70b4bcc"><path d="M 111 116 L 375 116 L 375 255.367188 L 111 255.367188 Z M 111 116 " clip-rule="nonzero"/></clipPath><clipPath id="2844dd32d2"><path d="M 3.589844 82.867188 L 330 82.867188 L 330 222 L 3.589844 222 Z M 3.589844 82.867188 " clip-rule="nonzero"/></clipPath><clipPath id="2ea0112996"><path d="M 97.113281 185.414062 L 375 185.414062 L 375 309.949219 L 97.113281 309.949219 Z M 97.113281 185.414062 " clip-rule="nonzero"/></clipPath><clipPath id="97a999eed5"><path d="M 184.90625 133.101562 L 227.65625 133.101562 L 227.65625 175.851562 L 184.90625 175.851562 Z M 184.90625 133.101562 " clip-rule="nonzero"/></clipPath></defs><rect x="-37.5" width="450" fill="#ffffff" y="-37.499999" height="449.999989" fill-opacity="1"/><rect x="-37.5" width="450" fill="#ffffff" y="-37.499999" height="449.999989" fill-opacity="1"/><g clip-path="url(#1dc70b4bcc)"><path fill="#080808" d="M 418.421875 151.347656 C 422.328125 194.847656 336.8125 238.058594 227.386719 247.902344 C 184.730469 251.726562 144.730469 249.921875 111.578125 243.695312 C 143.535156 251.074219 180.671875 255.308594 220.285156 255.308594 C 339.964844 255.308594 437.035156 216.71875 437.035156 169.128906 C 437.035156 149.421875 420.402344 131.265625 392.4375 116.761719 C 407.890625 126.398438 417.222656 138.113281 418.421875 151.347656 Z M 418.421875 151.347656 " fill-opacity="1" fill-rule="nonzero"/></g><g clip-path="url(#2844dd32d2)"><path fill="#080808" d="M 48.148438 221.496094 C 32.699219 211.847656 23.363281 200.128906 22.179688 186.910156 C 18.257812 143.398438 103.773438 100.160156 213.199219 90.339844 C 255.859375 86.519531 295.855469 88.335938 329.007812 94.546875 C 297.09375 87.167969 259.859375 82.933594 220.285156 82.933594 C 100.609375 82.933594 3.535156 121.527344 3.535156 169.128906 C 3.535156 188.824219 20.1875 206.976562 48.148438 221.496094 Z M 48.148438 221.496094 " fill-opacity="1" fill-rule="nonzero"/></g><g clip-path="url(#2ea0112996)"><path fill="#ffffff" d="M 97.113281 185.414062 L 461.960938 185.414062 L 461.960938 309.949219 L 97.113281 309.949219 Z M 97.113281 185.414062 " fill-opacity="1" fill-rule="nonzero"/></g><g fill="#080808" fill-opacity="1"><g transform="translate(35.07046, 193.51869)"><g><path d="M 21.84375 11.078125 C 16.507812 11.078125 12.269531 9.828125 9.125 7.328125 C 5.976562 4.835938 4.40625 1.234375 4.40625 -3.484375 C 4.40625 -6.898438 5.140625 -10.128906 6.609375 -13.171875 C 8.085938 -16.222656 10.085938 -18.941406 12.609375 -21.328125 C 15.140625 -23.722656 18.03125 -25.601562 21.28125 -26.96875 C 24.53125 -28.34375 27.929688 -29.03125 31.484375 -29.03125 C 35.109375 -29.03125 37.960938 -28.207031 40.046875 -26.5625 C 42.128906 -24.925781 43.171875 -22.703125 43.171875 -19.890625 C 43.171875 -17.835938 41.835938 -15.171875 39.171875 -11.890625 C 36.503906 -8.609375 35.171875 -7.515625 35.171875 -8.609375 C 35.171875 -8.890625 35.273438 -9.164062 35.484375 -9.4375 C 37.671875 -12.644531 38.765625 -15.65625 38.765625 -18.46875 C 38.765625 -20.988281 37.960938 -23 36.359375 -24.5 C 34.753906 -26.007812 32.648438 -26.765625 30.046875 -26.765625 C 27.179688 -26.765625 24.429688 -26.0625 21.796875 -24.65625 C 19.160156 -23.257812 16.816406 -21.398438 14.765625 -19.078125 C 12.710938 -16.753906 11.101562 -14.1875 9.9375 -11.375 C 8.78125 -8.570312 8.203125 -5.804688 8.203125 -3.078125 C 8.203125 0.679688 9.414062 3.535156 11.84375 5.484375 C 14.269531 7.429688 17.46875 8.40625 21.4375 8.40625 C 25.46875 8.40625 29.347656 7.671875 33.078125 6.203125 C 36.804688 4.734375 40.140625 2.628906 43.078125 -0.109375 C 46.566406 -3.390625 50.085938 -8.175781 53.640625 -14.46875 L 62.5625 -30.5625 C 64.882812 -34.257812 67.3125 -38.722656 69.84375 -43.953125 C 72.375 -49.179688 75.039062 -55.179688 77.84375 -61.953125 C 68 -62.085938 58.425781 -61.128906 49.125 -59.078125 C 39.207031 -56.953125 31.859375 -54.007812 27.078125 -50.25 C 25.023438 -48.75 24 -47.175781 24 -45.53125 C 24 -44.101562 24.800781 -42.925781 26.40625 -42 C 28.007812 -41.070312 30.046875 -40.609375 32.515625 -40.609375 C 33.953125 -40.609375 35.660156 -40.8125 37.640625 -41.21875 C 39.617188 -41.632812 41.53125 -42.203125 43.375 -42.921875 C 45.226562 -43.640625 46.632812 -44.441406 47.59375 -45.328125 C 48.269531 -45.878906 48.75 -46.15625 49.03125 -46.15625 C 49.570312 -46.15625 49.671875 -45.878906 49.328125 -45.328125 C 47.890625 -43.617188 46.023438 -42.179688 43.734375 -41.015625 C 41.453125 -39.859375 39.046875 -38.988281 36.515625 -38.40625 C 33.984375 -37.820312 31.625 -37.53125 29.4375 -37.53125 C 26.082031 -37.53125 23.460938 -38.195312 21.578125 -39.53125 C 19.703125 -40.863281 18.765625 -42.59375 18.765625 -44.71875 C 18.765625 -47.175781 20 -49.566406 22.46875 -51.890625 C 27.113281 -56.410156 35.421875 -59.765625 47.390625 -61.953125 C 52.035156 -62.765625 57.023438 -63.359375 62.359375 -63.734375 C 67.691406 -64.117188 73.367188 -64.273438 79.390625 -64.203125 C 80.890625 -65.503906 82.320312 -66.15625 83.6875 -66.15625 C 85.0625 -66.15625 85.578125 -65.4375 85.234375 -64 C 89.535156 -63.726562 93.890625 -63.179688 98.296875 -62.359375 C 102.710938 -61.535156 106.75 -60.390625 110.40625 -58.921875 C 114.0625 -57.453125 117.019531 -55.640625 119.28125 -53.484375 C 121.539062 -51.328125 122.671875 -48.78125 122.671875 -45.84375 C 122.671875 -42.695312 121.625 -39.703125 119.53125 -36.859375 C 117.445312 -34.023438 114.78125 -31.515625 111.53125 -29.328125 C 108.289062 -27.140625 104.890625 -25.398438 101.328125 -24.109375 C 98.046875 -22.941406 94.539062 -22.015625 90.8125 -21.328125 C 87.09375 -20.648438 83.421875 -20.3125 79.796875 -20.3125 C 77.054688 -20.3125 74.4375 -20.515625 71.9375 -20.921875 C 69.445312 -21.328125 67.175781 -21.976562 65.125 -22.875 C 60.957031 -16.789062 57.488281 -11.832031 54.71875 -8 C 51.945312 -4.164062 49.8125 -1.5 48.3125 0 C 40.925781 7.382812 32.101562 11.078125 21.84375 11.078125 Z M 77.234375 -22.765625 C 79.765625 -22.765625 82.273438 -23.019531 84.765625 -23.53125 C 87.265625 -24.050781 89.945312 -24.753906 92.8125 -25.640625 C 95.6875 -26.597656 98.59375 -27.8125 101.53125 -29.28125 C 104.476562 -30.75 107.179688 -32.421875 109.640625 -34.296875 C 112.097656 -36.179688 114.078125 -38.203125 115.578125 -40.359375 C 117.085938 -42.515625 117.84375 -44.6875 117.84375 -46.875 C 117.84375 -49.332031 116.816406 -51.46875 114.765625 -53.28125 C 112.710938 -55.09375 110.007812 -56.578125 106.65625 -57.734375 C 103.3125 -58.898438 99.691406 -59.804688 95.796875 -60.453125 C 91.898438 -61.109375 88.140625 -61.539062 84.515625 -61.75 L 81.234375 -51.484375 C 80.066406 -48.546875 78.421875 -45.128906 76.296875 -41.234375 C 74.179688 -37.335938 71.585938 -32.960938 68.515625 -28.109375 L 66.25 -24.609375 C 66.726562 -24.335938 67.257812 -24.113281 67.84375 -23.9375 C 68.425781 -23.769531 69.0625 -23.617188 69.75 -23.484375 C 71.039062 -23.210938 72.300781 -23.023438 73.53125 -22.921875 C 74.769531 -22.816406 76.003906 -22.765625 77.234375 -22.765625 Z M 77.234375 -22.765625 "/></g></g></g><g fill="#080808" fill-opacity="1"><g transform="translate(143.48203, 193.51869)"><g><path d="M 20.921875 0.515625 C 17.984375 0.515625 15.96875 -0.253906 14.875 -1.796875 C 13.78125 -3.335938 13.234375 -5.40625 13.234375 -8 C 13.234375 -10.875 14.117188 -14.289062 15.890625 -18.25 C 16.578125 -19.820312 17.296875 -21.238281 18.046875 -22.5 C 18.796875 -23.769531 19.582031 -24.953125 20.40625 -26.046875 C 20.132812 -25.984375 19.894531 -25.953125 19.6875 -25.953125 C 19.488281 -25.953125 19.285156 -25.953125 19.078125 -25.953125 C 17.429688 -25.953125 16.0625 -27.113281 14.96875 -29.4375 L 7.390625 -19.59375 C 3.347656 -14.320312 0.882812 -11.6875 0 -11.6875 C -0.34375 -11.6875 -0.515625 -11.828125 -0.515625 -12.109375 C -0.515625 -12.441406 -0.34375 -12.882812 0 -13.4375 C 0.207031 -13.84375 0.617188 -14.390625 1.234375 -15.078125 C 3.828125 -18.085938 6.21875 -21.0625 8.40625 -24 C 10.59375 -26.9375 12.40625 -29.804688 13.84375 -32.609375 C 15.414062 -38.554688 17.398438 -41.53125 19.796875 -41.53125 C 21.367188 -41.53125 22.15625 -40.816406 22.15625 -39.390625 C 22.15625 -38.085938 21.300781 -36.375 19.59375 -34.25 C 17.945312 -32.132812 17.125 -31.039062 17.125 -30.96875 C 17.125 -29.53125 18.1875 -28.8125 20.3125 -28.8125 C 21.539062 -28.8125 22.90625 -29.257812 24.40625 -30.15625 L 27.078125 -31.796875 C 27.210938 -31.859375 27.414062 -31.890625 27.6875 -31.890625 C 28.507812 -31.890625 29.226562 -31.546875 29.84375 -30.859375 C 30.457031 -30.179688 30.664062 -29.570312 30.46875 -29.03125 L 23.390625 -20.109375 C 19.003906 -14.492188 16.8125 -9.976562 16.8125 -6.5625 C 16.8125 -3.488281 18.316406 -1.953125 21.328125 -1.953125 C 23.378906 -1.953125 25.582031 -2.566406 27.9375 -3.796875 C 30.300781 -5.023438 32.59375 -6.546875 34.8125 -8.359375 C 37.039062 -10.171875 38.90625 -11.929688 40.40625 -13.640625 L 42.875 -16.515625 C 43.007812 -16.648438 43.175781 -16.816406 43.375 -17.015625 C 43.582031 -17.222656 43.753906 -17.328125 43.890625 -17.328125 C 44.367188 -17.328125 44.609375 -17.085938 44.609375 -16.609375 C 44.609375 -16.472656 44.539062 -16.234375 44.40625 -15.890625 C 44.269531 -15.554688 44.03125 -15.179688 43.6875 -14.765625 L 40.40625 -11.078125 C 38.832031 -9.296875 36.898438 -7.5 34.609375 -5.6875 C 32.316406 -3.875 29.957031 -2.382812 27.53125 -1.21875 C 25.101562 -0.0625 22.898438 0.515625 20.921875 0.515625 Z M 20.921875 0.515625 "/></g></g></g><g fill="#080808" fill-opacity="1"><g transform="translate(183.892771, 193.51869)"><g><path d="M 22.671875 -35.28125 C 21.503906 -35.28125 20.492188 -35.65625 19.640625 -36.40625 C 18.785156 -37.15625 18.359375 -38.007812 18.359375 -38.96875 C 18.359375 -40.882812 19.65625 -41.84375 22.25 -41.84375 C 23.207031 -41.84375 24.164062 -41.515625 25.125 -40.859375 C 26.082031 -40.210938 26.5625 -39.410156 26.5625 -38.453125 C 26.5625 -37.640625 26.113281 -36.90625 25.21875 -36.25 C 24.332031 -35.601562 23.484375 -35.28125 22.671875 -35.28125 Z M 3.6875 1.125 C 2.1875 1.125 0.941406 0.628906 -0.046875 -0.359375 C -1.035156 -1.347656 -1.53125 -3.109375 -1.53125 -5.640625 C -1.53125 -7.078125 -1.207031 -8.734375 -0.5625 -10.609375 C 0.0820312 -12.492188 0.898438 -14.390625 1.890625 -16.296875 C 2.890625 -18.210938 3.867188 -19.925781 4.828125 -21.4375 C 8.648438 -27.65625 11.789062 -30.800781 14.25 -30.875 C 14.863281 -30.875 15.613281 -30.613281 16.5 -30.09375 C 17.394531 -29.582031 17.84375 -29.019531 17.84375 -28.40625 C 17.84375 -28.40625 15.242188 -25.054688 10.046875 -18.359375 C 4.921875 -11.722656 2.359375 -7.003906 2.359375 -4.203125 C 2.359375 -2.015625 3.210938 -0.921875 4.921875 -0.921875 C 6.015625 -0.921875 7.429688 -1.378906 9.171875 -2.296875 C 10.921875 -3.222656 12.75 -4.40625 14.65625 -5.84375 C 16.570312 -7.28125 18.398438 -8.816406 20.140625 -10.453125 C 21.890625 -12.097656 23.3125 -13.601562 24.40625 -14.96875 C 25.09375 -15.863281 25.691406 -16.476562 26.203125 -16.8125 C 26.710938 -17.15625 27.035156 -17.328125 27.171875 -17.328125 C 27.453125 -17.328125 27.59375 -17.125 27.59375 -16.71875 C 27.59375 -16.375 27.195312 -15.6875 26.40625 -14.65625 C 25.625 -13.632812 24.546875 -12.441406 23.171875 -11.078125 C 21.535156 -9.429688 19.722656 -7.648438 17.734375 -5.734375 C 15.753906 -3.828125 13.601562 -2.207031 11.28125 -0.875 C 8.957031 0.457031 6.425781 1.125 3.6875 1.125 Z M 3.6875 1.125 "/></g></g></g><g fill="#080808" fill-opacity="1"><g transform="translate(207.072541, 193.51869)"><g><path d="M 11.796875 0.203125 C 8.578125 0.203125 6.195312 -0.851562 4.65625 -2.96875 C 3.125 -5.09375 1.878906 -8.035156 0.921875 -11.796875 C -0.304688 -10.566406 -1.160156 -9.953125 -1.640625 -9.953125 C -1.984375 -9.953125 -2.15625 -10.222656 -2.15625 -10.765625 C -2.15625 -11.179688 -1.984375 -11.554688 -1.640625 -11.890625 C -1.640625 -11.890625 -0.769531 -12.945312 0.96875 -15.0625 C 2.71875 -17.1875 5.675781 -20.164062 9.84375 -24 L 22.765625 -36.109375 C 24.546875 -37.816406 25.960938 -39.113281 27.015625 -40 C 28.078125 -40.882812 28.847656 -41.328125 29.328125 -41.328125 C 31.515625 -41.328125 32.609375 -40.507812 32.609375 -38.875 C 32.609375 -38.050781 32.164062 -37.09375 31.28125 -36 C 30.59375 -35.175781 30.09375 -34.539062 29.78125 -34.09375 C 29.476562 -33.65625 29.296875 -33.398438 29.234375 -33.328125 C 28.003906 -31.210938 26.875 -27.421875 25.84375 -21.953125 C 25.09375 -17.910156 24.441406 -14.59375 23.890625 -12 C 23.347656 -9.40625 22.90625 -7.523438 22.5625 -6.359375 C 25.4375 -6.429688 28.273438 -7.320312 31.078125 -9.03125 C 33.878906 -10.738281 36.890625 -13.539062 40.109375 -17.4375 C 40.242188 -17.570312 40.445312 -17.773438 40.71875 -18.046875 C 40.988281 -18.328125 41.257812 -18.46875 41.53125 -18.46875 C 41.945312 -18.46875 42.15625 -18.296875 42.15625 -17.953125 C 42.15625 -17.609375 42.050781 -17.265625 41.84375 -16.921875 C 41.632812 -16.578125 41.429688 -16.269531 41.234375 -16 C 39.109375 -13.46875 37.125 -11.398438 35.28125 -9.796875 C 33.4375 -8.191406 31.488281 -6.925781 29.4375 -6 C 27.382812 -5.070312 24.957031 -4.300781 22.15625 -3.6875 L 18.875 -1.53125 C 17.976562 -0.914062 16.914062 -0.472656 15.6875 -0.203125 C 14.457031 0.0664062 13.160156 0.203125 11.796875 0.203125 Z M 13.03125 -5.03125 C 14.601562 -5.03125 15.898438 -5.40625 16.921875 -6.15625 C 17.671875 -6.5625 18.40625 -7.703125 19.125 -9.578125 C 19.84375 -11.460938 20.546875 -13.804688 21.234375 -16.609375 C 21.773438 -19.003906 22.195312 -21.347656 22.5 -23.640625 C 22.8125 -25.929688 23.109375 -28.132812 23.390625 -30.25 L 23.796875 -33.75 C 22.222656 -32.582031 20.238281 -30.90625 17.84375 -28.71875 C 15.445312 -26.53125 13.085938 -24.238281 10.765625 -21.84375 C 8.441406 -19.445312 6.9375 -17.6875 6.25 -16.5625 C 5.570312 -15.4375 5.195312 -14.597656 5.125 -14.046875 C 4.851562 -11.316406 5.519531 -9.128906 7.125 -7.484375 C 8.726562 -5.847656 10.695312 -5.03125 13.03125 -5.03125 Z M 13.03125 -5.03125 "/></g></g></g><g fill="#080808" fill-opacity="1"><g transform="translate(243.893506, 193.51869)"><g><path d="M 6.359375 0.609375 C 4.171875 0.609375 2.441406 0.0820312 1.171875 -0.96875 C -0.0859375 -2.03125 -0.71875 -3.929688 -0.71875 -6.671875 C -0.71875 -8.242188 -0.238281 -10.242188 0.71875 -12.671875 C 1.675781 -15.097656 2.875 -17.710938 4.3125 -20.515625 C 5.75 -23.316406 7.179688 -26.082031 8.609375 -28.8125 C 7.722656 -28.613281 6.9375 -28.515625 6.25 -28.515625 C 4.195312 -28.515625 3.171875 -29.300781 3.171875 -30.875 C 3.171875 -31.625 3.460938 -32.203125 4.046875 -32.609375 C 4.628906 -33.023438 5.160156 -33.265625 5.640625 -33.328125 C 5.640625 -33.328125 5.722656 -33.328125 5.890625 -33.328125 C 6.066406 -33.328125 6.289062 -33.363281 6.5625 -33.4375 L 12.515625 -33.4375 C 13.742188 -35.007812 15.007812 -36.679688 16.3125 -38.453125 C 18.15625 -40.785156 19.625 -42.15625 20.71875 -42.5625 L 21.03125 -42.5625 C 21.507812 -42.5625 22.191406 -42.320312 23.078125 -41.84375 C 24.171875 -41.226562 24.71875 -40.613281 24.71875 -40 C 24.71875 -39.113281 23.078125 -36.820312 19.796875 -33.125 C 20.410156 -33.0625 21.296875 -33.03125 22.453125 -33.03125 C 23.617188 -33.03125 25.054688 -33.03125 26.765625 -33.03125 C 27.585938 -33.03125 28.765625 -33.03125 30.296875 -33.03125 C 31.835938 -33.03125 33.445312 -33.046875 35.125 -33.078125 C 36.800781 -33.109375 38.253906 -33.140625 39.484375 -33.171875 C 40.710938 -33.210938 41.394531 -33.234375 41.53125 -33.234375 C 41.738281 -33.160156 41.84375 -33.054688 41.84375 -32.921875 C 41.84375 -32.304688 37.8125 -31.488281 29.75 -30.46875 C 25.164062 -29.84375 21.660156 -29.359375 19.234375 -29.015625 C 16.804688 -28.679688 15.488281 -28.476562 15.28125 -28.40625 C 14.320312 -27.582031 13.160156 -26.179688 11.796875 -24.203125 C 10.429688 -22.222656 9.0625 -20 7.6875 -17.53125 C 6.320312 -15.070312 5.175781 -12.726562 4.25 -10.5 C 3.332031 -8.28125 2.875 -6.554688 2.875 -5.328125 C 2.875 -4.234375 3.28125 -3.328125 4.09375 -2.609375 C 4.914062 -1.890625 6.253906 -1.53125 8.109375 -1.53125 C 9.335938 -1.53125 10.804688 -1.800781 12.515625 -2.34375 C 14.222656 -2.894531 15.84375 -3.53125 17.375 -4.25 C 18.914062 -4.96875 20.03125 -5.535156 20.71875 -5.953125 C 22.5 -7.046875 24.460938 -8.5 26.609375 -10.3125 C 28.765625 -12.125 30.90625 -14.191406 33.03125 -16.515625 C 33.988281 -17.472656 34.632812 -17.953125 34.96875 -17.953125 C 35.175781 -17.953125 35.28125 -17.8125 35.28125 -17.53125 C 35.28125 -16.988281 34.769531 -16.101562 33.75 -14.875 C 32.101562 -12.882812 30.269531 -10.984375 28.25 -9.171875 C 26.238281 -7.367188 24 -5.710938 21.53125 -4.203125 C 18.726562 -2.492188 16.046875 -1.265625 13.484375 -0.515625 C 10.921875 0.234375 8.546875 0.609375 6.359375 0.609375 Z M 6.359375 0.609375 "/></g></g></g><g fill="#080808" fill-opacity="1"><g transform="translate(274.355413, 193.51869)"><g><path d="M 22.671875 -35.28125 C 21.503906 -35.28125 20.492188 -35.65625 19.640625 -36.40625 C 18.785156 -37.15625 18.359375 -38.007812 18.359375 -38.96875 C 18.359375 -40.882812 19.65625 -41.84375 22.25 -41.84375 C 23.207031 -41.84375 24.164062 -41.515625 25.125 -40.859375 C 26.082031 -40.210938 26.5625 -39.410156 26.5625 -38.453125 C 26.5625 -37.640625 26.113281 -36.90625 25.21875 -36.25 C 24.332031 -35.601562 23.484375 -35.28125 22.671875 -35.28125 Z M 3.6875 1.125 C 2.1875 1.125 0.941406 0.628906 -0.046875 -0.359375 C -1.035156 -1.347656 -1.53125 -3.109375 -1.53125 -5.640625 C -1.53125 -7.078125 -1.207031 -8.734375 -0.5625 -10.609375 C 0.0820312 -12.492188 0.898438 -14.390625 1.890625 -16.296875 C 2.890625 -18.210938 3.867188 -19.925781 4.828125 -21.4375 C 8.648438 -27.65625 11.789062 -30.800781 14.25 -30.875 C 14.863281 -30.875 15.613281 -30.613281 16.5 -30.09375 C 17.394531 -29.582031 17.84375 -29.019531 17.84375 -28.40625 C 17.84375 -28.40625 15.242188 -25.054688 10.046875 -18.359375 C 4.921875 -11.722656 2.359375 -7.003906 2.359375 -4.203125 C 2.359375 -2.015625 3.210938 -0.921875 4.921875 -0.921875 C 6.015625 -0.921875 7.429688 -1.378906 9.171875 -2.296875 C 10.921875 -3.222656 12.75 -4.40625 14.65625 -5.84375 C 16.570312 -7.28125 18.398438 -8.816406 20.140625 -10.453125 C 21.890625 -12.097656 23.3125 -13.601562 24.40625 -14.96875 C 25.09375 -15.863281 25.691406 -16.476562 26.203125 -16.8125 C 26.710938 -17.15625 27.035156 -17.328125 27.171875 -17.328125 C 27.453125 -17.328125 27.59375 -17.125 27.59375 -16.71875 C 27.59375 -16.375 27.195312 -15.6875 26.40625 -14.65625 C 25.625 -13.632812 24.546875 -12.441406 23.171875 -11.078125 C 21.535156 -9.429688 19.722656 -7.648438 17.734375 -5.734375 C 15.753906 -3.828125 13.601562 -2.207031 11.28125 -0.875 C 8.957031 0.457031 6.425781 1.125 3.6875 1.125 Z M 3.6875 1.125 "/></g></g></g><g fill="#080808" fill-opacity="1"><g transform="translate(297.535182, 193.51869)"><g><path d="M 26.15625 0.203125 C 24.3125 0.203125 23.007812 -0.320312 22.25 -1.375 C 21.5 -2.4375 21.125 -3.753906 21.125 -5.328125 C 21.125 -9.296875 22.492188 -13.535156 25.234375 -18.046875 L 31.796875 -28.71875 C 27.140625 -25.300781 22.523438 -21.023438 17.953125 -15.890625 C 16.722656 -14.523438 15.335938 -12.921875 13.796875 -11.078125 C 12.253906 -9.234375 10.5625 -7.113281 8.71875 -4.71875 C 6.257812 -1.5 4.789062 0.109375 4.3125 0.109375 C 3.351562 0.109375 2.566406 -0.316406 1.953125 -1.171875 C 1.335938 -2.035156 1.03125 -2.804688 1.03125 -3.484375 C 1.03125 -4.035156 1.195312 -5.046875 1.53125 -6.515625 C 1.875 -7.984375 2.285156 -9.265625 2.765625 -10.359375 C 3.242188 -11.523438 3.738281 -12.671875 4.25 -13.796875 C 4.769531 -14.921875 5.269531 -16.03125 5.75 -17.125 L -0.40625 -10.671875 C -0.539062 -10.535156 -0.953125 -10.125 -1.640625 -9.4375 C -2.328125 -8.75 -2.875 -8.40625 -3.28125 -8.40625 C -3.625 -8.40625 -3.796875 -8.644531 -3.796875 -9.125 C -3.796875 -9.257812 -3.742188 -9.445312 -3.640625 -9.6875 C -3.535156 -9.925781 -3.3125 -10.21875 -2.96875 -10.5625 C -1.945312 -11.59375 -0.890625 -12.6875 0.203125 -13.84375 C 1.296875 -15.007812 2.425781 -16.34375 3.59375 -17.84375 C 4.207031 -18.59375 5.128906 -19.738281 6.359375 -21.28125 C 7.585938 -22.820312 8.9375 -24.476562 10.40625 -26.25 C 11.875 -28.03125 13.257812 -29.671875 14.5625 -31.171875 C 14.90625 -31.648438 15.28125 -31.972656 15.6875 -32.140625 C 16.101562 -32.316406 16.378906 -32.40625 16.515625 -32.40625 C 18.359375 -32.40625 19.28125 -31.6875 19.28125 -30.25 C 19.28125 -29.84375 19.175781 -29.4375 18.96875 -29.03125 C 12.820312 -20.550781 9.128906 -14.085938 7.890625 -9.640625 C 15.828125 -17.566406 22.203125 -23.53125 27.015625 -27.53125 C 31.835938 -31.53125 35.273438 -33.53125 37.328125 -33.53125 C 38.421875 -33.53125 39.257812 -33.359375 39.84375 -33.015625 C 40.425781 -32.679688 40.71875 -32.035156 40.71875 -31.078125 C 40.71875 -30.734375 40.679688 -30.457031 40.609375 -30.25 C 40.410156 -29.769531 39.007812 -27.859375 36.40625 -24.515625 C 34.832031 -22.597656 33.445312 -20.851562 32.25 -19.28125 C 31.0625 -17.707031 30.085938 -16.335938 29.328125 -15.171875 C 28.097656 -13.265625 27.175781 -11.472656 26.5625 -9.796875 C 25.945312 -8.117188 25.640625 -6.695312 25.640625 -5.53125 C 25.640625 -5.0625 25.707031 -4.484375 25.84375 -3.796875 C 25.976562 -3.109375 26.390625 -2.765625 27.078125 -2.765625 C 28.648438 -2.765625 31.113281 -4.132812 34.46875 -6.875 C 36.03125 -8.238281 37.492188 -9.617188 38.859375 -11.015625 C 40.234375 -12.421875 41.535156 -13.804688 42.765625 -15.171875 C 43.035156 -15.453125 43.476562 -15.984375 44.09375 -16.765625 C 44.71875 -17.554688 45.097656 -17.953125 45.234375 -17.953125 C 45.503906 -17.953125 45.640625 -17.675781 45.640625 -17.125 C 45.640625 -16.851562 45.484375 -16.390625 45.171875 -15.734375 C 44.867188 -15.085938 44.546875 -14.59375 44.203125 -14.25 C 43.453125 -13.363281 42.34375 -12.132812 40.875 -10.5625 C 39.40625 -8.988281 37.765625 -7.378906 35.953125 -5.734375 C 34.140625 -4.097656 32.378906 -2.695312 30.671875 -1.53125 C 28.960938 -0.375 27.457031 0.203125 26.15625 0.203125 Z M 26.15625 0.203125 "/></g></g></g><g fill="#080808" fill-opacity="1"><g transform="translate(338.869035, 193.51869)"><g><path d="M 5.234375 1.328125 C 3.046875 1.328125 1.0625 0.628906 -0.71875 -0.765625 C -2.5 -2.171875 -3.390625 -4.035156 -3.390625 -6.359375 C -3.390625 -11.210938 -0.414062 -16.75 5.53125 -22.96875 C 11.625 -29.257812 17.0625 -32.40625 21.84375 -32.40625 C 23.414062 -32.40625 24.695312 -31.976562 25.6875 -31.125 C 26.675781 -30.269531 27.171875 -29.226562 27.171875 -28 C 27.171875 -24.164062 24.128906 -20.40625 18.046875 -16.71875 C 12.648438 -13.4375 8.101562 -11.796875 4.40625 -11.796875 C 3.863281 -11.796875 3.382812 -11.863281 2.96875 -12 C 1.945312 -10.15625 1.4375 -8.207031 1.4375 -6.15625 C 1.4375 -2.601562 3.113281 -0.828125 6.46875 -0.828125 C 9.882812 -0.828125 14.289062 -3.113281 19.6875 -7.6875 C 23.863281 -11.039062 27.421875 -14.597656 30.359375 -18.359375 C 30.972656 -19.179688 31.519531 -19.59375 32 -19.59375 C 32.40625 -19.59375 32.609375 -19.382812 32.609375 -18.96875 C 32.609375 -18.5625 32.335938 -17.984375 31.796875 -17.234375 C 29.878906 -14.703125 27.828125 -12.375 25.640625 -10.25 C 23.453125 -8.132812 21.09375 -6.1875 18.5625 -4.40625 C 13.300781 -0.582031 8.859375 1.328125 5.234375 1.328125 Z M 5.84375 -14.046875 C 8.445312 -14.046875 11.832031 -15.347656 16 -17.953125 C 17.363281 -18.910156 18.710938 -19.984375 20.046875 -21.171875 C 21.378906 -22.367188 22.472656 -23.582031 23.328125 -24.8125 C 24.179688 -26.050781 24.609375 -27.148438 24.609375 -28.109375 C 24.609375 -28.992188 23.894531 -29.4375 22.46875 -29.4375 C 20.414062 -29.4375 17.539062 -27.894531 13.84375 -24.8125 C 12.0625 -23.3125 10.347656 -21.671875 8.703125 -19.890625 C 7.066406 -18.117188 5.671875 -16.238281 4.515625 -14.25 C 4.921875 -14.113281 5.363281 -14.046875 5.84375 -14.046875 Z M 5.84375 -14.046875 "/></g></g></g><g clip-path="url(#97a999eed5)"><path fill="#231f20" d="M 206.800781 144.542969 C 206.867188 145.140625 206.980469 145.726562 207.148438 146.304688 C 207.3125 146.882812 207.523438 147.441406 207.785156 147.984375 C 208.042969 148.527344 208.347656 149.042969 208.695312 149.535156 C 209.042969 150.023438 209.429688 150.480469 209.851562 150.90625 C 210.277344 151.332031 210.734375 151.71875 211.226562 152.066406 C 211.71875 152.414062 212.234375 152.714844 212.773438 152.976562 C 213.316406 153.234375 213.878906 153.449219 214.453125 153.613281 C 215.03125 153.777344 215.621094 153.894531 216.21875 153.957031 C 219.109375 154.273438 222.839844 154.480469 227.65625 154.480469 C 222.839844 154.480469 219.109375 154.683594 216.21875 155 C 215.621094 155.066406 215.03125 155.179688 214.453125 155.347656 C 213.878906 155.511719 213.316406 155.722656 212.773438 155.984375 C 212.234375 156.242188 211.71875 156.546875 211.226562 156.894531 C 210.734375 157.242188 210.277344 157.628906 209.851562 158.050781 C 209.429688 158.476562 209.042969 158.933594 208.695312 159.425781 C 208.347656 159.917969 208.042969 160.433594 207.785156 160.972656 C 207.523438 161.515625 207.3125 162.074219 207.148438 162.652344 C 206.980469 163.230469 206.867188 163.820312 206.800781 164.417969 C 206.484375 167.308594 206.28125 171.039062 206.28125 175.855469 C 206.28125 171.039062 206.074219 167.308594 205.757812 164.417969 C 205.695312 163.820312 205.578125 163.230469 205.414062 162.652344 C 205.25 162.074219 205.035156 161.515625 204.777344 160.972656 C 204.515625 160.433594 204.214844 159.917969 203.867188 159.425781 C 203.519531 158.933594 203.132812 158.476562 202.707031 158.050781 C 202.28125 157.628906 201.824219 157.242188 201.335938 156.894531 C 200.84375 156.546875 200.328125 156.242188 199.785156 155.984375 C 199.242188 155.722656 198.683594 155.511719 198.105469 155.347656 C 197.527344 155.179688 196.941406 155.066406 196.34375 155 C 193.453125 154.683594 189.722656 154.480469 184.90625 154.480469 C 189.722656 154.480469 193.453125 154.273438 196.34375 153.957031 C 196.941406 153.894531 197.527344 153.777344 198.105469 153.613281 C 198.683594 153.449219 199.242188 153.234375 199.785156 152.976562 C 200.328125 152.714844 200.84375 152.414062 201.335938 152.066406 C 201.824219 151.71875 202.28125 151.332031 202.707031 150.90625 C 203.132812 150.480469 203.519531 150.023438 203.867188 149.535156 C 204.214844 149.042969 204.515625 148.527344 204.777344 147.984375 C 205.035156 147.441406 205.25 146.882812 205.414062 146.304688 C 205.578125 145.726562 205.695312 145.140625 205.757812 144.542969 C 206.074219 141.652344 206.28125 137.921875 206.28125 133.101562 C 206.28125 137.921875 206.484375 141.652344 206.800781 144.542969 Z M 206.800781 144.542969 " fill-opacity="1" fill-rule="nonzero"/></g><g fill="#080808" fill-opacity="1"><g transform="translate(189.09811, 241.942392)"><g><path d="M 9.703125 0.34375 C 7.097656 0.34375 5.113281 -0.457031 3.75 -2.0625 C 2.394531 -3.664062 1.640625 -5.867188 1.484375 -8.671875 L 5.3125 -9.703125 C 5.4375 -7.710938 5.820312 -6.109375 6.46875 -4.890625 C 7.125 -3.671875 8.203125 -3.0625 9.703125 -3.0625 C 10.816406 -3.0625 11.660156 -3.367188 12.234375 -3.984375 C 12.804688 -4.609375 13.09375 -5.507812 13.09375 -6.6875 C 13.09375 -7.957031 12.828125 -9.007812 12.296875 -9.84375 C 11.765625 -10.6875 10.910156 -11.617188 9.734375 -12.640625 L 4.546875 -17.21875 C 3.503906 -18.132812 2.742188 -19.117188 2.265625 -20.171875 C 1.796875 -21.234375 1.5625 -22.53125 1.5625 -24.0625 C 1.5625 -26.320312 2.207031 -28.078125 3.5 -29.328125 C 4.800781 -30.578125 6.578125 -31.203125 8.828125 -31.203125 C 11.265625 -31.203125 13.109375 -30.550781 14.359375 -29.25 C 15.609375 -27.945312 16.359375 -25.9375 16.609375 -23.21875 L 12.953125 -22.21875 C 12.816406 -24.03125 12.460938 -25.425781 11.890625 -26.40625 C 11.316406 -27.382812 10.296875 -27.875 8.828125 -27.875 C 7.722656 -27.875 6.878906 -27.585938 6.296875 -27.015625 C 5.710938 -26.441406 5.421875 -25.597656 5.421875 -24.484375 C 5.421875 -23.566406 5.570312 -22.796875 5.875 -22.171875 C 6.1875 -21.546875 6.710938 -20.914062 7.453125 -20.28125 L 12.671875 -15.6875 C 14.023438 -14.5 15.101562 -13.203125 15.90625 -11.796875 C 16.707031 -10.398438 17.109375 -8.8125 17.109375 -7.03125 C 17.109375 -4.757812 16.421875 -2.960938 15.046875 -1.640625 C 13.671875 -0.316406 11.890625 0.34375 9.703125 0.34375 Z M 9.703125 0.34375 "/></g></g></g><g fill="#080808" fill-opacity="1"><g transform="translate(207.155168, 241.942392)"><g><path d="M 2.40625 -30.9375 L 14.390625 -30.9375 L 14.390625 -27.71875 L 6.71875 -27.71875 L 6.71875 -17.484375 L 12.953125 -17.484375 L 12.953125 -14.4375 L 6.71875 -14.4375 L 6.71875 -3.09375 L 14.46875 -3.09375 L 14.46875 0 L 2.40625 0 Z M 2.40625 -30.9375 "/></g></g></g><g fill="#080808" fill-opacity="1"><g transform="translate(222.692634, 241.942392)"><g><path d="M 2.40625 -30.9375 L 8.625 -30.9375 C 11.757812 -30.9375 14.054688 -30.289062 15.515625 -29 C 16.984375 -27.71875 17.71875 -25.625 17.71875 -22.71875 C 17.71875 -18.75 16.445312 -16.34375 13.90625 -15.5 L 18.296875 0 L 14.125 0 L 10.078125 -14.515625 L 6.71875 -14.515625 L 6.71875 0 L 2.40625 0 Z M 8.359375 -17.609375 C 10.222656 -17.609375 11.554688 -17.972656 12.359375 -18.703125 C 13.160156 -19.441406 13.5625 -20.78125 13.5625 -22.71875 C 13.5625 -23.988281 13.421875 -24.988281 13.140625 -25.71875 C 12.859375 -26.445312 12.359375 -26.984375 11.640625 -27.328125 C 10.929688 -27.671875 9.925781 -27.84375 8.625 -27.84375 L 6.71875 -27.84375 L 6.71875 -17.609375 Z M 8.359375 -17.609375 "/></g></g></g><g fill="#080808" fill-opacity="1"><g transform="translate(242.505757, 241.942392)"><g><path d="M 0.875 -30.9375 L 4.921875 -30.9375 L 9.8125 -8.140625 L 14.46875 -30.9375 L 18.40625 -30.9375 L 11.578125 0 L 7.796875 0 Z M 0.875 -30.9375 "/></g></g></g><g fill="#080808" fill-opacity="1"><g transform="translate(261.784435, 241.942392)"><g><path d="M 2.640625 -30.9375 L 6.875 -30.9375 L 6.875 0 L 2.640625 0 Z M 2.640625 -30.9375 "/></g></g></g><g fill="#080808" fill-opacity="1"><g transform="translate(271.251977, 241.942392)"><g><path d="M 10.15625 0.34375 C 7.101562 0.34375 4.953125 -0.5625 3.703125 -2.375 C 2.453125 -4.195312 1.828125 -6.710938 1.828125 -9.921875 L 1.828125 -20.84375 C 1.828125 -24.226562 2.4375 -26.800781 3.65625 -28.5625 C 4.882812 -30.320312 7.050781 -31.203125 10.15625 -31.203125 C 12.9375 -31.203125 14.929688 -30.445312 16.140625 -28.9375 C 17.347656 -27.4375 17.953125 -25.222656 17.953125 -22.296875 L 17.953125 -19.859375 L 13.859375 -19.859375 L 13.859375 -22.03125 C 13.859375 -23.457031 13.796875 -24.550781 13.671875 -25.3125 C 13.546875 -26.082031 13.222656 -26.695312 12.703125 -27.15625 C 12.179688 -27.613281 11.347656 -27.84375 10.203125 -27.84375 C 9.023438 -27.84375 8.148438 -27.59375 7.578125 -27.09375 C 7.003906 -26.59375 6.628906 -25.90625 6.453125 -25.03125 C 6.273438 -24.15625 6.1875 -22.976562 6.1875 -21.5 L 6.1875 -9.234375 C 6.1875 -7.660156 6.3125 -6.425781 6.5625 -5.53125 C 6.820312 -4.644531 7.238281 -4.007812 7.8125 -3.625 C 8.382812 -3.25 9.179688 -3.0625 10.203125 -3.0625 C 11.296875 -3.0625 12.109375 -3.300781 12.640625 -3.78125 C 13.171875 -4.257812 13.503906 -4.921875 13.640625 -5.765625 C 13.785156 -6.609375 13.859375 -7.753906 13.859375 -9.203125 L 13.859375 -11.5 L 17.953125 -11.5 L 17.953125 -9.203125 C 17.953125 -6.117188 17.367188 -3.753906 16.203125 -2.109375 C 15.046875 -0.472656 13.03125 0.34375 10.15625 0.34375 Z M 10.15625 0.34375 "/></g></g></g><g fill="#080808" fill-opacity="1"><g transform="translate(290.912404, 241.942392)"><g><path d="M 2.40625 -30.9375 L 14.390625 -30.9375 L 14.390625 -27.71875 L 6.71875 -27.71875 L 6.71875 -17.484375 L 12.953125 -17.484375 L 12.953125 -14.4375 L 6.71875 -14.4375 L 6.71875 -3.09375 L 14.46875 -3.09375 L 14.46875 0 L 2.40625 0 Z M 2.40625 -30.9375 "/></g></g></g><g fill="#080808" fill-opacity="1"><g transform="translate(306.449869, 241.942392)"><g><path d="M 9.703125 0.34375 C 7.097656 0.34375 5.113281 -0.457031 3.75 -2.0625 C 2.394531 -3.664062 1.640625 -5.867188 1.484375 -8.671875 L 5.3125 -9.703125 C 5.4375 -7.710938 5.820312 -6.109375 6.46875 -4.890625 C 7.125 -3.671875 8.203125 -3.0625 9.703125 -3.0625 C 10.816406 -3.0625 11.660156 -3.367188 12.234375 -3.984375 C 12.804688 -4.609375 13.09375 -5.507812 13.09375 -6.6875 C 13.09375 -7.957031 12.828125 -9.007812 12.296875 -9.84375 C 11.765625 -10.6875 10.910156 -11.617188 9.734375 -12.640625 L 4.546875 -17.21875 C 3.503906 -18.132812 2.742188 -19.117188 2.265625 -20.171875 C 1.796875 -21.234375 1.5625 -22.53125 1.5625 -24.0625 C 1.5625 -26.320312 2.207031 -28.078125 3.5 -29.328125 C 4.800781 -30.578125 6.578125 -31.203125 8.828125 -31.203125 C 11.265625 -31.203125 13.109375 -30.550781 14.359375 -29.25 C 15.609375 -27.945312 16.359375 -25.9375 16.609375 -23.21875 L 12.953125 -22.21875 C 12.816406 -24.03125 12.460938 -25.425781 11.890625 -26.40625 C 11.316406 -27.382812 10.296875 -27.875 8.828125 -27.875 C 7.722656 -27.875 6.878906 -27.585938 6.296875 -27.015625 C 5.710938 -26.441406 5.421875 -25.597656 5.421875 -24.484375 C 5.421875 -23.566406 5.570312 -22.796875 5.875 -22.171875 C 6.1875 -21.546875 6.710938 -20.914062 7.453125 -20.28125 L 12.671875 -15.6875 C 14.023438 -14.5 15.101562 -13.203125 15.90625 -11.796875 C 16.707031 -10.398438 17.109375 -8.8125 17.109375 -7.03125 C 17.109375 -4.757812 16.421875 -2.960938 15.046875 -1.640625 C 13.671875 -0.316406 11.890625 0.34375 9.703125 0.34375 Z M 9.703125 0.34375 "/></g></g></g></svg>