<?xml version="1.0" encoding="utf-8"?>
<!-- Generator: Adobe Illustrator 27.9.0, SVG Export Plug-In . SVG Version: 6.00 Build 0)  -->
<svg version="1.1" id="Layer_1" xmlns="http://www.w3.org/2000/svg" xmlns:xlink="http://www.w3.org/1999/xlink" x="0px" y="0px"
	 viewBox="0 0 464.3 289.2" style="enable-background:new 0 0 464.3 289.2;" xml:space="preserve">
<style type="text/css">
	.st0{clip-path:url(#SVGID_00000137115568224498389390000017865766503889906336_);}
	.st1{clip-path:url(#SVGID_00000007392204292150678640000014372772773300894339_);}
	.st2{clip-path:url(#SVGID_00000005983185693689490760000011173566641248419504_);}
	.st3{fill:#38B6FF;}
	.st4{fill:#2C50F6;}
</style>
<g>
	<defs>
		<rect id="SVGID_1_" x="260.3" width="204" height="176"/>
	</defs>
	<clipPath id="SVGID_00000080179176650033071830000003697729584263143868_">
		<use xlink:href="#SVGID_1_"  style="overflow:visible;"/>
	</clipPath>
	<g style="clip-path:url(#SVGID_00000080179176650033071830000003697729584263143868_);">
		<g>
			<defs>
				
					<rect id="SVGID_00000173137378703821816000000013766228510532864153_" x="330.7" y="-46.3" transform="matrix(0.5514 -0.8343 0.8343 0.5514 117.2061 352.2938)" width="111" height="227"/>
			</defs>
			<clipPath id="SVGID_00000168807979695361702060000006433165861631130008_">
				<use xlink:href="#SVGID_00000173137378703821816000000013766228510532864153_"  style="overflow:visible;"/>
			</clipPath>
			<g style="clip-path:url(#SVGID_00000168807979695361702060000006433165861631130008_);">
				<g>
					<defs>
						
							<rect id="SVGID_00000107556475685332018110000006017813250012768655_" x="330.7" y="-46.3" transform="matrix(0.5514 -0.8343 0.8343 0.5514 117.2061 352.2938)" width="111" height="227"/>
					</defs>
					<clipPath id="SVGID_00000016047203180753148770000007502255998768525486_">
						<use xlink:href="#SVGID_00000107556475685332018110000006017813250012768655_"  style="overflow:visible;"/>
					</clipPath>
					<g style="clip-path:url(#SVGID_00000016047203180753148770000007502255998768525486_);">
						<path class="st3" d="M451,174.2c-0.7,1.1-2.1,1.4-3.2,0.7l-55.6-36.8c-1.1-0.7-1.4-2.1-0.7-3.2c0.7-1.1,2.1-1.4,3.2-0.7
							l55.6,36.8C451.4,171.7,451.7,173.1,451,174.2z M443.9,132.9c1.2,0.3,2.5-0.5,2.7-1.8c0.3-1.2-0.5-2.5-1.8-2.7l-43.9-9.5
							c-1.2-0.3-2.5,0.5-2.7,1.8c-0.2,1,0.2,1.9,1,2.4c0.2,0.2,0.5,0.3,0.8,0.3L443.9,132.9z M463.9,94.7c-0.2-1.3-1.4-2.1-2.6-1.9
							l-60.1,9.5c-1.3,0.2-2.1,1.4-1.9,2.6c0.1,0.7,0.5,1.2,1,1.6c0.5,0.3,1,0.4,1.6,0.4l60.1-9.5C463.2,97.2,464.1,96,463.9,94.7z
							 M423.6,73c-0.6-1.1-2.1-1.5-3.2-0.8l-25.1,14.7c-1.1,0.6-1.5,2.1-0.8,3.2c0.2,0.3,0.4,0.6,0.7,0.8c0.7,0.5,1.6,0.5,2.4,0.1
							l25.1-14.7C423.9,75.5,424.2,74.1,423.6,73z M416.6,20.8c-1.1-0.7-2.5-0.4-3.2,0.7l-33,49.9c-0.7,1.1-0.4,2.5,0.7,3.2
							s2.5,0.4,3.2-0.7l33-49.9C418,22.9,417.7,21.5,416.6,20.8z M320.8,85.4l-55.6-36.8c-1.1-0.7-2.5-0.4-3.2,0.7
							c-0.7,1.1-0.4,2.5,0.7,3.2l55.6,36.8c1.1,0.7,2.5,0.4,3.2-0.7C322.2,87.5,321.9,86.1,320.8,85.4z M332.5,73.7l-19.7-27.9
							c-0.7-1-2.2-1.3-3.2-0.5c-1,0.7-1.3,2.2-0.6,3.2l19.7,27.9c0.2,0.2,0.4,0.4,0.6,0.6c0.8,0.5,1.8,0.5,2.6,0
							C333,76.1,333.3,74.7,332.5,73.7z M331.5,2.3c-0.3-1.2-1.6-2-2.8-1.7s-2,1.6-1.7,2.8l16.2,64.7c0.1,0.6,0.5,1.1,1,1.4
							c0.5,0.3,1.2,0.5,1.8,0.3c1.2-0.3,2-1.6,1.7-2.8L331.5,2.3z M368.9,29c0.2-1.3-0.7-2.4-2-2.6c-1.3-0.2-2.4,0.7-2.6,2
							l-4.7,37.3c-0.1,0.9,0.3,1.7,1,2.2c0.3,0.2,0.6,0.3,1,0.4c1.3,0.2,2.4-0.7,2.6-2L368.9,29z"/>
					</g>
				</g>
			</g>
		</g>
	</g>
</g>
<g>
	<g transform="translate(15.384357, 197.751616)">
		<g>
			<path class="st4" d="M0,0c1,0,1.7-0.6,1.8-1.7l3.4-27.6c21.2-4.1,35.7-11.3,38.5-34.3c2.9-22.8-6-39.2-26.6-36.3
				c-9.5,1.3-17.9,5.6-26.9,8c-1.3,0.3-2.1,1.4-1.5,2.5c1.4,3.1,4.5,5.5,8.6,6.4l-8.6,70.3C-12.1-6-7.5-0.2,0,0z M11.8-82.7
				c0.1-1.2,0.1-2.4-0.4-3.8c2.4-0.9,4.9-1.8,7.4-2.1C27-89.7,34-78.7,29.4-62.8C25.7-49.9,19.5-43.6,6.5-40L11.8-82.7z"/>
		</g>
	</g>
</g>
<g>
	<g transform="translate(61.457599, 191.222606)">
		<g>
			<path class="st4" d="M8,5.3c0.5-0.1,1-0.8,1.1-1.6l9.8-61.9l7.4-2.4c1.9-0.7,3.5,0.6,3.2,2.7L26-35.1c-3.1,20,3.2,32,15.6,30.3
				c13.1-1.9,18.8-11.7,21.2-28.3c0.4-2.9-0.8-4.9-4-6.3c-0.4-0.2-0.9,0-1,0.5c-3,19.4-8.9,21.9-13.1,22.5c-5.3,0.7-6.2-3-4.9-13.5
				L43-55.8c1.6-14-1.3-18.5-8.1-18.3c-6.6,0.9-15.4,8.5-16.9,9c2.4-3.2,3.5-16.9-3.1-16c-5.8,0.8-8,5.2-9,10.7
				C5-65.8,5.3-60.2,9.4-56.1L0-10.1C-2.1,0,2.5,5.4,8,5.3z"/>
		</g>
	</g>
</g>
<g>
	<g transform="translate(101.387746, 185.56413)">
		<g>
			<path class="st4" d="M33.5-79.3c1,0.1,1.8-0.5,2.1-1.4L38-91.3c1.5-6.4-2.7-11.6-9-12.3l-2.1-0.2c-1.1-0.1-2,0.5-2.1,1.4
				l-2.4,10.6c-1.4,6.1,2.8,11.2,8.9,12.2L33.5-79.3z M30-3.2c13.1-1.9,18.3-12.5,21.2-28.3c0.4-2.8-0.8-4.7-4-6.3
				c-0.4-0.2-0.9,0-1,0.7c-3.1,19.3-8.9,21.8-13.1,22.3c-5.3,0.8-6.6-3-4.9-13.5c1.5-8.7,2.9-17.4,4.1-26
				c2.1-15.3-2.6-19.1-10.6-17.9c-0.8,0.1-1.4,0.8-1.5,1.6c-1.9,12.4-3.5,24.7-5.8,37.2C10.8-13.4,17-1.4,30-3.2z"/>
		</g>
	</g>
</g>
<g>
	<g transform="translate(122.690424, 182.545341)">
		<g>
			<path class="st4" d="M78.9-42.3c-0.4-0.2-0.9,0-1,0.6c-2.3,14.2-10.6,21.8-18,24.8c2.4-4.4,4.3-10.6,3.4-21.5
				c-0.7-8.1-3.6-22.3-11-31.9c1.8-3.2,2.6-6.3,2.8-9c0.3-4.8-2.7-5.7-7.2-5c-4.7,0.7-7.5,4.4-8.5,9.5c-1.2,6.4-5.6,16.8-15.7,42.5
				c-0.3-1.4-0.5-2.9-0.9-4.3c-0.3-1.2-1.4-2-2.4-1.7c-4.5,1.4-7.8,5.1-6.8,12.1C15.7-11.9,28.1-3.1,48-5.9
				C65.1-8.3,79.1-14.4,82.9-36C83.3-38.9,82.1-40.9,78.9-42.3z M39.8-12.7c-6.1,0.9-9.7-2-12.2-7.3l16.3-43.9
				C55.1-43.8,49.5-14,39.8-12.7z"/>
		</g>
	</g>
</g>
<g>
	<g transform="translate(162.422403, 176.914948)">
		<g>
			<path class="st4" d="M73.5-41.6c-0.4-0.2-1,0-1,0.7c-3,19.3-8.9,21.8-13.1,22.4c-5.3,0.8-9.3-2.6-7.5-13.1
				c3.1-17.4,4.5-23.5,6.5-36c1.4-0.2,2.9-0.5,4.2-0.7l8.3-1.4c1.3-0.2,2.1-1.1,1.6-2.2c-1.9-3.7-5.5-7.1-11.3-6.2L59.9-78
				c0-0.7,0.2-1.2,0.2-1.9c2-15.1-2.6-19.1-10.6-17.9c-0.8,0.1-1.4,0.8-1.5,1.6c-1.2,8.5-2.2,15.1-3.1,20.9L42.4-75
				c-3.3,0.5-5.6,0.6-7.8,1c-1.3,0.2-2.4,0.9-2,2.1c1.3,3.6,4.7,8.4,9.4,7.5l1.1-0.1c-1.5,7.7-2.9,15.8-4.9,27.8
				c-3.2,20,4,31.9,18.2,29.9c13.1-1.8,18.3-12.5,21.2-28.3C77.9-38,76.7-40,73.5-41.6z"/>
		</g>
	</g>
</g>
<g>
	<g transform="translate(188.183779, 173.264319)">
		<g>
			<path class="st4" d="M62.5-83.4c1,0.1,1.8-0.5,2.1-1.4L67-95.4c1.5-6.4-2.7-11.6-9-12.3l-2.1-0.2c-1.1-0.1-2,0.5-2.1,1.4L51.4-96
				c-1.4,6.1,2.8,11.2,8.9,12.2L62.5-83.4z M59-7.3c13.1-1.9,18.3-12.5,21.2-28.3c0.4-2.8-0.8-4.7-4-6.3c-0.4-0.2-0.9,0-1,0.7
				C72.1-22,66.3-19.5,62.1-18.9c-5.3,0.8-6.6-3-4.9-13.5c1.5-8.7,2.9-17.4,4.1-26c2.1-15.3-2.6-19.1-10.6-17.9
				c-0.8,0.1-1.4,0.8-1.5,1.6c-1.9,12.4-3.5,24.7-5.8,37.2C39.7-17.5,45.9-5.5,59-7.3z"/>
		</g>
	</g>
</g>
<g>
	<g transform="translate(209.486458, 170.24553)">
		<g>
			<path class="st4" d="M98.8-13c13.1-1.9,18.6-11.8,21.2-28.3c0.4-2.9-0.8-4.9-4-6.3c-0.5-0.2-1,0-1,0.5
				c-3,19.4-8.9,21.9-13.1,22.5c-5.3,0.8-6.2-3-4.9-13.5l3.2-25.9c1.7-14.3-1.4-18.7-8.5-18.2C81.6-84.3,73-80.4,69.1-70.7
				c-1.3-4.8-3.7-9-8.9-8.4c-0.9,0.1-1.6,0.9-1.8,1.7l-8.4,57C49.1-13.7,53.7-8,61-7.9c1.2,0.1,2.1-0.7,2.2-1.8
				c4.1-46.4,9.7-60,20.3-62.9c1.6-0.5,4.2,0.8,3.9,2.4l-4.2,26.9C79.1-16.9,84.2-10.9,98.8-13z"/>
		</g>
	</g>
</g>
<g>
	<g transform="translate(255.361531, 163.744603)">
		<g>
			<path class="st4" d="M126-49c-0.4-0.2-0.9,0-1,0.7c-2.7,19.2-13.1,22.4-22.6,23.7c-8.6,1.2-15.8-0.7-18.1-9.8
				c1,0.1,2,0.1,3.2,0.2c10.6,0.4,21.5-6.6,26.8-22.9c5.1-15.5-1.9-28.6-15-26.2C85.1-85,72.4-75.6,69.3-50.3
				C64.5-11.9,90-11.7,99.3-13c19.3-2.8,28.4-14,30.7-29.7C130.4-45.6,129.2-47.6,126-49z M94.5-75.8c8.4,0.5,9.9,5.5,7.4,15.9
				c-3,9.8-5.6,15.1-18.4,15.9c0.1-2.2,0.3-4.5,0.6-7C86.3-65.9,88.5-74.3,94.5-75.8z"/>
		</g>
	</g>
</g>
<g>
	<g transform="translate(63.221608, 265.697773)">
		<g>
			<path class="st4" d="M31.1,20.8c15.7-2.2,22.5-9.8,25.1-21.9c1.5-7.4-1.2-13.1-5.5-15.3c-1.2-0.7-2.5,0.4-2.7,1.9
				c-2.5,17.6-9.1,26.2-17.4,25.6c-8.1,2-13.1-11.2-10.3-35.4C24-56.7,31.4-68,42.6-69.5c4.5-0.6,6,4.7,3.9,23
				c-0.3,2.5-0.6,9.9,8.8,10.8c1,0,1.7-0.5,2-1.4c8.8-28.6,3.9-46-18.2-41c-20-0.2-30.5,20.6-34.2,56.3C1.9,6.3,11.8,23.5,31.1,20.8
				z"/>
		</g>
	</g>
</g>
<g>
	<g transform="translate(110.880169, 258.944108)">
		<g>
			<path class="st4" d="M36.5,20.8C49.6,18.9,54.8,8.3,57.7-7.6c0.4-2.8-0.8-4.7-4-6.3c-0.4-0.2-1,0-1,0.7
				c-3,19.3-8.9,21.8-13.1,22.4c-5.3,0.8-6.6-3-4.9-13.5l9-59c2-15.1-2.6-19-10.6-17.9c-0.8,0.1-1.4,0.7-1.5,1.6L20.9-9.5
				C16.5,17.3,21.8,22.9,36.5,20.8z"/>
		</g>
	</g>
</g>
<g>
	<g transform="translate(134.659904, 255.574297)">
		<g>
			<path class="st4" d="M85.8-18.4c-0.4-0.2-0.9,0-1,0.7C82.2,1.5,71.7,4.6,62.2,6c-8.6,1.2-15.8-0.7-18.1-9.8c1,0.1,2,0.1,3.2,0.2
				c10.6,0.4,21.5-6.6,26.8-22.9c5.1-15.5-1.9-28.6-15-26.2C44.9-54.4,32.2-45,29-19.6c-4.8,38.4,20.7,38.6,30.1,37.2
				c19.3-2.8,28.4-14,30.7-29.7C90.2-15,89-17,85.8-18.4z M54.2-45.2c8.4,0.5,9.9,5.5,7.4,15.9c-3,9.8-5.6,15.1-18.4,15.9
				c0.1-2.2,0.3-4.5,0.6-7C46.1-35.3,48.3-43.7,54.2-45.2z"/>
		</g>
	</g>
</g>
<g>
	<g transform="translate(176.571693, 249.635004)">
		<g>
			<path class="st4" d="M107.6-21.5c-0.4-0.2-0.9,0-1,0.5c-3,19.4-8.9,21.9-13.1,22.5c-5.3,0.7-6.5-3-4.9-13.5l4.1-27.3
				c2.2-15-1.8-19.1-9.7-18c-0.8,0.1-1.4,0.7-1.6,1.6l-0.9,5.2c-2.9-4.6-7.3-6.1-11-4.2c-15.4,1-23.6,15.3-26.7,36
				c-4.2,28.1,7.6,43.2,25.3,32.8c2.8-0.4,4.9-2.8,6.6-6.5c2.5,5.4,7.8,6.6,15.6,5.5c13.1-1.9,18.4-12.6,21.2-28.3
				C112-18.1,110.7-20.1,107.6-21.5z M63.5,7.9c-7.7-2.4-8.3-13.6-6.2-27c2.7-17.4,8.4-26.4,14.4-27.3c6.2-0.9,6.9,6.9,4.9,19.3
				l-1.7,9.9c-0.6,3.4-1,6.2-1.3,9C71.9,0.7,67.7,8.4,63.5,7.9z"/>
		</g>
	</g>
</g>
<g>
	<g transform="translate(224.329331, 242.867299)">
		<g>
			<path class="st4" d="M103.8,11.2c13.1-1.9,18.6-11.8,21.2-28.3c0.4-2.9-0.8-4.9-4-6.3c-0.5-0.2-1,0-1,0.5
				c-3,19.4-8.9,21.9-13.1,22.5c-5.3,0.8-6.2-3-4.9-13.5l3.2-25.9c1.7-14.3-1.4-18.7-8.5-18.2C86.5-60.1,77.9-56.2,74-46.5
				c-1.3-4.8-3.7-9-8.9-8.4c-0.9,0.1-1.6,0.9-1.8,1.7L55,3.7c-1,6.8,3.6,12.4,10.9,12.6c1.2,0.1,2.1-0.7,2.2-1.8
				c4.1-46.4,9.7-60,20.3-62.9c1.6-0.5,4.2,0.8,3.9,2.4L88.2-19C84.1,7.3,89.1,13.3,103.8,11.2z"/>
		</g>
	</g>
</g>
</svg>
